<svg xmlns="http://www.w3.org/2000/svg" width="29.001" height="28.601" viewBox="0 0 29.001 28.601">
  <defs>
    <style>
      .cls-1 {
        fill: #f3f1ea;
      }
    </style>
  </defs>
  <g id="Group_60" data-name="Group 60" transform="translate(-486 -3793)">
    <path id="Path_76" data-name="Path 76" class="cls-1" d="M1372.251,342.282c-1.278,0-2.557.015-3.835,0-6.769-.092-10.09-3.281-10.269-10.089a70.388,70.388,0,0,1,.256-10.331c.618-5.072,3.981-7.925,9.08-8.093,3.321-.109,6.65-.1,9.971-.006,5.352.151,8.989,3.371,9.4,8.687a69.158,69.158,0,0,1-.03,11.49c-.477,5.3-3.846,8.148-9.2,8.322-1.788.058-3.579.009-5.369.009Zm11.822-14.171c0-1.278.009-2.556,0-3.833-.045-5.739-2.036-7.7-7.9-7.782-1.022-.014-2.044,0-3.067,0-11.579,0-12.15.564-12.149,12.011,0,10.357.908,11.253,11.4,11.253C1383.414,339.756,1384.074,339.1,1384.073,328.11Z" transform="translate(-872.078 3479.313)"/>
    <path id="Path_77" data-name="Path 77" class="cls-1" d="M1385.963,334.53a6.835,6.835,0,0,1-7.064,6.932,6.912,6.912,0,0,1-6.979-7.052,7.013,7.013,0,0,1,7.29-7.171A6.921,6.921,0,0,1,1385.963,334.53Zm-2.5-.3c-.456-2.46-1.719-4.174-4.468-4.27a4.409,4.409,0,0,0-4.479,4.645c.337,2.59,1.922,4.239,4.605,4.133C1381.777,338.636,1383.184,336.942,1383.462,334.234Z" transform="translate(-878.492 3473.036)"/>
  </g>
</svg>
