<svg xmlns="http://www.w3.org/2000/svg" xmlns:svgjs="http://svgjs.com/svgjs" xmlns:xlink="http://www.w3.org/1999/xlink" width="288" height="288"><svg xmlns="http://www.w3.org/2000/svg" width="288" height="288" viewBox="0 0 1194.333 764.023"><g class="color000 svgShape" data-name="Group 396" transform="translate(-100 -146.977)"><path fill="none" stroke="#000" stroke-dasharray="10.966" stroke-miterlimit="10" stroke-width="2" d="M780.079,632.507c-44.437-33.648-68.7-89.576-62.019-142.958s44.086-102.443,95.609-125.4c44.193-19.693,95.479-20.394,143.739-13.094,138.374,20.932,263.607,108.135,325.577,226.708,65.263,124.874,65.575,281.976,167.247,382.9,56.2,55.789,139.733,86.018,221.071,80s158.856-48.146,205.162-111.514" class="colorStrokefff svgStroke" data-name="Path 278" transform="translate(-607.964 -198.791)"/><ellipse cx="389" cy="71" fill="#3d738f" class="color3d738f svgShape" data-name="Ellipse 49" rx="389" ry="71" transform="translate(100 769)"/><g class="color000 svgShape" data-name="Group 350" transform="translate(-1051.306 -241.697)"><g class="color000 svgShape" data-name="Group 171" transform="translate(1276.385 467.397)"><g class="color000 svgShape" data-name="Group 123"><path fill="#ffb27d" d="M1394.389,1221.355l35.465,87.774c2.941,12.117-3.4,12.779,8.775,13.764l5.306.43c11.345,1.129,8.8-3.182,7.322-15.944l-3.522-77.827Z" class="colorffb27d svgShape" data-name="Path 107" transform="translate(-1343.735 -747.654)"/></g><g class="color000 svgShape" data-name="Group 124"><path fill="#331832" d="M1433.132,1359.626s.655,11.565-6.889,15.459-29.93,8.682-20.868,15.411c5.2,3.861,27.838-.76,34.293-1.288s12.746,1.79,17.19-2.923c4.888-5.185-2.324-28.409-2.324-28.409s-5.334,3.357-10.354,3.637C1436.948,1361.916,1433.132,1359.626,1433.132,1359.626Z" class="color331832 svgShape" data-name="Path 108" transform="translate(-1347.014 -798.151)"/></g><g class="color000 svgShape" data-name="Group 125"><path fill="#ffb27d" d="M1449.432,1221.355l35.465,87.774c2.94,12.117-3.4,12.779,8.776,13.764l5.305.43c11.345,1.129,8.8-3.182,7.322-15.944l-3.522-77.827Z" class="colorffb27d svgShape" data-name="Path 109" transform="translate(-1364.095 -747.654)"/></g><g class="color000 svgShape" data-name="Group 126"><path fill="#331832" d="M1488.175,1359.626s.655,11.565-6.888,15.459-29.93,8.682-20.868,15.411c5.2,3.861,27.838-.76,34.293-1.288s12.746,1.79,17.19-2.923c4.888-5.185-2.324-28.409-2.324-28.409s-5.333,3.357-10.353,3.637C1491.99,1361.916,1488.175,1359.626,1488.175,1359.626Z" class="color331832 svgShape" data-name="Path 110" transform="translate(-1367.372 -798.151)"/></g><g class="color000 svgShape" data-name="Group 127"><path fill="#331832" d="M1497.851,545.175c7.234,16.909,22.081,6.786,28.4,10.914,9.759,6.379-1.884,13.159,21.834,23.193,22.191,9.388-8.058,12.3,7.384,43.966s-33.046,7.747-53.708,31.129-40.1-47.734-38.853-56.6,18.757-8.462,16.137-21.194,5.7-19.54,3.045-24.3C1478.386,545.642,1495.566,539.832,1497.851,545.175Z" class="color331832 svgShape" data-name="Path 111" transform="translate(-1369.057 -496.77)"/></g><g class="color000 svgShape" data-name="Group 134" transform="translate(6.85 281.935)"><g class="color000 svgShape" data-name="Group 128"><path fill="#ffb27d" d="M1343.294,953.982h0a3.661,3.661,0,0,0-2.928,4.251l5.648,30.644a3.66,3.66,0,0,0,4.251,2.928h0a3.661,3.661,0,0,0,2.928-4.251l-5.648-30.644A3.66,3.66,0,0,0,1343.294,953.982Z" class="colorffb27d svgShape" data-name="Path 112" transform="translate(-1330.58 -930.669)"/></g><g class="color000 svgShape" data-name="Group 129"><path fill="#ffb27d" d="M1357.877,951.294h0a3.662,3.662,0,0,0-2.928,4.251l6.317,34.271a3.661,3.661,0,0,0,4.251,2.928h0a3.661,3.661,0,0,0,2.928-4.252l-6.316-34.271A3.662,3.662,0,0,0,1357.877,951.294Z" class="colorffb27d svgShape" data-name="Path 113" transform="translate(-1335.974 -929.674)"/></g><g class="color000 svgShape" data-name="Group 130"><path fill="#ffb27d" d="M5.062,0h0a5.063,5.063,0,0,1,5.063,5.063V27.409a5.063,5.063,0,0,1-5.063,5.063h0A5.063,5.063,0,0,1,0,27.409V5.062A5.062,5.062,0,0,1,5.062,0Z" class="colorffb27d svgShape" data-name="Rectangle 123" transform="rotate(-48.93 17.056 -15.229)"/></g><g class="color000 svgShape" data-name="Group 131"><path fill="#ffb27d" d="M1372.461,948.606h0a3.661,3.661,0,0,0-2.928,4.251l5.063,27.471a3.662,3.662,0,0,0,4.251,2.928h0a3.662,3.662,0,0,0,2.928-4.252l-5.063-27.471A3.661,3.661,0,0,0,1372.461,948.606Z" class="colorffb27d svgShape" data-name="Path 114" transform="translate(-1341.369 -928.68)"/></g><g class="color000 svgShape" data-name="Group 132"><path fill="#ffb27d" d="M1328.3,928.144s-7.129,19.6.709,32.184c2.713,4.354,29.627-1.376,31.169-6.912s-3.687-23.757-3.687-23.757Z" class="colorffb27d svgShape" data-name="Path 115" transform="translate(-1325.044 -921.134)"/></g><g class="color000 svgShape" data-name="Group 133"><rect width="12.141" height="35.161" fill="#ffb27d" class="colorffb27d svgShape" data-name="Rectangle 124" rx="6.071" transform="matrix(.983 -.181 .181 .983 0 25.628)"/></g></g><g class="color000 svgShape" data-name="Group 136"><g class="color000 svgShape" data-name="Group 135"><path fill="#ffb27d" d="M1363.256,824.312c3.682-40.543,12.13-98.508,31.468-144.414,4.48-10.637,6.346-14.631,9.841-20.439,2.812-4.674-2.223-14.946-10.167-19.844-7.454-4.6-19.061-3.844-20.9-1.568-3.123,3.87-6.455,11.284-11.64,23.057-18.019,40.905-28.814,93.745-33.187,161.87Z" class="colorffb27d svgShape" data-name="Path 116" transform="translate(-1319.428 -531.229)"/></g></g><g class="color000 svgShape" data-name="Group 137"><path fill="#ccd39c" d="M1495.95,632.923s-11.781-33.144-53.745-31.636-73.651,56.653-81.5,175.174c0,0,68.717-15.068,149.216,20.085C1509.919,796.546,1514.381,681.231,1495.95,632.923Z" class="colorccd39c svgShape" data-name="Path 117" transform="translate(-1331.275 -518.28)"/></g><g class="color000 svgShape" data-name="Group 138"><path fill="#ccd39c" d="M1542.946,640.781l-38.545,9.112s-76.419,7.645-96.705,3.965-23.444-18.6-23.444-18.6,19.3-26.471,56.023-33.046a100.523,100.523,0,0,1,10.637-.991c6.229-.442,10.414.176,16.555.127C1524.559,600.894,1542.946,640.781,1542.946,640.781Z" class="colorccd39c svgShape" data-name="Path 118" transform="translate(-1339.986 -518.216)"/></g><g class="color000 svgShape" data-name="Group 139"><path fill="#020202" d="M1481.9,1047.5l-19.041-57.884a54.877,54.877,0,0,0-24.8-30.588l.74-1.292a56.364,56.364,0,0,1,25.472,31.415l19.041,57.883Z" class="color020202 svgShape" data-name="Path 119" transform="translate(-1359.888 -650.144)"/></g><g class="color000 svgShape" data-name="Group 161" transform="translate(76.99 18.67)"><g class="color000 svgShape" data-name="Group 140"><path fill="#ffb27d" d="M1499.282,576.2a11.606,11.606,0,0,1-9.457-6.92l-5.2-12.078-1.509-3.506-8.875-20.612,1.539,21.361.925,12.821.264,3.655a5.833,5.833,0,0,1-4.812,6.15l-.052.009c-1.579,2.568-3.76,7.788,2.757,9.861,7.657,2.437,20.043-3.59,24.488-10.734Z" class="colorffb27d svgShape" data-name="Path 120" transform="translate(-1448.857 -511.742)"/></g><g class="color000 svgShape" data-name="Group 141"><path fill="#ea9967" d="M1487.779,568.713q-.005.177-.023.354c-.509,6.886-7.874,10.1-7.874,10.1l-.045-.038-.925-12.821c2.252-.825,5.459-1.673,7.336-.749C1487.229,566.043,1487.846,567.009,1487.779,568.713Z" class="colorea9967 svgShape" data-name="Path 121" transform="translate(-1451.989 -523.605)"/></g><g class="color000 svgShape" data-name="Group 142"><ellipse cx="20.069" cy="24.76" fill="#ffb27d" class="colorffb27d svgShape" data-name="Ellipse 37" rx="20.069" ry="24.76" transform="translate(4.346)"/></g><g class="color000 svgShape" data-name="Group 143"><path fill="#ffb27d" d="M1497.786,539.355c-2.274,2.17-5.452,2.393-7.1.5s-1.141-5.193,1.132-7.363,5.452-2.393,7.1-.5S1500.06,537.184,1497.786,539.355Z" class="colorffb27d svgShape" data-name="Path 122" transform="translate(-1455.986 -510.86)"/></g><g class="color000 svgShape" data-name="Group 145"><g class="color000 svgShape" data-name="Group 144"><path fill="#080435" d="M1478.355,534.421a.457.457,0,0,1-.052-.865,4.943,4.943,0,0,1,5.91,1.318.46.46,0,0,1-.016.646.5.5,0,0,1-.646-.016,7.816,7.816,0,0,0-4.907-1.1A.456.456,0,0,1,1478.355,534.421Z" class="color080435 svgShape" data-name="Path 123" transform="translate(-1451.659 -511.742)"/></g></g><g class="color000 svgShape" data-name="Group 146"><path fill="#080435" d="M1482.6,542.035c.035,1.089-.578,1.992-1.368,2.017s-1.459-.837-1.493-1.926.578-1.992,1.368-2.017S1482.57,540.947,1482.6,542.035Z" class="color080435 svgShape" data-name="Path 124" transform="translate(-1452.296 -514.34)"/></g><g class="color000 svgShape" data-name="Group 148"><g class="color000 svgShape" data-name="Group 147"><path fill="#080435" d="M1450.577,535.78a.457.457,0,0,1-.431-.751,4.944,4.944,0,0,1,5.879-1.45.461.461,0,0,1,.273.586.5.5,0,0,1-.586.272,7.82,7.82,0,0,0-4.885,1.2A.452.452,0,0,1,1450.577,535.78Z" class="color080435 svgShape" data-name="Path 125" transform="translate(-1441.306 -511.772)"/></g></g><g class="color000 svgShape" data-name="Group 149"><path fill="#080435" d="M1457.888,540.846c.087,1.086-.482,2.017-1.27,2.079s-1.5-.766-1.583-1.853.482-2.017,1.27-2.08S1457.8,539.76,1457.888,540.846Z" class="color080435 svgShape" data-name="Path 126" transform="translate(-1443.154 -513.926)"/></g><g class="color000 svgShape" data-name="Group 158" transform="translate(0 9.683)"><g class="color000 svgShape" data-name="Group 151"><g class="color000 svgShape" data-name="Group 150"><path fill="#764678" d="M1443.477,546.226c-2.948-1.275-5.411-4.747-6.581-9.285-1.91-7.4.163-15.386,4.621-17.815a5.736,5.736,0,0,1,5.235-.227c2.948,1.275,5.411,4.747,6.582,9.272h0c1.91,7.384-.162,15.387-4.623,17.828a5.724,5.724,0,0,1-3.117.732A6.3,6.3,0,0,1,1443.477,546.226Zm8.991-17.818c-1.1-4.275-3.37-7.517-6.072-8.688a4.964,4.964,0,0,0-4.45.18c-4.126,2.253-6,9.8-4.185,16.818,1.1,4.262,3.37,7.517,6.072,8.687a4.992,4.992,0,0,0,4.444-.18c4.126-2.266,6.007-9.814,4.191-16.818Z" class="color764678 svgShape" data-name="Path 127" transform="translate(-1436.185 -515.985)"/></g></g><g class="color000 svgShape" data-name="Group 152"><ellipse cx="13.458" cy="9.14" fill="#fff" class="colorfff svgShape" data-name="Ellipse 38" opacity=".3" rx="13.458" ry="9.14" transform="rotate(-87.608 25.73 2.801)"/></g><g class="color000 svgShape" data-name="Group 153"><path fill="#fff" d="M1454.137,529.2c1.218,7.18-1.355,14.751-5.747,16.908s-8.941-1.914-10.158-9.094,1.355-14.751,5.747-16.909S1452.919,522.02,1454.137,529.2Z" class="colorfff svgShape" data-name="Path 128" opacity=".3" transform="translate(-1436.83 -516.41)"/></g><g class="color000 svgShape" data-name="Group 155"><g class="color000 svgShape" data-name="Group 154"><path fill="#764678" d="M1475.5,542.575c-3-1.666-5.161-5.173-5.935-9.624-1.334-7.636,1.972-15.622,7.374-17.8a7.368,7.368,0,0,1,6.5.413c2.991,1.665,5.149,5.172,5.917,9.61h0c1.34,7.65-1.967,15.636-7.375,17.8a7.342,7.342,0,0,1-3.237.57A7.668,7.668,0,0,1,1475.5,542.575Zm1.768-26.608c-5.025,2.035-8.088,9.582-6.828,16.827.722,4.125,2.777,7.5,5.5,9a6.653,6.653,0,0,0,5.72.357c5.031-2.035,8.094-9.581,6.828-16.827h0c-.715-4.111-2.765-7.47-5.479-8.991a6.5,6.5,0,0,0-5.739-.37Z" class="color764678 svgShape" data-name="Path 129" transform="translate(-1448.422 -514.58)"/></g></g><g class="color000 svgShape" data-name="Group 157"><g class="color000 svgShape" data-name="Group 156"><path fill="#764678" d="M1461.458,537.309a.823.823,0,0,0,.539-.164h0a7.523,7.523,0,0,1,6.031-.725.864.864,0,0,0,1.016-.6.816.816,0,0,0-.6-1,8.994,8.994,0,0,0-7.436.983.838.838,0,0,0-.168,1.167A.806.806,0,0,0,1461.458,537.309Z" class="color764678 svgShape" data-name="Path 130" transform="translate(-1445.243 -521.929)"/></g></g></g><g class="color000 svgShape" data-name="Group 159"><path fill="#331832" d="M1465.025,564.918a9.217,9.217,0,0,1-4.241-1,.514.514,0,0,1,.468-.915c4.81,2.46,10.154-1.049,10.207-1.084a.514.514,0,1,1,.571.854A13.907,13.907,0,0,1,1465.025,564.918Z" class="color331832 svgShape" data-name="Path 131" transform="translate(-1445.18 -522.376)"/></g><g class="color000 svgShape" data-name="Group 160"><path fill="#331832" d="M1478.359,563.089a.514.514,0,0,1-.506-.429,3.369,3.369,0,0,0-1.307-2.272.514.514,0,1,1,.538-.875,4.39,4.39,0,0,1,1.782,2.977.515.515,0,0,1-.422.592A.494.494,0,0,1,1478.359,563.089Z" class="color331832 svgShape" data-name="Path 132" transform="translate(-1451.024 -521.489)"/></g></g><g class="color000 svgShape" data-name="Group 162"><path fill="#ccd39c" d="M1497.149,762.941l39.825,306.383s-144.984,46.223-222.973,0c0,0,29.1-275.737,39.753-313.227Z" class="colorccd39c svgShape" data-name="Path 133" transform="translate(-1314.001 -575.561)"/></g><g class="color000 svgShape" data-name="Group 163"><path fill="#ccd39c" d="M1361.025,653.377s-30.323,58.441-39.568,154.665c0,0,5.578,23.963,33.6,18.75l26.485-127.458,8.663-49.294Z" class="colorccd39c svgShape" data-name="Path 134" transform="translate(-1316.759 -536.332)"/></g><g class="color000 svgShape" data-name="Group 164"><path fill="#331832" d="M1350.771,845.739l-1.027-.028c.866-31.691,21.035-146.8,21.238-147.962l1.012.178C1371.791,699.085,1351.636,814.123,1350.771,845.739Z" class="color331832 svgShape" data-name="Path 135" transform="translate(-1327.222 -553.979)"/></g><g class="color000 svgShape" data-name="Group 165"><path fill="#331832" d="M1475.723,500.328c-2.3-6.98-16.249-8.233-22.737-3.712-5.568,3.879-12.054,3.505-15.265.408s-1.675-13.882,7.316-16.193,14.529-12.84,29.607-11.042c11.458,1.366,20.018,12.392,20.557,21.057.276,4.438-1.97,16.254-5.65,18.751C1485.528,512.327,1481.96,519.27,1475.723,500.328Z" class="color331832 svgShape" data-name="Path 136" transform="translate(-1359.195 -469.583)"/></g><g class="color000 svgShape" data-name="Group 166"><path fill="#ccd39c" d="M1524.6,601.6s63.224,1.42,82.056,47.6c16.337,40.063,16.435,73.826-6.163,99.505s-55.742,30.85-55.742,30.85-.814-40.443-14.265-63.252c0,0,37.137-12.665,15.348-50.738C1527.221,633.05,1524.6,601.6,1524.6,601.6Z" class="colorccd39c svgShape" data-name="Path 137" transform="translate(-1391.898 -518.414)"/></g><g class="color000 svgShape" data-name="Group 167"><path fill="#331832" d="M1532.924,782.858c10.045,8.677,23,42.561,15.814,60.708s-20.47-48.253-20.1-53.321C1529.088,784.089,1531.7,781.8,1532.924,782.858Z" class="color331832 svgShape" data-name="Path 138" transform="translate(-1393.39 -585.368)"/></g><g class="color000 svgShape" data-name="Group 168"><path fill="#331832" d="M1534.019,756.621l-.391-.95c13.769-5.662,21.736-15.125,23.678-28.124a43.164,43.164,0,0,0-1.213-17.914l.975-.323a44.323,44.323,0,0,1,1.255,18.388C1556.947,736.9,1551.615,749.384,1534.019,756.621Z" class="color331832 svgShape" data-name="Path 139" transform="translate(-1395.238 -558.255)"/></g><g class="color000 svgShape" data-name="Group 169"><path fill="#331832" d="M1556.6,875.217l-.129-1.019c19.564-2.487,37.463-15.228,37.642-15.357l.6.834C1594.537,859.805,1576.433,872.7,1556.6,875.217Z" class="color331832 svgShape" data-name="Path 140" transform="translate(-1403.689 -613.565)"/></g><g class="color000 svgShape" data-name="Group 170"><path fill="#ffb27d" d="M1503.358,805.424c-5.574-2.579-17.747-5.207-23.371-7.679-2.438-1.072-10.893-4.118-12.311-1.863-1.232,1.96,4.3,7.534,7.26,9.875-17.354,3.287-41.231,15.743-4.372,11.459,0,.019,0,.04.007.06-3.689.773-24.211,5.074-21.263,9.519,2.6,3.924,17.42,1.444,23.5.237l.052.163c-6.077,1.756-20.636,6.369-16.936,9.3,4.645,3.679,20.951,1.346,20.951,1.346s-20.769,3.434-15.943,8.331c2.72,2.761,14.412-.428,21.662-2.519h0c1.52-.439,2.849-.83,3.854-1.107a10.158,10.158,0,0,0,2.174-.864,91.594,91.594,0,0,0,18.845-8.954,13.018,13.018,0,0,0,6.932-14.757C1513,811.163,1505.775,806.543,1503.358,805.424Z" class="colorffb27d svgShape" data-name="Path 141" transform="translate(-1363.942 -589.976)"/></g></g><g class="color000 svgShape" data-name="Group 210" transform="translate(1657.576 467.249)"><g class="color000 svgShape" data-name="Group 172"><path fill="#ffb27d" d="M1951.971,918.158c3.446,3.909,8.527,13.172,11.9,17.147,1.461,1.723,5.983,7.862,4.492,9.56-1.3,1.476-7.166-1.675-9.785-3.516,1.524,14.907-2.828,37.336-8.26,6.328l-.05.009c.263,3.187,1.729,20.915-2.6,19.593-3.82-1.167-5.388-13.816-5.877-19.053l-.145,0c.042,5.366-.188,18.321-3.466,16.021-4.114-2.887-6.162-16.712-6.162-16.712s2.231,17.719-2.919,14.98c-2.9-1.544-3.137-11.823-3.19-18.224h0v0c-.011-1.342-.014-2.517-.032-3.4a8.6,8.6,0,0,1,.176-1.977,77.736,77.736,0,0,1,2.723-17.489,11.044,11.044,0,0,1,10.322-9.206C1944.972,911.705,1950.477,916.464,1951.971,918.158Z" class="colorffb27d svgShape" data-name="Path 142" transform="translate(-1921.516 -633.143)"/></g><g class="color000 svgShape" data-name="Group 174"><g class="color000 svgShape" data-name="Group 173"><path fill="#92bcb5" d="M1961.743,822.158c32.4-21.292,1.107-94.523,14.576-140.014,3.121-10.541,4.467-14.518,7.163-20.384,2.169-4.72-3.678-13.913-11.714-17.713-7.539-3.565-25.629-1.217-27.06,1.171-21.819,36.409-32.286,95.728-21.416,172.028C1923.292,817.246,1947.836,831.3,1961.743,822.158Z" class="color92bcb5 svgShape" data-name="Path 143" transform="translate(-1918.957 -533.292)"/></g></g><g class="color000 svgShape" data-name="Group 175"><path fill="#331832" d="M2051,1354.342s-.276,10.98-7.7,14.077-28.958,5.892-20.914,12.952c4.616,4.051,26.369,1.434,32.51,1.434s11.908,2.677,16.472-1.434c5.021-4.522,0-27.029,0-27.029s-5.3,2.761-10.066,2.637C2054.434,1356.8,2051,1354.342,2051,1354.342Z" class="color331832 svgShape" data-name="Path 144" transform="translate(-1956.559 -796.696)"/></g><g class="color000 svgShape" data-name="Group 176"><path fill="#764678" d="M1967.092,828.451S1965.61,878,1981.424,973.066c11.417,68.627,24.895,137.781,31.507,170.935a25.863,25.863,0,0,0,24.16,21l6.353.255c12.781.513,23.154-10.467,22.221-23.519l-16.041-224.3-3.953-73.825Z" class="color764678 svgShape" data-name="Path 145" transform="translate(-1936.747 -602.176)"/></g><g class="color000 svgShape" data-name="Group 177"><path fill="#331832" d="M2205.4,1346.911s4.271,10.12-1.226,16-23.964,17.292-13.726,20.413c5.874,1.791,24.621-9.55,30.217-12.078s11.954-2.464,14.421-8.089c2.714-6.188-11.128-24.632-11.128-24.632s-3.693,4.7-8.088,6.547C2209.536,1347.74,2205.4,1346.911,2205.4,1346.911Z" class="color331832 svgShape" data-name="Path 146" transform="translate(-2018.254 -790.846)"/></g><g class="color000 svgShape" data-name="Group 178"><path fill="#764678" d="M2071.332,835.759s2.582,49.509,26.131,142.954c17,67.461,36.1,135.279,45.406,167.779a25.862,25.862,0,0,0,25.8,18.955l6.353-.266c12.78-.536,22.219-12.328,20.22-25.26l-34.364-222.23-9.988-73.252Z" class="color764678 svgShape" data-name="Path 147" transform="translate(-1975.318 -604.879)"/></g><g class="color000 svgShape" data-name="Group 179"><path fill="#331832" d="M2121.133,905.834c-.153,5.979-36.3,8.353-81.018,6.958s-80.444-7.578-80.291-13.557,36.131-9.488,80.845-8.094S2121.286,899.856,2121.133,905.834Z" class="color331832 svgShape" data-name="Path 148" transform="translate(-1934.072 -625.251)"/></g><g class="color000 svgShape" data-name="Group 180"><path fill="#92bcb5" d="M2110.188,627.437s-7.907-31.337-66.243-31.655c-84.126-.458-76.336,76.841-84.121,194.316,0,0,82.823-10.247,161.309,6.6C2121.133,796.7,2128.455,675.319,2110.188,627.437Z" class="color92bcb5 svgShape" data-name="Path 149" transform="translate(-1934.073 -516.114)"/></g><g class="color000 svgShape" data-name="Group 181"><path fill="#92bcb5" d="M2131.72,622.791l-38.1,21.081s-83.426,7.576-105.572,3.928-28.223-19.911-28.223-19.911,23.588-24.406,63.68-30.922c3.767-.617,7.674-1.07,11.725-1.334a115.273,115.273,0,0,1,20.266.4C2106.308,601.762,2131.72,622.791,2131.72,622.791Z" class="color92bcb5 svgShape" data-name="Path 150" transform="translate(-1934.073 -515.961)"/></g><g class="color000 svgShape" data-name="Group 182"><path fill="#764678" d="M1971,908.9s48.448-14.254,148.785,5.311l.773,14.435-147.087,5.2Z" class="color764678 svgShape" data-name="Path 151" transform="translate(-1938.206 -630.078)"/></g><g class="color000 svgShape" data-name="Group 184"><g class="color000 svgShape" data-name="Group 183"><path fill="#92bcb5" d="M2219.521,812.931c-3.508-38.614-28.583-141.656-31.912-147.188-2.678-4.451,2.117-14.234,9.683-18.9,7.1-4.377,16.277-9.953,18.406-8.158,29.99,25.283,52.543,120.921,44.405,172.113Z" class="color92bcb5 svgShape" data-name="Path 152" transform="translate(-2018.051 -531.856)"/></g></g><g class="color000 svgShape" data-name="Group 185"><path fill="#5c305d" d="M2053.891,502.175a31.959,31.959,0,0,0,0,13.271c1.537,7.383,9.046-10.765,9.046-10.765Z" class="color5c305d svgShape" data-name="Path 153" transform="translate(-1968.614 -481.49)"/></g><g class="color000 svgShape" data-name="Group 186"><path fill="#ffb27d" d="M2105.232,567.893c-6.036,7.435-16.876,6.388-25.358,2.641-6.819-3.013-5.84-2.955-4.9-4.05,2.309-2.709,4.217-3.365,4.344-6.486l.167-4.089.02-.509.216-5.331.381-9.2.988-24.193,7.543,24.32,1.281,4.139,4.4,14.215C2095.733,563.941,2105.183,567.883,2105.232,567.893Z" class="colorffb27d svgShape" data-name="Path 154" transform="translate(-1976.42 -486.855)"/></g><g class="color000 svgShape" data-name="Group 187"><path fill="#331832" d="M2094.124,567.9a17.876,17.876,0,0,1-11.6,6.956l.02-.509.216-5.331C2086.924,568.613,2094.124,567.9,2094.124,567.9Z" class="color331832 svgShape" data-name="Path 155" transform="translate(-1979.457 -505.801)"/></g><g class="color000 svgShape" data-name="Group 188"><ellipse cx="26.069" cy="21.62" fill="#ffb27d" class="colorffb27d svgShape" data-name="Ellipse 39" rx="26.069" ry="21.62" transform="rotate(-82.521 75.792 -15.192)"/></g><g class="color000 svgShape" data-name="Group 190"><g class="color000 svgShape" data-name="Group 189"><path fill="#080435" d="M2087.231,528.636a.439.439,0,0,1-.061-.829,4.746,4.746,0,0,1,5.69,1.19.441.441,0,0,1-.007.62.481.481,0,0,1-.62-.008,7.5,7.5,0,0,0-4.725-.992A.438.438,0,0,1,2087.231,528.636Z" class="color080435 svgShape" data-name="Path 156" transform="translate(-1981.078 -490.794)"/></g></g><g class="color000 svgShape" data-name="Group 192"><g class="color000 svgShape" data-name="Group 191"><path fill="#080435" d="M2066.476,528.042a.32.32,0,0,1-.265-.183.528.528,0,0,1,.086-.611,3.073,3.073,0,0,1,4.495-.118.521.521,0,0,1,.094.606.324.324,0,0,1-.47.132,4.6,4.6,0,0,0-3.734.093A.29.29,0,0,1,2066.476,528.042Z" class="color080435 svgShape" data-name="Path 157" transform="translate(-1973.402 -490.374)"/></g></g><g class="color000 svgShape" data-name="Group 193"><path fill="#fff" d="M2069.3,549.387a44.35,44.35,0,0,0,14.092-1.237s.062,6.9-7.511,6.8C2071.481,554.883,2069.3,549.387,2069.3,549.387Z" class="colorfff svgShape" data-name="Path 158" transform="translate(-1974.568 -498.496)"/></g><g class="color000 svgShape" data-name="Group 194"><path fill="#ef8062" d="M2084.766,603.079s-10.248-3.169-12.972-.71-.721,13.718,4,14.718S2089.432,605.794,2084.766,603.079Z" class="coloref8062 svgShape" data-name="Path 159" transform="translate(-1975.034 -518.205)"/></g><g class="color000 svgShape" data-name="Group 195"><path fill="#aed3cc" d="M2083.047,593.592s13.377-4.728,15.986-9.457,16.46,6.2,16.219,9.457-25.187,21.36-26.818,19.077S2079.779,596.691,2083.047,593.592Z" class="coloraed3cc svgShape" data-name="Path 160" transform="translate(-1979.335 -511.374)"/></g><g class="color000 svgShape" data-name="Group 196"><path fill="#aed3cc" d="M2073.486,594.035s-2-4.964-1.037-7.659c0,0,.636-2.369-1.4-2.205s-13.126,7.908-14.1,10.272-1.141,13.452,2.445,14.267,12.234-11.1,13.251-12.273A3.27,3.27,0,0,0,2073.486,594.035Z" class="coloraed3cc svgShape" data-name="Path 161" transform="translate(-1969.773 -511.816)"/></g><g class="color000 svgShape" data-name="Group 198"><path fill="#331832" d="M2076.078,622.837h-.083c-3.109-.051-4.8-6.133-4.873-6.392l.473-.129c.016.06,1.664,5.987,4.408,6.032h.074c2.792,0,5.293-2.591,5.318-2.617l.354.337C2081.64,620.181,2079.076,622.837,2076.078,622.837Z" class="color331832 svgShape" data-name="Path 163" transform="translate(-1975.241 -523.709)"/></g><g class="color000 svgShape" data-name="Group 199"><path fill="#331832" d="M2079.57,493.567a21.4,21.4,0,0,1-16.623,8.733s-1.354-.5.607-1.747,4.746-4.655,4.005-5.715-9.171,10.431-17.959,9.836c0,0-12.212-.418-5.119-7.7,4.4-4.518,0-22.338,29.169-23.968,4.265-.239,13.469.314,16.892,6.9,0,0,11.583-.362,13.941,13.651,3.546,21.077-15.735,28.8-15.735,28.8s4.78-17.89-.489-15.57c-6.767,2.979-10.354-.861-7.419-4.744S2084.5,490.478,2079.57,493.567Z" class="color331832 svgShape" data-name="Path 164" transform="translate(-1964.568 -470.687)"/></g><g class="color000 svgShape" data-name="Group 200"><path fill="#ffb27d" d="M2116.835,533.824a4.23,4.23,0,1,1,1.712-6.071A4.475,4.475,0,0,1,2116.835,533.824Z" class="colorffb27d svgShape" data-name="Path 165" transform="translate(-1989.625 -490.275)"/></g><g class="color000 svgShape" data-name="Group 201"><path fill="#331832" d="M2128.125,483.5a.488.488,0,0,1-.346-.143c-3.188-3.189-8.042-1.965-8.091-1.951a.49.49,0,0,1-.248-.947c.221-.057,5.448-1.375,9.03,2.207a.489.489,0,0,1-.346.835Z" class="color331832 svgShape" data-name="Path 166" transform="translate(-1992.978 -473.354)"/></g><g class="color000 svgShape" data-name="Group 202"><path fill="#331832" d="M2114.7,474.729a.515.515,0,0,1-.069,0,.489.489,0,0,1-.416-.549c.013-.114.262-2.57-3.543-3.875a.489.489,0,0,1,.317-.926c4.609,1.58,4.213,4.8,4.195,4.933A.49.49,0,0,1,2114.7,474.729Z" class="color331832 svgShape" data-name="Path 167" transform="translate(-1989.749 -469.348)"/></g><g class="color000 svgShape" data-name="Group 203"><ellipse cx="20.32" cy="10.133" fill="#331832" class="color331832 svgShape" data-name="Ellipse 40" rx="20.32" ry="10.133" transform="rotate(-3.194 4960.96 -3467.574)"/></g><g class="color000 svgShape" data-name="Group 204"><path fill="#331832" d="M1958.507,824.7c-.071-.834-6.833-83.984,17.281-135.492l.886.415c-24,51.273-17.263,134.162-17.193,134.994Z" class="color331832 svgShape" data-name="Path 168" transform="translate(-1933.243 -550.67)"/></g><g class="color000 svgShape" data-name="Group 205"><path fill="#331832" d="M2205.877,759.385a142.144,142.144,0,0,0-19.647-44.545l.794-.573a143.29,143.29,0,0,1,19.8,44.885Z" class="color331832 svgShape" data-name="Path 169" transform="translate(-2017.818 -559.94)"/></g><g class="color000 svgShape" data-name="Group 206"><path fill="#080435" d="M2068.009,535.963c.118.928.759,1.611,1.432,1.526s1.124-.907,1.006-1.836-.759-1.61-1.432-1.525S2067.891,535.035,2068.009,535.963Z" class="color080435 svgShape" data-name="Path 170" transform="translate(-1974.083 -493.306)"/></g><g class="color000 svgShape" data-name="Group 207"><path fill="#080435" d="M2087.964,536.577c.118.928.76,1.611,1.433,1.525s1.124-.907,1.006-1.835-.76-1.611-1.433-1.525S2087.846,535.648,2087.964,536.577Z" class="color080435 svgShape" data-name="Path 171" transform="translate(-1981.463 -493.533)"/></g><g class="color000 svgShape" data-name="Group 208"><path fill="#020202" d="M2083.549,981c-.041-.191-4.227-19.28-8.2-34.381-3.863-14.693-19.142-18.627-19.3-18.665l.358-1.447c.163.04,16.295,4.195,20.38,19.733,3.978,15.132,8.169,34.251,8.211,34.442Z" class="color020202 svgShape" data-name="Path 172" transform="translate(-1969.668 -638.446)"/></g><g class="color000 svgShape" data-name="Group 209"><path fill="#ffb27d" d="M2240.524,912.821c-3.445,3.908-8.527,13.172-11.9,17.147-1.462,1.723-5.983,7.861-4.492,9.56,1.295,1.475,7.166-1.675,9.785-3.516-1.524,14.907,2.829,37.336,8.261,6.328l.05.009c-.264,3.187-1.73,20.915,2.6,19.593,3.82-1.166,5.388-13.816,5.877-19.053l.145,0c-.042,5.366.187,18.321,3.466,16.02,4.114-2.887,6.161-16.711,6.161-16.711s-2.231,17.719,2.918,14.979c2.9-1.544,3.138-11.823,3.191-18.224h0v0c.011-1.342.014-2.517.032-3.4a8.625,8.625,0,0,0-.177-1.977,77.655,77.655,0,0,0-2.722-17.489,11.045,11.045,0,0,0-10.323-9.207C2247.523,906.368,2242.018,911.127,2240.524,912.821Z" class="colorffb27d svgShape" data-name="Path 173" transform="translate(-2031.728 -631.17)"/></g></g><g class="color000 svgShape" data-name="Group 250"><g class="color000 svgShape" data-name="Group 249"><g class="color000 svgShape" data-name="Group 248" transform="translate(1358.842 463.672)"><g class="color000 svgShape" data-name="Group 211"><path fill="#5f3563" d="M1703.215,629.727a32.294,32.294,0,0,0-9.9-15.193c-8.517-7.252-24.677-17.712-50.249-21.869-3.841-.629-15.053-3.22-19.184-3.489a117.507,117.507,0,0,0-20.666.411c-51.817,5.839-70.3,31.4-70.3,31.4l31.42,17.384s85.073,7.726,107.657,4.005a47.757,47.757,0,0,0,4.924-1.084c3.053,24.234,18.874,148.443,23.383,156.41,5,8.831,21.885-1.989,21.885-1.989C1731.1,729.251,1710.512,653.631,1703.215,629.727Z" class="color5f3563 svgShape" data-name="Path 174" transform="translate(-1477.432 -509.996)"/></g><g class="color000 svgShape" data-name="Group 212"><path fill="#331832" d="M1538.252,905.5c.156,6.1,37.022,8.518,82.618,7.1s82.032-7.728,81.876-13.824-36.845-9.676-82.441-8.254S1538.1,899.406,1538.252,905.5Z" class="color331832 svgShape" data-name="Path 175" transform="translate(-1479.405 -621.443)"/></g><g class="color000 svgShape" data-name="Group 213"><path fill="#92a5e6" d="M1548.531,621.609s8.063-31.956,67.551-32.28c85.787-.468,77.844,78.358,85.782,198.153,0,0-52.055-23.214-164.537,5.229C1537.327,792.71,1529.9,670.436,1548.531,621.609Z" class="color92a5e6 svgShape" data-name="Path 176" transform="translate(-1478.523 -510.151)"/></g><g class="color000 svgShape" data-name="Group 215"><g class="color000 svgShape" data-name="Group 214"><path fill="#5f3563" d="M1484.982,819.942c11.922-53.355,25.506-102.809,40.894-141.71,4.123-10.424-7.715-8.751-4.321-14.392,2.732-4.539-2.159-14.515-9.874-19.273-7.239-4.464-18.513-3.733-20.3-1.523-3.033,3.758-6.269,10.959-11.305,22.393-17.5,39.728-30.971,87.151-35.218,153.316,0,0,4.276,3.177,18.538,3.788C1476.6,823.107,1484.982,819.942,1484.982,819.942Z" class="color5f3563 svgShape" data-name="Path 177" transform="translate(-1444.862 -529.373)"/></g></g><g class="color000 svgShape" data-name="Group 216"><path fill="#331832" d="M1679.57,1380.581a13.785,13.785,0,0,1,12.8,7.073,11.585,11.585,0,0,0,5.59,5.225c7.963,3.319,31.034,6.315,22.413,13.88-4.947,4.341-28.26,1.536-34.841,1.536s-12.762,2.868-17.653-1.537c-2.93-2.639-2.669-10.991-1.823-18.053a9.3,9.3,0,0,1,10.3-8.217,15.149,15.149,0,0,0,2.316.129C1678.976,1380.609,1679.276,1380.6,1679.57,1380.581Z" class="color331832 svgShape" data-name="Path 178" transform="translate(-1526.47 -802.764)"/></g><g class="color000 svgShape" data-name="Group 217"><path fill="#764678" d="M1707.007,905.079a7.759,7.759,0,0,1,6.885,6.787c.866,7.162,1.007,22.3-3.285,53.693-6.306,46.127-27.444,220.146-31.405,242.581-1.417,8.024-46.762,6.719-46.851-1.917L1638.98,937.2l-40.2-30.673a565.575,565.575,0,0,1,64.1-3.819A434.345,434.345,0,0,1,1707.007,905.079Z" class="color764678 svgShape" data-name="Path 179" transform="translate(-1501.794 -626.065)"/></g><g class="color000 svgShape" data-name="Group 218"><path fill="#331832" d="M1579.188,1380.581a13.785,13.785,0,0,1,12.8,7.073,11.585,11.585,0,0,0,5.59,5.225c7.962,3.319,31.034,6.315,22.413,13.88-4.947,4.341-28.259,1.536-34.841,1.536s-12.762,2.868-17.653-1.537c-2.929-2.639-2.669-10.991-1.823-18.053a9.3,9.3,0,0,1,10.3-8.217,15.147,15.147,0,0,0,2.316.129C1578.594,1380.609,1578.894,1380.6,1579.188,1380.581Z" class="color331832 svgShape" data-name="Path 180" transform="translate(-1489.34 -802.764)"/></g><g class="color000 svgShape" data-name="Group 219"><path fill="#764678" d="M1626.333,892.621a7.759,7.759,0,0,1,6.885,6.788c.866,7.162,1.007,22.3-3.285,53.693-6.306,46.128-27.445,220.146-31.406,242.581-1.417,8.025-46.762,6.72-46.851-1.917l6.629-269.027-1.245-55.713S1618.178,891.752,1626.333,892.621Z" class="color764678 svgShape" data-name="Path 181" transform="translate(-1484.372 -613.607)"/></g><g class="color000 svgShape" data-name="Group 220"><path fill="#020202" d="M1664.184,1045.535l-1.451-.345,8.139-34.285a56.411,56.411,0,0,1,25.493-31.441l.742,1.293a54.93,54.93,0,0,0-24.808,30.583Z" class="color020202 svgShape" data-name="Path 182" transform="translate(-1525.45 -654.457)"/></g><g class="color000 svgShape" data-name="Group 221"><path fill="#ffb27d" d="M1637.043,561.284c5.989,7.376,17.46,8.2,26.309,5.687,4.48-1.272,4.657-6.02,3.26-6.331-3.425-.765-3.9-3.747-4.021-6.842l-.165-4.057-.02-.5-.213-5.289-.379-9.123-.98-24-7.483,24.126-1.271,4.105-4.367,14.1C1646.305,557.709,1639.4,560.29,1637.043,561.284Z" class="colorffb27d svgShape" data-name="Path 183" transform="translate(-1515.947 -481.113)"/></g><g class="color000 svgShape" data-name="Group 222"><path fill="#331832" d="M1659.476,561.355a16.62,16.62,0,0,0,11.247,7.077l-.02-.5-.214-5.289C1666.356,562.24,1659.476,561.355,1659.476,561.355Z" class="color331832 svgShape" data-name="Path 184" transform="translate(-1524.245 -499.804)"/></g><g class="color000 svgShape" data-name="Group 223"><path fill="#331832" d="M1704.765,499.146a31.71,31.71,0,0,1,0,13.166c-1.525,7.324-8.974-10.679-8.974-10.679Z" class="color331832 svgShape" data-name="Path 185" transform="translate(-1537.677 -476.794)"/></g><g class="color000 svgShape" data-name="Group 224"><ellipse cx="21.447" cy="25.861" fill="#ffb27d" class="colorffb27d svgShape" data-name="Ellipse 41" rx="21.447" ry="25.861" transform="rotate(-7.479 195.472 -925.103)"/></g><g class="color000 svgShape" data-name="Group 225"><path fill="#331832" d="M1633.473,499.483l10.381-1.077a7.556,7.556,0,0,0,5.606-3.4c2.127-3.329,4.687-5.038,14.371-4.675,12.263.461,20.36-6.85,21.684-13.266,1.352-6.549-4.923-10.988-11.083-7.866s-3.515-4.535-9.438-5.348c-11.068-1.519-13.141,7.013-22.2,6.736-11.881-.364-33.164,8.665-23.07,29.58Z" class="color331832 svgShape" data-name="Path 186" transform="translate(-1508.565 -463.672)"/></g><g class="color000 svgShape" data-name="Group 227"><g class="color000 svgShape" data-name="Group 226"><path fill="#080435" d="M1671.985,525.608a.435.435,0,0,0-.195-.8,4.708,4.708,0,0,0-5.011,2.853.437.437,0,0,0,.2.583.477.477,0,0,0,.583-.2,7.446,7.446,0,0,1,4.161-2.374A.431.431,0,0,0,1671.985,525.608Z" class="color080435 svgShape" data-name="Path 187" transform="translate(-1526.93 -486.269)"/></g></g><g class="color000 svgShape" data-name="Group 228"><path fill="#080435" d="M1672.023,533.66c.273,1,1.083,1.651,1.809,1.453a1.684,1.684,0,0,0,.821-2.171c-.273-1-1.083-1.652-1.81-1.454A1.685,1.685,0,0,0,1672.023,533.66Z" class="color080435 svgShape" data-name="Path 188" transform="translate(-1528.853 -488.744)"/></g><g class="color000 svgShape" data-name="Group 230"><g class="color000 svgShape" data-name="Group 229"><path fill="#080435" d="M1698.931,523.145a.316.316,0,0,0,.234-.217.523.523,0,0,0-.168-.588,3.05,3.05,0,0,0-4.433.5.517.517,0,0,0-.009.608.322.322,0,0,0,.48.065,4.557,4.557,0,0,1,3.681-.423A.289.289,0,0,0,1698.931,523.145Z" class="color080435 svgShape" data-name="Path 189" transform="translate(-1537.186 -485.097)"/></g></g><g class="color000 svgShape" data-name="Group 231"><path fill="#080435" d="M1695.251,530.127c-.129,1.03.372,1.94,1.119,2.033s1.457-.665,1.586-1.7-.372-1.939-1.119-2.033S1695.38,529.1,1695.251,530.127Z" class="color080435 svgShape" data-name="Path 190" transform="translate(-1537.47 -487.624)"/></g><g class="color000 svgShape" data-name="Group 232"><path fill="#331832" d="M1621.271,519.826s7.168,15.471,17.335,16.606c0,0-8.221-11.791,9.106-18.976C1647.712,517.456,1631.8,514.953,1621.271,519.826Z" class="color331832 svgShape" data-name="Path 191" transform="translate(-1510.113 -483.328)"/></g><g class="color000 svgShape" data-name="Group 233"><path fill="#ffb27d" d="M1642.672,530.543a4.2,4.2,0,1,0-1.7-6.023A4.44,4.44,0,0,0,1642.672,530.543Z" class="colorffb27d svgShape" data-name="Path 192" transform="translate(-1517.181 -485.508)"/></g><g class="color000 svgShape" data-name="Group 234"><path fill="#fff" d="M1691.149,547.146a44,44,0,0,1-13.99,1.1s1.072,6.765,8.464,5.417C1689.921,552.881,1691.149,547.146,1691.149,547.146Z" class="colorfff svgShape" data-name="Path 193" transform="translate(-1530.786 -494.548)"/></g><g class="color000 svgShape" data-name="Group 235"><path fill="#ef8062" d="M1703.832,469.073a3.45,3.45,0,0,1-3.7-2.98.485.485,0,0,1,.967-.09c.023.225.32,2.164,2.888,2.1H1704a.485.485,0,0,1,.015.97C1703.954,469.072,1703.892,469.073,1703.832,469.073Z" class="coloref8062 svgShape" data-name="Path 194" transform="translate(-1539.283 -464.372)"/></g><g class="color000 svgShape" data-name="Group 236"><path fill="#fff" d="M1696.739,491.311l-.081-.28c.132-.038,13.179-3.907,13.719-10.624.152-1.9-.165-3.161-.971-3.855-1.292-1.112-3.647-.564-5.725-.079-.319.075-.632.148-.932.212l-.062-.285c.3-.065.61-.137.928-.211,2.143-.5,4.577-1.069,5.982.142.882.759,1.232,2.1,1.072,4.1-.231,2.872-2.719,5.666-7.2,8.079A39.093,39.093,0,0,1,1696.739,491.311Z" class="colorfff svgShape" data-name="Path 195" transform="translate(-1537.998 -468.087)"/></g><g class="color000 svgShape" data-name="Group 237"><path fill="#fff" d="M1653.708,475.348a29.089,29.089,0,0,1-3.912-.27l.039-.29c12.732,1.725,18.872-5.435,18.933-5.508l.225.188C1668.937,469.533,1663.96,475.348,1653.708,475.348Z" class="colorfff svgShape" data-name="Path 196" transform="translate(-1520.664 -465.747)"/></g><g class="color000 svgShape" data-name="Group 244"><path fill="#5f3563" d="M1580.691,594.21s32.518,118.854,18.554,232.03c0,0-20.746,21.227-74.9-1.052l-5.653-199.559S1538.545,596.937,1580.691,594.21Z" class="color5f3563 svgShape" data-name="Path 202" transform="translate(-1472.172 -511.957)"/></g><g class="color000 svgShape" data-name="Group 245"><path fill="#331832" d="M1525.067,818.437l-.943-.256c8.245-30.5,20.392-74.075,20.514-74.512l.942.263C1545.458,744.368,1533.311,787.939,1525.067,818.437Z" class="color331832 svgShape" data-name="Path 203" transform="translate(-1474.18 -567.239)"/></g><g class="color000 svgShape" data-name="Group 246"><path fill="#5f3563" d="M1707.721,594.872s49.143,145.692,26.985,230.9c0,0,25.3,6.227,39.694-1.773,0,0-4.62-178.964-29.1-207.346C1729.493,598.335,1707.721,594.872,1707.721,594.872Z" class="color5f3563 svgShape" data-name="Path 204" transform="translate(-1542.09 -512.201)"/></g><g class="color000 svgShape" data-name="Group 247"><path fill="#331832" d="M1805,865.914c-.025-1.258-2.6-126.128-13.239-157.439l.925-.315c10.689,31.455,13.266,156.476,13.291,157.735Z" class="color331832 svgShape" data-name="Path 205" transform="translate(-1573.174 -554.105)"/></g></g></g></g><g class="color000 svgShape" data-name="Group 309" transform="translate(1212.306 477.974)"><g class="color000 svgShape" data-name="Group 251"><path fill="#331832" d="M1330.542,1391.155s-.655,11.565,6.888,15.459,29.93,8.682,20.868,15.411c-5.2,3.861-27.838-.76-34.293-1.288s-12.746,1.789-17.19-2.923c-4.888-5.185,2.324-28.409,2.324-28.409s5.333,3.357,10.353,3.637C1326.727,1393.444,1330.542,1391.155,1330.542,1391.155Z" class="color331832 svgShape" data-name="Path 206" transform="translate(-1246.635 -820.39)"/></g><g class="color000 svgShape" data-name="Group 252"><path fill="#ef8062" d="M1356.653,509.8s3.985-19.577-13.382-22.906-14.568,10.268-18.042,13.364,3.7,13.787,12.012,15.864S1356.653,509.8,1356.653,509.8Z" class="coloref8062 svgShape" data-name="Path 207" transform="translate(-1253.743 -486.369)"/></g><g class="color000 svgShape" data-name="Group 253"><path fill="#331832" d="M1266.256,1391.155s-.655,11.565,6.888,15.459,29.93,8.682,20.868,15.411c-5.2,3.861-27.839-.76-34.293-1.288s-12.746,1.789-17.19-2.923c-4.888-5.185,2.324-28.409,2.324-28.409s5.333,3.357,10.353,3.637C1262.441,1393.444,1266.256,1391.155,1266.256,1391.155Z" class="color331832 svgShape" data-name="Path 208" transform="translate(-1222.856 -820.39)"/></g><g class="color000 svgShape" data-name="Group 254"><path fill="#ef8062" d="M1393.085,930.564c-2.347-36.756-76.158,3.986-76.158,3.986l12.7,126-15.839,20.4s-27.937,105.817-13.766,141.211c2.8,6.986,14.853,6.871,20.5,6.216,39.918-4.635,49.82-130.69,60.237-186.091C1385.986,1014.49,1394.5,952.8,1393.085,930.564Z" class="coloref8062 svgShape" data-name="Path 209" transform="translate(-1243.269 -644.988)"/></g><g class="color000 svgShape" data-name="Group 255"><path fill="#331832" d="M1224.386,921.486c2.1,9.027,35.549,18.5,75.59,8.927s71.284-19.738,69.186-28.765-36.743-13.492-76.784-3.924S1222.288,912.459,1224.386,921.486Z" class="color331832 svgShape" data-name="Path 210" transform="translate(-1216.736 -636.544)"/></g><g class="color000 svgShape" data-name="Group 256"><path fill="#ef8062" d="M1335.876,921.682l-58.6,285.805a28.106,28.106,0,0,1-22.857,23.751l-5.166.892c-12.2,2.108-23.3-7.749-22.978-20.4l10.845-275.943c.2-3.2,10.872-6.31,13.924-7.047C1276.363,922.631,1335.686,909.989,1335.876,921.682Z" class="coloref8062 svgShape" data-name="Path 211" transform="translate(-1217.47 -645.615)"/></g><g class="color000 svgShape" data-name="Group 257"><path fill="#68a1bf" d="M1348.771,689.892a125.014,125.014,0,0,0,18.84-11.089s-21.13-37.7-65.467-35.205c-6.14.346-33.881,5.4-39.83,6.485-76.353,13.982-42.631,175.843-42.358,179.341,77.178-34.811,144.776-19.838,144.776-19.838C1365.3,747.89,1350,692.976,1348.771,689.892Z" class="color68a1bf svgShape" data-name="Path 212" transform="translate(-1212.306 -544.481)"/></g><g class="color000 svgShape" data-name="Group 258"><rect width="220.753" height=".711" fill="#020202" class="color020202 svgShape" data-name="Rectangle 125" transform="rotate(-81.108 357.969 246.198)"/></g><g class="color000 svgShape" data-name="Group 259"><path fill="#ef8062" d="M1267.954,926.558s53.622-17.66,109.279-14.143a5.069,5.069,0,0,1,4.747,4.752l1.211,20.382-58.492-5.273Z" class="coloref8062 svgShape" data-name="Path 213" transform="translate(-1232.889 -643.787)"/></g><g class="color000 svgShape" data-name="Group 260"><path fill="#ffb27d" d="M1303.679,618.05c6.764,7.861,14.358,10.388,24.259,10.388,14.993,0,8-15.435,8-15.435-3.683-.088-5.694-1.953-6-5.622l-.367-4.51-.18-2.236-.593-7.143-.527-6.415-2.162-26.311-6.912,26.791-1.176,4.551-4.051,15.7a14.313,14.313,0,0,1-10.216,10.219C1303.733,618.033,1303.7,618.046,1303.679,618.05Z" class="colorffb27d svgShape" data-name="Path 214" transform="translate(-1246.103 -513.887)"/></g><g class="color000 svgShape" data-name="Group 261"><path fill="#331832" d="M1326.442,610.505s4.423,7.772,11.371,8.528l-.592-7.143C1332.886,611.03,1326.442,610.505,1326.442,610.505Z" class="color331832 svgShape" data-name="Path 215" transform="translate(-1254.523 -532.285)"/></g><g class="color000 svgShape" data-name="Group 262"><path fill="#ef8062" d="M1291.542,561.211s1.67,4.115.574,13.249c-1.6,13.365,13.862,16.438,17.039,12.2.393-.524-3.6-22.212-3.6-22.212l-5.11-2.053Z" class="coloref8062 svgShape" data-name="Path 216" transform="translate(-1241.614 -514.052)"/></g><g class="color000 svgShape" data-name="Group 263"><ellipse cx="24.744" cy="30.527" fill="#ffb27d" class="colorffb27d svgShape" data-name="Ellipse 42" rx="24.744" ry="30.527" transform="rotate(-8.824 185.022 -329.278)"/></g><g class="color000 svgShape" data-name="Group 264"><path fill="#ef8062" d="M1328.921,521.823c-.535,1.031,5.722,15.953-22.452,24.121s-16.318-29.393,4.772-33.474c30.452-5.894,38.108,14.009,36.316,21.878S1328.921,521.823,1328.921,521.823Z" class="coloref8062 svgShape" data-name="Path 217" transform="translate(-1240.996 -495.625)"/></g><g class="color000 svgShape" data-name="Group 265"><path fill="#ef8062" d="M1312.555,557.6s-9.825,14.21-3.785,26.24c0,0-7.97-6.388-8.552-9.144s-.33-13.073-.33-13.073Z" class="coloref8062 svgShape" data-name="Path 218" transform="translate(-1244.681 -512.717)"/></g><g class="color000 svgShape" data-name="Group 266"><ellipse cx="5.591" cy="7.03" fill="#ffb27d" class="colorffb27d svgShape" data-name="Ellipse 43" rx="5.591" ry="7.03" transform="rotate(-50.48 84.773 -31.844)"/></g><g class="color000 svgShape" data-name="Group 268"><g class="color000 svgShape" data-name="Group 267"><path fill="#080435" d="M1341.806,566.19a.563.563,0,0,0-.1-1.062,6.093,6.093,0,0,0-6.951,2.723.567.567,0,0,0,.142.784.618.618,0,0,0,.783-.142,9.641,9.641,0,0,1,5.772-2.268A.562.562,0,0,0,1341.806,566.19Z" class="color080435 svgShape" data-name="Path 219" transform="translate(-1257.561 -515.411)"/></g></g><g class="color000 svgShape" data-name="Group 269"><ellipse cx="1.765" cy="2.432" fill="#080435" class="color080435 svgShape" data-name="Ellipse 44" rx="1.765" ry="2.432" transform="rotate(-7.004 490.919 -630.092)"/></g><g class="color000 svgShape" data-name="Group 271"><g class="color000 svgShape" data-name="Group 270"><path fill="#080435" d="M1373.873,565.277a.563.563,0,0,0,.312-1.021,6.094,6.094,0,0,0-7.464-.13.567.567,0,0,0-.167.778.617.617,0,0,0,.778.168,9.637,9.637,0,0,1,6.2.1A.558.558,0,0,0,1373.873,565.277Z" class="color080435 svgShape" data-name="Path 220" transform="translate(-1269.327 -514.68)"/></g></g><g class="color000 svgShape" data-name="Group 272"><path fill="#080435" d="M1368.979,573.422c-.356,1.295.117,2.555,1.057,2.813s1.99-.582,2.347-1.877-.117-2.555-1.056-2.813S1369.336,572.127,1368.979,573.422Z" class="color080435 svgShape" data-name="Path 221" transform="translate(-1270.213 -517.858)"/></g><g class="color000 svgShape" data-name="Group 273"><ellipse cx="9.565" cy="14.083" fill="#fff" class="colorfff svgShape" data-name="Ellipse 45" opacity=".3" rx="9.565" ry="14.083" transform="rotate(-3.538 711.5 -1100.265)"/></g><g class="color000 svgShape" data-name="Group 274"><ellipse cx="8.292" cy="13.894" fill="#fff" class="colorfff svgShape" data-name="Ellipse 46" opacity=".3" rx="8.292" ry="13.894" transform="rotate(-8.539 332.926 -605.293)"/></g><g class="color000 svgShape" data-name="Group 276"><g class="color000 svgShape" data-name="Group 275"><path fill="#331832" d="M1322.862,566.381c.06.386.13.772.221,1.144a16.7,16.7,0,0,0,4.81,8.977,9.662,9.662,0,0,0,3.046,1.894,7.725,7.725,0,0,0,3.176.524,7.849,7.849,0,0,0,.854-.089,8.214,8.214,0,0,0,2.757-1.006,12.077,12.077,0,0,0,5-6.356,19.069,19.069,0,0,0,1-3.818,20.231,20.231,0,0,0,.211-4.231,16.459,16.459,0,0,0-.156-1.764c-.684-5.163-3.225-9.738-6.772-11.822a9.1,9.1,0,0,0-1.367-.666,7.647,7.647,0,0,0-6.786.572c-2.711,1.578-4.725,4.611-5.667,8.473-.138.557-.244,1.12-.336,1.7-.054.34-.1.689-.129,1.037a20.512,20.512,0,0,0-.1,3A20.987,20.987,0,0,0,1322.862,566.381Zm16.758,8.611a8.981,8.981,0,0,1-2.363,2.026,6.738,6.738,0,0,1-5.984.5,8.955,8.955,0,0,1-3.112-2.044,16.35,16.35,0,0,1-4.4-9.394v-.011c-.079-.577-.139-1.167-.177-1.761-.033-.563-.046-1.128-.028-1.7a18.921,18.921,0,0,1,.226-2.551,16.816,16.816,0,0,1,.505-2.263,10.059,10.059,0,0,1,.393-1.2.215.215,0,0,1,.032-.069c.014-.045.03-.08.045-.125a13.777,13.777,0,0,1,1-2.115,10.125,10.125,0,0,1,3.574-3.746,6.769,6.769,0,0,1,5.984-.5,7.031,7.031,0,0,1,1.028.483c3.452,1.885,5.908,6.323,6.539,11.355a17.134,17.134,0,0,1,.149,1.786,20.332,20.332,0,0,1-.219,3.836,17.186,17.186,0,0,1-.957,3.629,13.251,13.251,0,0,1-2.192,3.821A.152.152,0,0,0,1339.62,574.992Z" class="color331832 svgShape" data-name="Path 222" transform="translate(-1253.105 -509.399)"/></g></g><g class="color000 svgShape" data-name="Group 278"><g class="color000 svgShape" data-name="Group 277"><path fill="#331832" d="M1363.6,566.35c.063.408.136.8.218,1.2s.186.785.288,1.166c.062.258.135.525.216.769,0,.031.021.072.026.1.066.214.129.418.206.631a.039.039,0,0,1,.015.03,22.415,22.415,0,0,1-.873-6.108,2.949,2.949,0,0,0-.332-.141c.02.4.049.8.089,1.2S1363.546,565.974,1363.6,566.35Zm0,0c.063.408.136.8.218,1.2s.186.785.288,1.166c.062.258.135.525.216.769,0,.031.021.072.026.1.066.214.129.418.206.631a.039.039,0,0,1,.015.03,22.415,22.415,0,0,1-.873-6.108,2.949,2.949,0,0,0-.332-.141c.02.4.049.8.089,1.2S1363.546,565.974,1363.6,566.35Zm0,0c.063.408.136.8.218,1.2s.186.785.288,1.166c.062.258.135.525.216.769,0,.031.021.072.026.1.066.214.129.418.206.631a.039.039,0,0,1,.015.03,22.415,22.415,0,0,1-.873-6.108,2.949,2.949,0,0,0-.332-.141c.02.4.049.8.089,1.2S1363.546,565.974,1363.6,566.35Zm0,0c.063.408.136.8.218,1.2s.186.785.288,1.166c.062.258.135.525.216.769,0,.031.021.072.026.1.066.214.129.418.206.631a.039.039,0,0,1,.015.03,22.415,22.415,0,0,1-.873-6.108,2.949,2.949,0,0,0-.332-.141c.02.4.049.8.089,1.2S1363.546,565.974,1363.6,566.35Zm0,0c.063.408.136.8.218,1.2s.186.785.288,1.166c.062.258.135.525.216.769,0,.031.021.072.026.1.066.214.129.418.206.631a.039.039,0,0,1,.015.03,22.415,22.415,0,0,1-.873-6.108,2.949,2.949,0,0,0-.332-.141c.02.4.049.8.089,1.2S1363.546,565.974,1363.6,566.35Zm0,0c.063.408.136.8.218,1.2s.186.785.288,1.166c.062.258.135.525.216.769,0,.031.021.072.026.1.066.214.129.418.206.631a.039.039,0,0,1,.015.03,22.415,22.415,0,0,1-.873-6.108,2.949,2.949,0,0,0-.332-.141c.02.4.049.8.089,1.2S1363.546,565.974,1363.6,566.35Zm0,0c.063.408.136.8.218,1.2s.186.785.288,1.166c.062.258.135.525.216.769,0,.031.021.072.026.1.066.214.129.418.206.631a.039.039,0,0,1,.015.03,22.415,22.415,0,0,1-.873-6.108,2.949,2.949,0,0,0-.332-.141c.02.4.049.8.089,1.2S1363.546,565.974,1363.6,566.35Zm0,0c.063.408.136.8.218,1.2s.186.785.288,1.166c.062.258.135.525.216.769,0,.031.021.072.026.1.066.214.129.418.206.631a.039.039,0,0,1,.015.03,22.415,22.415,0,0,1-.873-6.108,2.949,2.949,0,0,0-.332-.141c.02.4.049.8.089,1.2S1363.546,565.974,1363.6,566.35Zm-.556,1.243a19.711,19.711,0,0,0,2.491,7.152h.011v.01a9.719,9.719,0,0,0,4.583,4.2c.115.047.228.083.34.119.012.008.022.007.035.016a5.928,5.928,0,0,0,2.79.241,6.23,6.23,0,0,0,2.289-.847c2.892-1.723,4.98-5.657,5.6-10.518,1-7.919-2.237-15.931-7.187-17.873-.1-.038-.217-.084-.317-.111h-.011a6.166,6.166,0,0,0-1.267-.3,5.818,5.818,0,0,0-1.766.071,6.646,6.646,0,0,0-2.1.808c-2.881,1.722-4.98,5.656-5.586,10.516-.036.316-.073.633-.1.947-.048.586-.074,1.179-.068,1.767A22.024,22.024,0,0,0,1363.048,567.594Zm1.525,2.655a22.415,22.415,0,0,1-.873-6.108c0-.621.021-1.245.064-1.863.03-.358.071-.718.111-1.078a17.856,17.856,0,0,1,1.793-6.04,9.512,9.512,0,0,1,3.207-3.689,1.053,1.053,0,0,1,.146-.1,5.409,5.409,0,0,1,1.955-.721,4.841,4.841,0,0,1,1.786.055,5.458,5.458,0,0,1,.886.259c4.584,1.794,7.547,9.366,6.606,16.891l-.017.1,0,.021c0,.01,0,.033,0,.043s-.007.023-.006.033c-.609,4.5-2.517,8.069-5.123,9.631a5.049,5.049,0,0,1-4.142.568,3.649,3.649,0,0,1-.486-.16,2.716,2.716,0,0,1-.4-.184.327.327,0,0,1-.116-.057.011.011,0,0,1-.012-.009c-.01,0-.012-.009-.024-.018a8.141,8.141,0,0,1-2.871-2.489,15.531,15.531,0,0,1-2.4-4.832A2.23,2.23,0,0,0,1364.573,570.248Zm-.969-3.9c.063.408.136.8.218,1.2s.186.785.288,1.166c.062.258.135.525.216.769,0,.031.021.072.026.1.066.214.129.418.206.631a.039.039,0,0,1,.015.03,22.415,22.415,0,0,1-.873-6.108,2.949,2.949,0,0,0-.332-.141c.02.4.049.8.089,1.2S1363.546,565.974,1363.6,566.35Zm0,0c.063.408.136.8.218,1.2s.186.785.288,1.166c.062.258.135.525.216.769,0,.031.021.072.026.1.066.214.129.418.206.631a.039.039,0,0,1,.015.03,22.415,22.415,0,0,1-.873-6.108,2.949,2.949,0,0,0-.332-.141c.02.4.049.8.089,1.2S1363.546,565.974,1363.6,566.35Zm0,0c.063.408.136.8.218,1.2s.186.785.288,1.166c.062.258.135.525.216.769,0,.031.021.072.026.1.066.214.129.418.206.631a.039.039,0,0,1,.015.03,22.415,22.415,0,0,1-.873-6.108,2.949,2.949,0,0,0-.332-.141c.02.4.049.8.089,1.2S1363.546,565.974,1363.6,566.35Zm0,0c.063.408.136.8.218,1.2s.186.785.288,1.166c.062.258.135.525.216.769,0,.031.021.072.026.1.066.214.129.418.206.631a.039.039,0,0,1,.015.03,22.415,22.415,0,0,1-.873-6.108,2.949,2.949,0,0,0-.332-.141c.02.4.049.8.089,1.2S1363.546,565.974,1363.6,566.35Zm0,0c.063.408.136.8.218,1.2s.186.785.288,1.166c.062.258.135.525.216.769,0,.031.021.072.026.1.066.214.129.418.206.631a.039.039,0,0,1,.015.03,22.415,22.415,0,0,1-.873-6.108,2.949,2.949,0,0,0-.332-.141c.02.4.049.8.089,1.2S1363.546,565.974,1363.6,566.35Zm0,0c.063.408.136.8.218,1.2s.186.785.288,1.166c.062.258.135.525.216.769,0,.031.021.072.026.1.066.214.129.418.206.631a.039.039,0,0,1,.015.03,22.415,22.415,0,0,1-.873-6.108,2.949,2.949,0,0,0-.332-.141c.02.4.049.8.089,1.2S1363.546,565.974,1363.6,566.35Zm0,0c.063.408.136.8.218,1.2s.186.785.288,1.166c.062.258.135.525.216.769,0,.031.021.072.026.1.066.214.129.418.206.631a.039.039,0,0,1,.015.03,22.415,22.415,0,0,1-.873-6.108,2.949,2.949,0,0,0-.332-.141c.02.4.049.8.089,1.2S1363.546,565.974,1363.6,566.35Z" class="color331832 svgShape" data-name="Path 223" transform="translate(-1267.962 -509.778)"/></g></g><g class="color000 svgShape" data-name="Group 280"><g class="color000 svgShape" data-name="Group 279"><path fill="#331832" d="M1360.466,571.4a.873.873,0,0,0,.292-1.625,9.511,9.511,0,0,0-7.848-.035.873.873,0,0,0,.645,1.622,7.816,7.816,0,0,1,6.351-.063A.867.867,0,0,0,1360.466,571.4Z" class="color331832 svgShape" data-name="Path 224" transform="translate(-1264.11 -516.911)"/></g></g><g class="color000 svgShape" data-name="Group 281"><path fill="#ef8062" d="M1294.142,514.592s-5.348-19.249-22.33-14.322-11.923,14.163-10,20.1c1.436,4.425,9.563,10.6,17.91,8.672S1294.142,514.592,1294.142,514.592Z" class="coloref8062 svgShape" data-name="Path 225" transform="translate(-1229.796 -491.212)"/></g><g class="color000 svgShape" data-name="Group 282"><path fill="#ef8062" d="M1301.411,615.749a.542.542,0,0,1-.451-.842,24.34,24.34,0,0,1,10.364-8.151.542.542,0,0,1,.409,1,23.62,23.62,0,0,0-9.871,7.747A.541.541,0,0,1,1301.411,615.749Z" class="coloref8062 svgShape" data-name="Path 226" transform="translate(-1245.064 -530.883)"/></g><g class="color000 svgShape" data-name="Group 283"><path fill="#020202" d="M1353.349,600.461a16.334,16.334,0,0,1-6.032-1.394.29.29,0,0,1,.243-.526c.07.033,7.089,3.2,10.139-.386a.289.289,0,1,1,.441.375A6.019,6.019,0,0,1,1353.349,600.461Z" class="color020202 svgShape" data-name="Path 227" transform="translate(-1262.183 -527.679)"/></g><g class="color000 svgShape" data-name="Group 289" transform="translate(101.36 268.307)"><g class="color000 svgShape" data-name="Group 284"><path fill="#ffb27d" d="M1407.193,918.693h0a4.94,4.94,0,0,1-1.335,6.837L1386.9,938.16c-2.247,1.513-11.989,5.537-13.5,3.29h0c-1.513-2.247,4.872-8.778,6.894-10.58,4.664-4.158,12.215-14.293,16.958-18.36C1399.3,910.746,1405.68,916.446,1407.193,918.693Z" class="colorffb27d svgShape" data-name="Path 228" transform="translate(-1373.166 -912.176)"/></g><g class="color000 svgShape" data-name="Group 285"><path fill="#ffb27d" d="M1434.2,924.733s2,11.232-.208,27.5c-.67,4.946-33.652,2.379-34.475-3.151s6.413-22.494,6.413-22.494Z" class="colorffb27d svgShape" data-name="Path 229" transform="translate(-1382.887 -916.821)"/></g><g class="color000 svgShape" data-name="Group 288"><g class="color000 svgShape" data-name="Group 287"><g class="color000 svgShape" data-name="Group 286" transform="translate(10.816 15.593)"><path fill="#ffb27d" d="M1405.254,938.831s-7.723-6.132-11.532,3.583c-6.187,15.78-4.006,36.338,7.336,13.867.383-.757-4.326,17.588,1.683,16.62s8.831-16.694,8.831-16.694-2.576,18.144,2.8,15.392,8.417-12.005,8.417-12.005-4.917,12.879,1.678,10.467c4.5-1.645,5.79-11.325,6.725-17.339.884-5.684-2.494-8.094-8.038-8.554,0,0-5.253-3.666-8.951-3.052-1.418.236-2.558-1.255-3.533-1.527A35.9,35.9,0,0,0,1405.254,938.831Z" class="colorffb27d svgShape" data-name="Path 230" transform="translate(-1390.33 -936.922)"/></g></g></g></g><g class="color000 svgShape" data-name="Group 291"><g class="color000 svgShape" data-name="Group 290"><path fill="#ffb27d" d="M1334.941,866.609c-17.171-22.014-46.537-64.272-52.146-137.6-.7-9.18-45.361-4.094-43.537,8.443,10.557,72.58,25.715,100.258,67.369,148.131Z" class="colorffb27d svgShape" data-name="Path 231" transform="translate(-1222.255 -574.384)"/></g></g><g class="color000 svgShape" data-name="Group 297" transform="translate(77.177 279.938)"><g class="color000 svgShape" data-name="Group 292"><path fill="#ffb27d" d="M1360.011,939.735h0a4.94,4.94,0,0,0,3.422,6.067l21.977,6.008c2.61.728,13.123,1.475,13.85-1.135h0c.727-2.61-7.391-6.794-9.879-7.867a130.63,130.63,0,0,1-12.221-6.856,83.823,83.823,0,0,0-9.661-5.221C1364.992,929.707,1360.739,937.126,1360.011,939.735Z" class="colorffb27d svgShape" data-name="Path 232" transform="translate(-1344.05 -930.635)"/></g><g class="color000 svgShape" data-name="Group 293"><path fill="#ffb27d" d="M1334.787,951.627s1.647,11.289,8.867,26.03c2.2,4.482,32.686-8.353,31.723-13.861s-13.179-19.324-13.179-19.324Z" class="colorffb27d svgShape" data-name="Path 233" transform="translate(-1334.787 -935.753)"/></g><g class="color000 svgShape" data-name="Group 296"><g class="color000 svgShape" data-name="Group 295"><g class="color000 svgShape" data-name="Group 294" transform="translate(5.981 13.173)"><path fill="#ffb27d" d="M1365.588,955.28s5.4-8.254,12.074-.236c10.847,13.024,13.255,30.131-2.59,15.473-.623-.576,7.411,15.3,1.4,16.28s-11.4-13.034-11.4-13.034,7.524,16.737,1.55,15.822-9.5-10.121-9.5-10.121,5.777,11.13-1.243,10.92c-4.788-.143-7.745-8.329-10.529-13.742-2.631-5.115-.185-8.467,4.931-10.652,0,0,3.829-5.135,7.532-5.718,1.42-.224,2.032-2,2.871-2.564A35.9,35.9,0,0,1,1365.588,955.28Z" class="colorffb27d svgShape" data-name="Path 234" transform="translate(-1344.279 -951.54)"/></g></g></g></g><g class="color000 svgShape" data-name="Group 298"><path fill="#e19567" d="M1399.756,971.65c-1.683,0-4.572-1.047-9.108-5.682l.507-.5c4.575,4.676,7.3,5.536,8.79,5.464a2,2,0,0,0,1.4-.564c2.736-6.718-10.285-17.429-10.418-17.537l-1.25-1.018,1.562.4c6.054,1.547,15.919,3.2,16.621,1.033.375-1.159-4.934-6-20.781-14.043l.321-.633c3.723,1.89,22.239,11.494,21.135,14.9-.973,3-11.868.761-16.027-.213,3.234,2.871,12.005,11.4,9.471,17.44l-.039.071a2.59,2.59,0,0,1-1.9.875C1399.947,971.647,1399.854,971.65,1399.756,971.65Z" class="colore19567 svgShape" data-name="Path 235" transform="translate(-1276.952 -653.633)"/></g><g class="color000 svgShape" data-name="Group 299"><path fill="#68a1bf" d="M1234.45,716.983s-10.245,51.171,7.572,91.065,43.441,59.665,54.995,65.423c0,0,11.343-2.208,16.2-8.69a139.412,139.412,0,0,1,10.4-12.146s-41.841-94.716-36.552-133.444Z" class="color68a1bf svgShape" data-name="Path 236" transform="translate(-1219.412 -571.67)"/></g><g class="color000 svgShape" data-name="Group 300"><path fill="#68a1bf" d="M1438.738,699.538s56.61,93.707,2.1,155.625c0,0-12.97-8.861-17.987-8.893-14.169-.088-18.259-9.028-18.259-9.028s30.044-41.358,15.3-126.615Z" class="color68a1bf svgShape" data-name="Path 237" transform="translate(-1283.432 -565.217)"/></g><g class="color000 svgShape" data-name="Group 301"><path fill="#331832" d="M1353.739,846.141c-11.751-24.019-19.4-97.083-19.479-97.819l.665-.069c.076.734,7.715,73.682,19.414,97.593Z" class="color331832 svgShape" data-name="Path 238" transform="translate(-1257.415 -583.237)"/></g><g class="color000 svgShape" data-name="Group 302"><path fill="#331832" d="M1264.566,869.216c-25.776-29.538-33.5-88.72-33.572-89.313l.663-.084c.075.592,7.772,59.573,33.413,88.958Z" class="color331832 svgShape" data-name="Path 239" transform="translate(-1219.218 -594.912)"/></g><g class="color000 svgShape" data-name="Group 303"><path fill="#331832" d="M1411.208,855.618l-.584-.323c.242-.437,24.128-44.082,19.442-81.377l.663-.083C1435.442,811.348,1411.451,855.18,1411.208,855.618Z" class="color331832 svgShape" data-name="Path 240" transform="translate(-1285.661 -592.699)"/></g><g class="color000 svgShape" data-name="Group 304"><path fill="#daebe8" d="M1297.546,651.676l-10.131,1.977s-1.8,5.269,3.166,6.94,5.956,1.67,7.547,5.512,7.771,4.009,9.943,2.672,5.982,3.675,9.505,3.675,5.6-6.244,4.23-10.388C1321.8,662.064,1308.57,659.8,1297.546,651.676Z" class="colordaebe8 svgShape" data-name="Path 241" transform="translate(-1239.97 -547.514)"/></g><g class="color000 svgShape" data-name="Group 305"><path fill="#daebe8" d="M1350.182,643.292s6.232,15.068-8,15.434c0,0,7.479,7.493,12.713,4.486s.223-5.679,2.45-7.684,4.677-3.452,2.449-5.791,0-6.447,0-6.447S1353.6,641.856,1350.182,643.292Z" class="colordaebe8 svgShape" data-name="Path 242" transform="translate(-1260.344 -544.177)"/></g><g class="color000 svgShape" data-name="Group 306"><path fill="#daebe8" d="M1362.776,701.762a2.238,2.238,0,1,1,2.238,2.238A2.238,2.238,0,0,1,1362.776,701.762Z" class="colordaebe8 svgShape" data-name="Path 243" transform="translate(-1267.963 -565.212)"/></g><g class="color000 svgShape" data-name="Group 307"><path fill="#daebe8" d="M1377.683,815.815a2.238,2.238,0,1,1,2.238,2.238A2.238,2.238,0,0,1,1377.683,815.815Z" class="colordaebe8 svgShape" data-name="Path 244" transform="translate(-1273.477 -607.399)"/></g><g class="color000 svgShape" data-name="Group 308"><path fill="#daebe8" d="M1377.683,764.137a2.238,2.238,0,1,1,2.238,2.238A2.237,2.237,0,0,1,1377.683,764.137Z" class="colordaebe8 svgShape" data-name="Path 245" transform="translate(-1273.477 -588.284)"/></g></g><g class="color000 svgShape" data-name="Group 349" transform="translate(1536.488 514.054)"><g class="color000 svgShape" data-name="Group 310"><path fill="#ffb27d" d="M1760.089,994.513c2.71,4.639,6.012,15.019,8.633,19.711,1.136,2.033,4.493,9.142,2.647,10.564-1.6,1.236-6.918-3.118-9.2-5.5-1.417,15.385-10.275,37.213-9.614,4.762h-.053c-.366,3.277-2.4,21.5-6.518,19.307-3.632-1.938-2.708-15.048-2.164-20.444l-.146-.031c-1.023,5.437-3.827,18.5-6.687,15.52-3.59-3.738-2.916-18.131-2.916-18.131s-1.261,18.37-5.927,14.576c-2.63-2.139-.827-12.585.39-19.071h0v0c.255-1.36.485-2.549.643-3.447a8.89,8.89,0,0,1,.571-1.965,80.146,80.146,0,0,1,6.227-17.155,11.388,11.388,0,0,1,12.272-7.265C1754.288,986.594,1758.914,992.5,1760.089,994.513Z" class="colorffb27d svgShape" data-name="Path 246" transform="translate(-1726.789 -707.202)"/></g><g class="color000 svgShape" data-name="Group 312"><g class="color000 svgShape" data-name="Group 311"><path fill="#ffb27d" d="M1767.4,888.366c3.725-41.015,12.272-99.654,31.834-146.095,4.532-10.76,6.42-14.8,9.956-20.676,2.844-4.728-2.249-15.12-10.285-20.075-7.541-4.65-19.283-3.888-21.14-1.586-3.159,3.914-6.531,11.415-11.776,23.325-18.228,41.381-25.4,102.186-29.822,171.1Z" class="colorffb27d svgShape" data-name="Path 247" transform="translate(-1730.257 -600.77)"/></g></g><g class="color000 svgShape" data-name="Group 313"><path fill="#331832" d="M1846.892,1424.412s-.3,11.895-8.346,15.25-31.369,6.383-22.655,14.03c5,4.388,28.565,1.552,35.217,1.552s12.9,2.9,17.844-1.554c5.439-4.9,0-29.28,0-29.28s-5.741,2.991-10.9,2.857C1850.607,1427.074,1846.892,1424.412,1846.892,1424.412Z" class="color331832 svgShape" data-name="Path 248" transform="translate(-1759.037 -869.419)"/></g><g class="color000 svgShape" data-name="Group 314"><path fill="#331832" d="M1993.582,1424.408s-.3,11.895-8.346,15.25-31.369,6.383-22.655,14.031c5,4.387,28.565,1.552,35.217,1.552s12.9,2.9,17.844-1.553c5.439-4.9,0-29.28,0-29.28s-5.741,2.99-10.9,2.857C1997.3,1427.071,1993.582,1424.408,1993.582,1424.408Z" class="color331832 svgShape" data-name="Path 249" transform="translate(-1813.296 -869.417)"/></g><g class="color000 svgShape" data-name="Group 315"><path fill="#92a5e6" d="M1771.281,906.926s.573,54.821,4.984,151.547c3.459,75.834,2.746,146.111,9.391,179.423,2.377,11.916,90.3,5.84,89.365-7.274L1854.208,996.34l-3.975-74.175Z" class="color92a5e6 svgShape" data-name="Path 250" transform="translate(-1743.246 -678.008)"/></g><g class="color000 svgShape" data-name="Group 316"><path fill="#331832" d="M1913.435,961.5c-.732,6.06-35,5.324-76.951.013s-74.609-14.4-73.877-20.458,34.576-6.8,76.53-1.486S1914.167,955.438,1913.435,961.5Z" class="color331832 svgShape" data-name="Path 251" transform="translate(-1740.033 -688.764)"/></g><g class="color000 svgShape" data-name="Group 317"><path fill="#92a5e6" d="M1847.706,960.624l78.089,295.339c3.749,12.044,77.828,10.432,75.51-2.357l-60.589-279.339a8.9,8.9,0,0,0-6.183-6.663C1917.733,962.759,1846.057,948.724,1847.706,960.624Z" class="color92a5e6 svgShape" data-name="Path 252" transform="translate(-1771.504 -696.143)"/></g><g class="color000 svgShape" data-name="Group 318"><path fill="#ccd39c" d="M1899.434,694.75s-11.917-33.53-54.371-32-74.508,57.313-82.45,177.213c0,0,69.516-15.243,150.952,20.318C1913.566,860.276,1918.08,743.62,1899.434,694.75Z" class="colorccd39c svgShape" data-name="Path 253" transform="translate(-1740.04 -587.67)"/></g><g class="color000 svgShape" data-name="Group 319"><path fill="#ccd39c" d="M1944.7,681.011l-36.712,30.906s-77.308,7.735-97.83,4.011-23.717-18.813-23.717-18.813,19.524-26.779,56.675-33.43a101.607,101.607,0,0,1,10.762-1c6.3-.448,10.535.179,16.748.129C1928.376,662.349,1944.7,681.011,1944.7,681.011Z" class="colorccd39c svgShape" data-name="Path 254" transform="translate(-1748.852 -587.606)"/></g><g class="color000 svgShape" data-name="Group 320"><path fill="#020202" d="M1889.782,1157.158l-23.836-101.6a55.515,55.515,0,0,0-25.077-30.913l.749-1.308a57.022,57.022,0,0,1,25.769,31.781l.018.063,23.844,101.63Z" class="color020202 svgShape" data-name="Path 255" transform="translate(-1768.986 -721.068)"/></g><g class="color000 svgShape" data-name="Group 321"><path fill="#ffb27d" d="M1901.414,637.368a11.741,11.741,0,0,1-9.567-7l-5.262-12.219-1.526-3.546-8.978-20.851,1.557,21.609.936,12.97.267,3.7a5.9,5.9,0,0,1-4.868,6.221l-.052.009c-1.6,2.6-6.472,33.39-2.575,36.117,3.307,2.314,25.64-29.773,30.136-37Z" class="colorffb27d svgShape" data-name="Path 256" transform="translate(-1779.713 -562.169)"/></g><g class="color000 svgShape" data-name="Group 322"><path fill="#331832" d="M1891.169,629.793c0,.119-.011.238-.023.357-.515,6.966-7.966,10.22-7.966,10.22l-.045-.038-.936-12.97c2.278-.835,5.523-1.692,7.421-.758C1890.612,627.093,1891.236,628.07,1891.169,629.793Z" class="color331832 svgShape" data-name="Path 257" transform="translate(-1784.273 -574.17)"/></g><g class="color000 svgShape" data-name="Group 323"><ellipse cx="20.303" cy="25.048" fill="#ffb27d" class="colorffb27d svgShape" data-name="Ellipse 47" rx="20.303" ry="25.048" transform="translate(75.086 9.991)"/></g><g class="color000 svgShape" data-name="Group 324"><path fill="#fff" d="M1862.341,619.461a44.076,44.076,0,0,0,13.97-1.556s.222,6.856-7.3,6.926C1864.631,624.871,1862.341,619.461,1862.341,619.461Z" class="colorfff svgShape" data-name="Path 258" transform="translate(-1776.928 -571.103)"/></g><g class="color000 svgShape" data-name="Group 326"><g class="color000 svgShape" data-name="Group 325"><path fill="#080435" d="M1878.117,596.195a.462.462,0,0,1-.052-.874,5,5,0,0,1,5.979,1.333.465.465,0,0,1-.016.653.507.507,0,0,1-.653-.016,7.913,7.913,0,0,0-4.965-1.112A.457.457,0,0,1,1878.117,596.195Z" class="color080435 svgShape" data-name="Path 259" transform="translate(-1782.637 -562.573)"/></g></g><g class="color000 svgShape" data-name="Group 327"><path fill="#080435" d="M1882.416,603.9c.035,1.1-.585,2.015-1.383,2.041s-1.476-.847-1.511-1.948.585-2.015,1.384-2.041S1882.381,602.8,1882.416,603.9Z" class="color080435 svgShape" data-name="Path 260" transform="translate(-1783.282 -565.201)"/></g><g class="color000 svgShape" data-name="Group 329"><g class="color000 svgShape" data-name="Group 328"><path fill="#080435" d="M1853.707,599.334a.462.462,0,0,1-.381-.788,5,5,0,0,1,6.035-1.045.466.466,0,0,1,.234.61.507.507,0,0,1-.61.234,7.911,7.911,0,0,0-5.014.863A.458.458,0,0,1,1853.707,599.334Z" class="color080435 svgShape" data-name="Path 261" transform="translate(-1773.541 -563.342)"/></g></g><g class="color000 svgShape" data-name="Group 330"><path fill="#080435" d="M1860.755,605.213a1.79,1.79,0,0,1-.5,2.414c-.73.328-1.687-.221-2.139-1.226a1.789,1.789,0,0,1,.5-2.414C1859.344,603.659,1860.3,604.208,1860.755,605.213Z" class="color080435 svgShape" data-name="Path 262" transform="translate(-1775.278 -565.92)"/></g><g class="color000 svgShape" data-name="Group 332"><g class="color000 svgShape" data-name="Group 331"><path fill="#ffb27d" d="M1959.315,877.11s-11.588-12.513-21.568-12.319-22.583,7.989-16.371,9.182,14.571.525,14.571.525-17.792,2.268-15.46,6.2,17.787,1.81,17.787,1.81-20.957,4.384-17.551,7.385,19.3-.443,19.3-.443-19.335,4.859-15.3,8.251,15.952-4.119,18.285-.188,12.925,18.758,24.645,13.61Z" class="colorffb27d svgShape" data-name="Path 263" transform="translate(-1798.153 -662.422)"/></g></g><g class="color000 svgShape" data-name="Group 333"><path fill="#e79767" d="M1952.433,880.8a.663.663,0,0,1-.43-.156c-2.091-1.759-6.7-.49-6.743-.476a.668.668,0,0,1-.363-1.286c.216-.062,5.332-1.474,7.967.739a.668.668,0,0,1-.431,1.18Z" class="colore79767 svgShape" data-name="Path 264" transform="translate(-1807.284 -667.45)"/></g><g class="color000 svgShape" data-name="Group 334"><path fill="#e79767" d="M1957.553,893.629a.663.663,0,0,1-.32-.083c-3.694-2.022-8.222-.687-8.268-.673a.668.668,0,0,1-.387-1.278c.207-.064,5.115-1.51,9.3.779a.669.669,0,0,1-.322,1.255Z" class="colore79767 svgShape" data-name="Path 265" transform="translate(-1808.65 -672.149)"/></g><g class="color000 svgShape" data-name="Group 335"><path fill="#e79767" d="M1959.8,904.547a.667.667,0,0,1-.472-.195c-1.711-1.7-6.062-.948-7.594-.513a.668.668,0,1,1-.366-1.285c.256-.073,6.292-1.751,8.9.851a.668.668,0,0,1-.471,1.141Z" class="colore79767 svgShape" data-name="Path 266" transform="translate(-1809.678 -676.169)"/></g><g class="color000 svgShape" data-name="Group 336"><path fill="#331832" d="M2014.983,690.781c3.079,4.413-3.182,10.371-16.006,19.645s-18.411,12.564-21.489,8.152.59-11.921,13.335-21.3C2000.175,690.392,2011.9,686.368,2014.983,690.781Z" class="color331832 svgShape" data-name="Path 267" transform="translate(-1819.139 -597.375)"/></g><g class="color000 svgShape" data-name="Group 338"><g class="color000 svgShape" data-name="Group 337"><path fill="#ffb27d" d="M1977.008,844.242l-11.317-24.952a7.3,7.3,0,0,1,2.88-9.3c16.062-9.2,25.337-20.164,27.6-32.663,3.139-17.356-6.652-37.294-15.259-50.251-4.4-6.631-4.879-13.072,2.079-21.181,2.89-3.367,5.721-5.709,14.952-9.563,4.46-1.862,8.9-2.457,11.395.749,3.907,5.018,6.7,9.136,12.114,19.151,12.868,23.787,17.683,47.531,13.924,68.667-4.613,25.94-21.088,46.958-49.007,62.553A6.662,6.662,0,0,1,1977.008,844.242Z" class="colorffb27d svgShape" data-name="Path 268" transform="translate(-1814.913 -599.546)"/></g></g><g class="color000 svgShape" data-name="Group 339"><path fill="#92a5e6" d="M1883.359,959.891s-83.731-15.995-110.879-8.45l13.018,19.293,48.4,2.738Z" class="color92a5e6 svgShape" data-name="Path 269" transform="translate(-1743.69 -693.725)"/></g><g class="color000 svgShape" data-name="Group 340"><path fill="#ef8062" d="M1852.464,633.126a9.053,9.053,0,0,1-6.6-2.9,9.146,9.146,0,0,1-1.4-11.3.519.519,0,0,1,.869.569,7.985,7.985,0,0,0,1.271,10,8.237,8.237,0,0,0,10.078,1.541.52.52,0,0,1,.536.891A10.187,10.187,0,0,1,1852.464,633.126Z" class="coloref8062 svgShape" data-name="Path 270" transform="translate(-1769.808 -571.392)"/></g><g class="color000 svgShape" data-name="Group 341"><path fill="#366f90" d="M1869.169,560.946c-.73,4.534.433,8.053-13.509,11.43,0,0-2.295,1.515-2.425-.953s3.364-6.234,1.487-9.092c0,0-10.008,20.724-13.346,16.336s-7.7-18.588,0-27.247,31.882-10.516,35.933-3.464C1883.277,558.348,1869.793,557.066,1869.169,560.946Z" class="color366f90 svgShape" data-name="Path 271" transform="translate(-1767.586 -543.629)"/></g><g class="color000 svgShape" data-name="Group 342"><path fill="#366f90" d="M1897.092,557.843s-6.141,1.528-5.869,4.275-4.053,7.932.017,9.664,5.034,2.775,5.018,5.811c-.012,2.117,3.694,6.793,5.021,11.041.577,1.847-.527,5.764-.527,5.764s15.509-5.237,12.738-22.939C1911.687,559.938,1900.976,556.279,1897.092,557.843Z" class="color366f90 svgShape" data-name="Path 272" transform="translate(-1786.968 -548.76)"/></g><g class="color000 svgShape" data-name="Group 343"><path fill="#ffb27d" d="M1905,600.094c-2.3,2.2-5.515,2.421-7.183.5s-1.154-5.254,1.146-7.449,5.516-2.422,7.183-.5S1907.3,597.9,1905,600.094Z" class="colorffb27d svgShape" data-name="Path 273" transform="translate(-1789.687 -561.277)"/></g><g class="color000 svgShape" data-name="Group 344"><path fill="#ef8062" d="M1901.447,621.879c-2.244,0-5.732-.926-7.739-6.084-1.235-3.171-1.25-5.953-.047-8.266,1.942-3.734,6.326-4.847,6.512-4.893a.519.519,0,0,1,.248,1.009c-.041.01-4.123,1.055-5.842,4.37-1.055,2.035-1.023,4.526.1,7.4,1.536,3.948,4.415,5.891,7.9,5.332,3.082-.495,5.787-2.863,5.909-5.171.243-4.6-4.561-8.478-4.61-8.517a.52.52,0,0,1,.646-.814c.216.171,5.273,4.252,5,9.385-.147,2.81-3.19,5.565-6.781,6.142A8.126,8.126,0,0,1,1901.447,621.879Z" class="coloref8062 svgShape" data-name="Path 274" transform="translate(-1788.183 -565.449)"/></g><g class="color000 svgShape" data-name="Group 345"><path fill="#366f90" d="M1914.9,554.7a.514.514,0,0,1-.259-.07,7.341,7.341,0,0,0-7.682-.022.52.52,0,0,1-.591-.854,8.369,8.369,0,0,1,8.792-.023.52.52,0,0,1-.26.97Z" class="color366f90 svgShape" data-name="Path 275" transform="translate(-1793.13 -546.91)"/></g><g class="color000 svgShape" data-name="Group 346"><path fill="#366f90" d="M1903.845,549.615h0a.519.519,0,0,1-.516-.523c.006-.9-.206-3.408-1.254-4.271a.52.52,0,0,1,.66-.8c1.645,1.355,1.634,4.93,1.633,5.082A.519.519,0,0,1,1903.845,549.615Z" class="color366f90 svgShape" data-name="Path 276" transform="translate(-1791.554 -543.729)"/></g><g class="color000 svgShape" data-name="Group 347"><circle cx="1.453" cy="1.453" r="1.453" fill="#764678" class="color764678 svgShape" data-name="Ellipse 48" transform="translate(85.683 124.323)"/></g><g class="color000 svgShape" data-name="Group 348"><path fill="#764678" d="M1858.158,780.739a1.453,1.453,0,1,1,1.453,1.453A1.453,1.453,0,0,1,1858.158,780.739Z" class="color764678 svgShape" data-name="Path 277" transform="translate(-1775.381 -630.795)"/></g></g></g><path fill="#fba474" d="M42.15.242,1.107,20.432A1.712,1.712,0,0,0,1.3,23.694l9.413,3.368L36.155,7.943c.487-.37,1.178.2.762.627L15.585,30.731v6.078c0,1.782,2.524,2.484,3.763,1.193l5.623-5.837L36,36.107a2.187,2.187,0,0,0,2.922-1.374L45.3,2.114C45.6.589,43.682-.513,42.15.242Z" class="colorfba474 svgShape" data-name="Icon awesome-paper-plane" transform="translate(1248.999 692.335)"/></g></svg></svg>