<svg id="Group_2" data-name="Group 2" xmlns="http://www.w3.org/2000/svg" width="125.333" height="83.066" viewBox="0 0 125.333 83.066">
  <defs>
    <style>
      .cls-1 {
        fill: #58849b;
      }
    </style>
  </defs>
  <path id="Path_1" data-name="Path 1" class="cls-1" d="M1607.258,412.036q.774,14.16,1.545,28.32c.108,2.017-.451,2.577-2.511,2.829q-16.553,2.026-33.1,4.078-9.259,1.139-18.519,2.253a1.751,1.751,0,0,0-1.6.941,3.756,3.756,0,0,1-1.792,1.457,10.765,10.765,0,0,1-10.184.01,3.288,3.288,0,0,1-1.627-1.311c-.452-.993-1.254-1.05-2.171-1.162q-25.759-3.129-51.514-6.3c-1.8-.22-2.389-.946-2.29-2.706q.86-15.193,1.694-30.388.734-13.288,1.457-26.576c.124-2.215.618-2.548,2.833-2.007,1.681.411,3.383.763,5.03,1.278,1.09.341,1.261-.043,1.3-.96.116-2.8.3-5.592.454-8.387.127-2.3,1.039-3.18,3.456-3.243a74.716,74.716,0,0,1,23.81,3.543,57.909,57.909,0,0,1,21.779,12.716c.651.581.976.681,1.678.029,9.363-8.693,20.647-13.56,33.4-15.463a66.894,66.894,0,0,1,12.172-.829c2.514.085,3.41.975,3.533,3.422.143,2.832.347,5.662.449,8.5.032.867.335.921,1.083.717,1.923-.522,3.861-.992,5.8-1.459,1.451-.349,2.143.162,2.224,1.617Q1606.455,397.5,1607.258,412.036Zm-63.907,30.524v-1.028q0-23.888.031-47.775a3.445,3.445,0,0,0-1.22-2.739c-10.928-10.388-24.386-14.742-39.4-15.444-.808-.038-1.024.219-1.059.964-.185,3.886-.428,7.769-.644,11.653q-1.093,19.6-2.2,39.2c-.045.782.159,1,.961.992a83.4,83.4,0,0,1,11.834.873c11.494,1.564,21.921,5.489,30.8,12.864A1.128,1.128,0,0,0,1543.351,442.56Zm5.635.233c.575-.444.925-.708,1.268-.98a55.98,55.98,0,0,1,21.394-10.755,88.708,88.708,0,0,1,19.9-2.676c1.946-.036,1.959-.03,1.853-1.947q-.8-14.378-1.612-28.756c-.4-7.008-.82-14.013-1.184-21.023-.048-.927-.38-1.127-1.285-1.076a89.555,89.555,0,0,0-10.662,1.252,54.653,54.653,0,0,0-28.835,14.511,2.53,2.53,0,0,0-.859,2q.037,24.058.021,48.115Zm-19.715-2.616a20.651,20.651,0,0,0-4.228-2,76.944,76.944,0,0,0-28.308-4.33c-2.805.066-3.814-.877-3.665-3.538q1.246-22.269,2.5-44.538c.089-1.578.09-1.579-1.467-1.31-.445.077-.885.2-1.332.243-.76.066-.977.461-1.009,1.155-.134,2.905-.314,5.808-.486,8.711q-.633,10.669-1.273,21.338-.7,11.759-1.4,23.517c-.038.627-.073,1.016.868.812a112.337,112.337,0,0,1,14.636-2.159,69.39,69.39,0,0,1,18.264.536C1524.693,439.042,1526.971,439.633,1529.271,440.176Zm35.743-.88a6.081,6.081,0,0,0,.625-.094,64.151,64.151,0,0,1,22.229-1.508,118.351,118.351,0,0,1,14.868,2.162c.915.2,1.016-.092.948-.837-.116-1.267-.161-2.54-.235-3.811q-1.408-24.071-2.818-48.141c-.16-2.733-.17-2.714-3.051-3.037-.687-.077-.92.012-.875.759.475,7.987.913,15.975,1.358,23.963.409,7.335.83,14.669,1.215,22.005.106,2.035-1.064,3.165-3.144,3.1a81.029,81.029,0,0,0-8.823.177A72.008,72.008,0,0,0,1566.2,438.6,2.1,2.1,0,0,0,1565.014,439.3Z" transform="translate(-1483.482 -370.133)"/>
  <path id="Path_2" data-name="Path 2" class="cls-1" d="M1530.75,395.926c10.618,1.116,20.344,4.329,28.17,12.006a4.393,4.393,0,0,1,.707.8,1.376,1.376,0,0,1-.2,1.852,1.421,1.421,0,0,1-1.867.13,2.316,2.316,0,0,1-.4-.356c-5.985-6.094-13.454-9.22-21.682-10.8-1.644-.315-3.32-.461-4.984-.664-1.083-.132-1.71-.7-1.662-1.573C1528.88,396.4,1529.59,395.885,1530.75,395.926Z" transform="translate(-1505.335 -383.235)"/>
  <path id="Path_3" data-name="Path 3" class="cls-1" d="M1558.471,452.871a1.344,1.344,0,0,1-.851,1.091,1.452,1.452,0,0,1-1.681-.307,28.665,28.665,0,0,0-3.224-2.648,46.018,46.018,0,0,0-23.614-8.325,1.917,1.917,0,0,1-1.479-.475,1.432,1.432,0,0,1-.259-1.6,1.537,1.537,0,0,1,1.676-.883,41.43,41.43,0,0,1,8.566,1.235c7.35,1.99,14.189,5,19.935,10.145A2.117,2.117,0,0,1,1558.471,452.871Z" transform="translate(-1504.56 -405.492)"/>
  <path id="Path_4" data-name="Path 4" class="cls-1" d="M1559.159,430.995a1.453,1.453,0,0,1-1.931,1.437,2.327,2.327,0,0,1-.708-.46c-7.634-6.809-16.654-10.3-26.765-11.166-1.371-.118-2.091-1.058-1.573-2.122.392-.8,1.128-.884,1.922-.821a46.2,46.2,0,0,1,10.8,2.059c6.4,2.1,12.36,5,17.359,9.636C1558.713,429.971,1559.19,430.367,1559.159,430.995Z" transform="translate(-1504.941 -394.375)"/>
  <path id="Path_5" data-name="Path 5" class="cls-1" d="M1528.346,464.1c10.31.587,19.723,3.545,27.906,9.946a8.1,8.1,0,0,1,1.041.92,1.366,1.366,0,0,1,.07,1.94,1.424,1.424,0,0,1-1.931.292,2.741,2.741,0,0,1-.423-.325c-7.068-5.8-15.274-8.739-24.291-9.619-.958-.093-1.921-.146-2.882-.206-1.162-.072-1.806-.632-1.768-1.556s.7-1.416,1.9-1.392C1528.109,464.107,1528.251,464.1,1528.346,464.1Z" transform="translate(-1503.994 -417.898)"/>
  <path id="Path_6" data-name="Path 6" class="cls-1" d="M1649.345,396.924a1.442,1.442,0,0,1,1.392,1.353c.082.871-.528,1.52-1.6,1.6a48.485,48.485,0,0,0-17.221,4.387,33.692,33.692,0,0,0-9.547,6.607c-.884.884-1.756.984-2.421.31-.644-.652-.52-1.552.348-2.424,5.384-5.4,12.034-8.445,19.286-10.354A53.926,53.926,0,0,1,1649.345,396.924Z" transform="translate(-1549.042 -383.745)"/>
  <path id="Path_7" data-name="Path 7" class="cls-1" d="M1649.535,419.087s.249-.008.5,0a1.439,1.439,0,0,1,1.547,1.422,1.4,1.4,0,0,1-1.464,1.509,39.769,39.769,0,0,0-4.687.442c-8.36,1.405-15.981,4.464-22.452,10.08-.9.785-1.728.843-2.354.175-.645-.688-.506-1.595.412-2.411,5.652-5.029,12.357-7.991,19.582-9.906A44.449,44.449,0,0,1,1649.535,419.087Z" transform="translate(-1549.365 -395.009)"/>
  <path id="Path_8" data-name="Path 8" class="cls-1" d="M1652.463,443.141c.015.939-.687,1.521-1.925,1.511a36.656,36.656,0,0,0-9.433,1.128c-6.495,1.664-12.6,4.154-17.795,8.531a1.481,1.481,0,0,1-2.263-.075,1.543,1.543,0,0,1,.433-2.242,43.021,43.021,0,0,1,14.216-7.7,43.538,43.538,0,0,1,15-2.581C1651.819,441.734,1652.449,442.25,1652.463,443.141Z" transform="translate(-1549.585 -406.516)"/>
  <path id="Path_9" data-name="Path 9" class="cls-1" d="M1653.375,466.855c0,.935-.619,1.466-1.82,1.492a48.379,48.379,0,0,0-8.717.874,42.778,42.778,0,0,0-18.663,8.333,1.551,1.551,0,0,1-2.353-.045c-.539-.709-.391-1.524.469-2.231a44.349,44.349,0,0,1,17.187-8.333,50.337,50.337,0,0,1,12.068-1.544C1652.729,465.38,1653.371,465.908,1653.375,466.855Z" transform="translate(-1549.952 -418.567)"/>
</svg>
