<svg id="Group_5" data-name="Group 5" xmlns="http://www.w3.org/2000/svg" width="96.927" height="97.987" viewBox="0 0 96.927 97.987">
  <defs>
    <style>
      .cls-1 {
        fill: #58849b;
      }
    </style>
  </defs>
  <path id="Path_16" data-name="Path 16" class="cls-1" d="M1701.277,1044.154c6.785-3.663,10.674-13.019,12.666-19,2.2-6.61,3.839-16.043,4.846-16.851a5.325,5.325,0,0,1,5.593-.938c2.183.87,2.8,2.682,2.588,4.85-.664,6.774-1.356,13.545-2.039,20.317-.21,2.087-1.459,3.668-2.607,5.292-4.6,6.507-9.277,12.959-13.781,19.531-2.7,3.942-2.091,5.079,2.646,5.261a2.64,2.64,0,0,1,2.587,1.874c.9,2.135,1.627,4.353,2.651,6.426,1.412,2.858.257,4.183-2.419,5.168-7.465,2.747-14.921,5.526-22.285,8.529-2.848,1.161-4.448.622-5.2-2.309-.916-3.593-3.682-6.569-1.508-11.123.944-1.976-1.762-5.772-2.963-8.679-1.842-4.461-1.889-8.925.956-12.8,4.559-6.205,7.689-13.146,11.182-19.914a10.978,10.978,0,0,1,2.241-3.25c2.153-1.9,4.748-2.6,7.331-1,2.695,1.677,2.8,4.184,1.747,7C1704.119,1036.3,1701.6,1039.684,1701.277,1044.154Zm21.848-32.534-1.46-.184a3.012,3.012,0,0,0-.509.833,22.633,22.633,0,0,0-.719,3.917c-2.086,11.173-5.485,20.5-13.007,28.686-2.482,2.7-4.848,4.083-8.173,2.208-3.368-1.9-2.284-4.628-1.031-7.339,1.183-2.557,2.209-5.186,3.358-7.76.5-1.111,1.075-2.512-.018-3.173-1.342-.812-2.487.382-3.251,1.5a25.561,25.561,0,0,0-1.656,3.062c-3.015,6.09-5.786,12.294-10.018,17.724-2.293,2.941-2.416,6.31-1.062,9.9,3.734,9.909,3.652,9.92,13.3,6.219,3.024-1.16,6.61-1.65,4.266-6.546-.777-1.623.808-3.443,1.867-4.942,4.311-6.1,8.615-12.209,12.964-18.285C1723.69,1029.469,1721.306,1020.211,1723.125,1011.62Zm-10.725,59.793c-.823-2.745-1.153-5.23-4.991-3.49-5.423,2.458-11.1,4.353-16.671,6.488-1.634.626-2.953,1.129-1.832,3.511.883,1.875,1.337,3.252,3.813,2.253,5.84-2.354,11.732-4.576,17.614-6.826C1711.421,1072.934,1712.644,1072.717,1712.4,1071.413Z" transform="translate(-1630.083 -987.199)"/>
  <path id="Path_17" data-name="Path 17" class="cls-1" d="M1610.255,1032.546c-1.049-2.819-.948-5.326,1.747-7,2.583-1.607,5.178-.9,7.331,1a10.986,10.986,0,0,1,2.242,3.25c3.493,6.768,6.623,13.709,11.182,19.914,2.846,3.874,2.8,8.338.956,12.8-1.2,2.907-3.907,6.7-2.963,8.679,2.175,4.554-.592,7.53-1.508,11.123-.748,2.932-2.348,3.47-5.2,2.309-7.364-3-14.821-5.782-22.285-8.529-2.676-.985-3.831-2.31-2.419-5.168,1.023-2.073,1.751-4.29,2.651-6.426a2.641,2.641,0,0,1,2.587-1.874c4.737-.181,5.348-1.318,2.646-5.261-4.5-6.572-9.182-13.024-13.781-19.531-1.147-1.624-2.4-3.205-2.607-5.292q-1.024-10.158-2.039-20.317c-.213-2.169.4-3.98,2.588-4.85a5.326,5.326,0,0,1,5.593.938c1.006.808,2.642,10.241,4.846,16.851,1.992,5.978,5.881,15.334,12.666,19C1614.17,1039.684,1611.651,1036.3,1610.255,1032.546Zm-12.465,4.9c4.349,6.075,8.653,12.183,12.964,18.285,1.059,1.5,2.644,3.319,1.867,4.942-2.344,4.9,1.242,5.387,4.266,6.546,9.651,3.7,9.569,3.69,13.3-6.219,1.354-3.592,1.231-6.96-1.062-9.9-4.233-5.43-7-11.634-10.018-17.724a25.472,25.472,0,0,0-1.655-3.062c-.764-1.123-1.909-2.316-3.25-1.5-1.093.661-.515,2.062-.018,3.173,1.149,2.574,2.175,5.2,3.358,7.76,1.254,2.711,2.337,5.439-1.031,7.339-3.324,1.876-5.691.492-8.173-2.208-7.522-8.183-10.921-17.513-13.007-28.686a22.622,22.622,0,0,0-.719-3.917,3.009,3.009,0,0,0-.509-.833l-1.46.184C1594.464,1020.211,1592.08,1029.469,1597.79,1037.445Zm7.647,35.906c5.882,2.25,11.775,4.472,17.614,6.826,2.477,1,2.931-.378,3.814-2.253,1.12-2.382-.2-2.885-1.832-3.511-5.569-2.135-11.248-4.03-16.671-6.488-3.838-1.74-4.169.744-4.991,3.49C1603.126,1072.717,1604.349,1072.934,1605.437,1073.35Z" transform="translate(-1588.76 -987.199)"/>
  <path id="Path_18" data-name="Path 18" class="cls-1" d="M1630.321,988.284c.249-9.669,5.292-16.364,12.771-17.044a12.614,12.614,0,0,1,10.364,3.906c1.366,1.332,2.537,2.473,4.479.474,4.041-4.16,8.892-5.85,14.484-3.374,6.007,2.66,8.347,7.984,8.914,14.007.619,6.566-1.214,12.466-6.317,17.1-5.417,4.923-10.819,9.873-16.01,15.03-2.324,2.309-3.9,2.239-6.182-.017-5.442-5.376-11.116-10.517-16.683-15.768A18.375,18.375,0,0,1,1630.321,988.284Zm47.165.13c0-.5.037-1-.005-1.491-.419-4.883-1.989-9.236-6.823-11.275-4.486-1.892-8.126.2-10.968,3.6-3.425,4.094-5.758,1.606-8.5-.887-6.311-5.734-13.571-3.751-16.169,4.405-2.078,6.524-.989,12.5,4.057,17.374,4.769,4.608,9.775,8.974,14.488,13.637,1.9,1.881,3.072,1.624,4.836-.1,4.745-4.632,9.685-9.063,14.5-13.629A14.65,14.65,0,0,0,1677.486,988.414Z" transform="translate(-1607.426 -971.092)"/>
</svg>
