<svg xmlns="http://www.w3.org/2000/svg" width="134.334" height="134.334" viewBox="0 0 134.334 134.334">
  <defs>
    <style>
      .cls-1 {
        fill: #fba474;
      }

      .cls-2 {
        fill: #fff;
      }
    </style>
  </defs>
  <g id="Group_369" data-name="Group 369" transform="translate(-26.516 -355.306)">
    <circle id="Ellipse_54" data-name="Ellipse 54" class="cls-1" cx="67.167" cy="67.167" r="67.167" transform="translate(26.516 355.306)"/>
    <g id="Group_368" data-name="Group 368" transform="translate(57.614 372.541)">
      <path id="Path_296" data-name="Path 296" class="cls-2" d="M111.929,474.881c-1.73-1.177-3-2.719-5.072-3.039-1.217-.187-1.694-1.34-1.5-2.607a2.108,2.108,0,0,1,2.106-1.861,2.057,2.057,0,0,1,2.328,1.57c.826,3.576,3.9,4.218,6.681,4.767a20.031,20.031,0,0,0,7.345-.353c-2.211-1.309-4.167-3.222-6.982-1.71a2.013,2.013,0,0,1-2.67-.829,2.131,2.131,0,0,1,.116-2.81c.726-.875,1.853-1.335,2.711-.627,2.515,2.076,5.955,1.911,8.71,4.115a9.1,9.1,0,0,0-.582-4.781,2.1,2.1,0,0,1,.963-2.858,2.134,2.134,0,0,1,2.8.3c.908.887,1.182,2.1.278,2.978a2.948,2.948,0,0,0-.671,3.944,4.184,4.184,0,0,0,4.191,2.154,6.707,6.707,0,0,0,3.825-.827c-1.067-1.647-2.137-3.288-2.218-5.3-.04-1-.706-.813-1.361-.846a2.245,2.245,0,0,1-2.343-2.266,2.2,2.2,0,0,1,1.935-2.358c1.411-.248,2.145.62,2.763,1.8a23.768,23.768,0,0,1,1.726,5.348,6.1,6.1,0,0,0,1.847-2.553,2.223,2.223,0,0,1,2.771-1.276,2.124,2.124,0,0,1,1.651,2.277,2.08,2.08,0,0,1-2.014,2.227c-.842.091-1.822-.066-1.408,1.288.419,1.375,1.3.659,1.968.306,1.689-.889,3.606-1.58,2.749-4.272a3.736,3.736,0,0,1,.786-2.587c1.234-1.905,1.191-4.217,1.951-6.115,1.572-3.927-.18-7.361-1.555-10.2-1.23-2.538-2.739-5.7-6.279-7.087a34.111,34.111,0,0,0-7.441-2.259c-5.294-.829-11.072-.716-15.475-4.807a11.508,11.508,0,0,1-3.351-4.479,13.2,13.2,0,0,0-8.379-7.919c-2.192-.715-6.755,2.591-7.145,4.927-.169,1.013.34,2.643-1.341,2.473-1.558-.157-.532-1.9-1.224-2.921-1.272,1.586-2.485,3.251-3.876,4.749-.5.539-1.05,1.917-2.137.967s-.252-1.718.568-2.454a3.893,3.893,0,0,0,1.694-2.472c-1.592-.371-2.642.636-3.735,1.415a1.144,1.144,0,0,1-1.684-.1c-.728-.657-.393-1.129.184-1.561.766-.573,1.269-1.09.174-1.863-.382-.27-1.022-.683-.384-1.285.559-.527,1.189-.871,1.967-.273,1.885,1.446,3.923,1.325,6.028.566-.041-.22-.018-.436-.114-.561-.638-.842-2.726-1.142-1.591-2.611,1-1.29,2.275.107,2.964.837,1.354,1.433,2.41,1.024,3.826.168,1.562-.945,1.395-2.1,1.074-3.557-.611-2.789-2.139-4.408-5.075-4.509-2.869-.1-5.82-.511-7.553,2.7-.489.907-.449,2.924-2.2,2.1-1.592-.747-.068-2.018.1-3.059a2.5,2.5,0,0,0-.031-.535c-.5-.458-1.079-.178-1.567-.045-.962.262-1.407-.163-1.6-1-.216-.966.61-1.068,1.18-1.187,2.349-.492,4.715-.9,7.3-1.387-1.734-1.944-3.429-3.807-5.075-5.711-.532-.616-1.137-1.271-.05-2.054.991-.715,1.282.093,1.727.62.818.967,1.617,1.95,2.589,3.126a5.291,5.291,0,0,0,.518-3.477c-.016-.842.122-1.463,1.08-1.6,1.175-.171,1.126.7,1.159,1.418a7.7,7.7,0,0,1-.051,3.029c-.9,2.255.011,3.468,1.966,4.284,1.557.65,3.29,2.164,4.786.531,1.468-1.6,3.5-3.268,2.513-6.02-1.784-4.985-4.56-7.408-9.377-6.9-.759.081-1.4.146-1.654-.9-.289-1.168.641-1.085,1.314-1.482-1.406-1.066-3.055-1.267-4.578-1.748-.79-.25-1.338-.44-1.146-1.471.215-1.163.911-.925,1.645-.73,1.049.279,2.095.569,3.5.952-.488-1.3-.852-2.285-1.234-3.267-.275-.705-.654-1.4.479-1.74.974-.3,1.312.248,1.6,1.016a19.069,19.069,0,0,0,2.685,5.143,15.5,15.5,0,0,0,1.523,1.362c-.438-1.974-.728-3.286-1.022-4.6-.138-.611-.042-1.08.652-1.282.721-.21,1.229-.147,1.471.714a47.923,47.923,0,0,1,1.064,5.433c.22,1.367.107,3.63,2.789,1.762,1.017-.709,2.106.234,1.51,1.545-1.077,2.369.68,4.046,1.174,6.022.243.973,1.139.83,1.838.764.782-.076.6-.781.627-1.305.086-1.754.2-3.508.235-5.264a4.993,4.993,0,0,0-2.675-4.828c-1.019-.541-1.48-1.292-.849-2.183.687-.97,1.5-.01,2.147.325a18.959,18.959,0,0,1,2.343,1.72,7.3,7.3,0,0,0-1.629-4.522c-.54-.827-.3-1.354.411-1.853.848-.594,1.169.125,1.472.64.691,1.174,1.308,2.393,1.983,3.646a10.916,10.916,0,0,0,2.952-4.725c.306-.819.607-1.318,1.569-1,1.046.34.829,1.046.564,1.782a19.293,19.293,0,0,1-3.983,6.277c-2.872,3.226-2.472,7.218-2.118,11.08.122,1.331,2.829,1.888,4.242.822,4.388-3.311,7.382-7.468,7.629-13.221.044-1.029-.909-2.815,1.022-2.878s.879,1.8,1.21,2.784c.076.227.12.464.21.82,1.057-1.046,1.253-2.344,1.661-3.537a1.117,1.117,0,0,1,1.511-.787c.916.209.875.8.624,1.481-.6,1.63-1.216,3.257-1.918,5.134,2.033-.221,2.8-1.617,3.547-3.044.461-.885.4-2.619,1.986-1.962,1.51.626.154,1.858.054,2.813-.054.514-.667.89-.405,1.668a39.179,39.179,0,0,1,4.246.76c.723.2,2.138.009,1.784,1.521-.333,1.421-1.292.844-2.195.628a15.368,15.368,0,0,0-11.126,1.32c2.5.651,4.751.8,6.51,2.247.452.371,1.3.637.649,1.478a1.26,1.26,0,0,1-1.844.427c-5.29-2.51-10-1.137-13.036,3.725a3.728,3.728,0,0,0-.176,3.97c.818,1.4,1.972.427,2.947.12,2.506-.79,5.786-.686,5.572-4.748-.033-.634.745-.734,1.3-.758.834-.035.884.648.791,1.152-.451,2.463,1.134,2.058,2.634,2.058.7,0,2.008-.754,2.033.916.022,1.416-1.014,1.254-1.934,1.269a9.349,9.349,0,0,0-3.5.722,3.188,3.188,0,0,0,.324.439c.823.781,3.058.573,2.406,2.268-.779,2.024-2.111-.08-3.217-.115a7.745,7.745,0,0,1-1.042-.172c-.285.818.259,1.3.477,1.864.225.581.305,1.062-.393,1.358-.637.271-1.161.427-1.616-.385-.856-1.532-1.3-3.826-3.854-3.046-2.371.722-3.259,2.825-3.987,4.978a9.67,9.67,0,0,0,.266,6c.282.957.663,1.592,1.948,1.287a3.257,3.257,0,0,1,3.236,1.244c2.743,3.493,6.866,2.888,10.482,3.566,5.335,1,11.011,1.118,15.24,5.033,6.756,6.255,10.333,13.828,8.321,23.291a26.15,26.15,0,0,1-1.831,6.668c-1.007,1.963-1.912,4.1-4.8,3.854-1-.084-1.5.987-2.255,1.5a127.9,127.9,0,0,0-13.044,10.346,15.611,15.611,0,0,1-9.573,3.743,2.234,2.234,0,0,1-2.539-1.668,2.07,2.07,0,0,1,.789-2.46c1.005-.729,2.319-.827,3,.2,1.378,2.083,2.9,1.291,4.224.324,2.961-2.167,5.776-4.534,9.257-7.3-5.574.483-10.306,1.021-15.066.6-.964-.086-1.833.037-2.177,1.208-.759,2.583-3.02,4.148-4.394,6.325a2,2,0,0,1-2.668.818,2.229,2.229,0,0,1-1.51-2.4c.157-1.238,1.069-2.308,2.206-2.071,2.933.611,3.188-1.589,4.24-3.465a23.186,23.186,0,0,0-9.814,3.479,2.39,2.39,0,0,0-1.258,1.7,2.291,2.291,0,0,1-4.551-.427c.01-1.453.865-2.11,2.247-2.318C107.089,478.081,109.039,475.628,111.929,474.881Zm-.582-52.068c.321-1.7.189-3.232.871-4.184,1.977-2.76,1.584-5.4.445-8.268-.294-.738-.35-1.323-1.273-1.47-1.639-.261-3.256-.664-4.893-.943-1.7-.291-6.459,4.205-5.72,5.65.895,1.748.709,4.747,2.579,5.125A17.2,17.2,0,0,1,111.347,422.813Zm30.862,16.774c1.035-.09,1.316-.748.981-1.708-.415-1.187-4.136-2.818-5.312-2.418-.819.278-.663.8-.329,1.272A6.794,6.794,0,0,0,142.209,439.586ZM131.572,433.8c-.9.209-2.261-.46-2.239,1,.027,1.821,1.713,1.629,2.888,1.72.976.075,2.687.49,2.579-1.1C134.673,433.55,132.626,434.338,131.572,433.8Zm14.286,5.885c-2.266,1.746-1.111,3.254.115,4.744.432.526.947.9,1.659.467a1.36,1.36,0,0,0,.5-1.709A6.956,6.956,0,0,0,145.857,439.684Zm2.547,8.922c.616,1.179.043,3.364,2.157,3.807.824.173,1.122-.913.9-1.664-.448-1.49-.224-3.468-2.109-4.058C148.792,446.517,148.218,447.514,148.4,448.606Zm2.043,15.726c.383-1.279-.305-1.6-.931-1.493-2.006.342-2.151,2.231-2.77,3.677a.917.917,0,0,0,.861,1.363C149.675,467.5,149.818,465.494,150.448,464.332Zm1.8-8.022c-.261-.415.365-1.3-.486-1.551s-1.391.409-1.636,1.146c-.459,1.381-1.169,2.765-.584,4.268a.781.781,0,0,0,1.192.291C152.067,459.461,151.983,457.891,152.253,456.31Zm-28.712-23.66c-.787.135-1.862-.414-2.147.734-.348,1.4.978,1.3,1.743,1.574,1.122.395,2.307.775,3.449.041a.764.764,0,0,0,.22-1.193C125.933,432.838,124.668,432.876,123.541,432.65Zm-4.032-1.4c-.6-1-1.229-2.118-2.693-2.212-.545-.035-1.232.345-.956.983a4.563,4.563,0,0,0,2.916,2.286C119.4,432.522,119.35,431.822,119.509,431.247Z" transform="translate(-82.127 -386.126)"/>
    </g>
  </g>
</svg>
