<?xml version="1.0" encoding="UTF-8"?>
<svg id="Layer_2" data-name="Layer 2" xmlns="http://www.w3.org/2000/svg" xmlns:xlink="http://www.w3.org/1999/xlink" viewBox="0 0 175 175">
  <defs>
    <style>
      .cls-1 {
        fill: #fff;
      }

      .cls-2 {
        fill: #fba474;
      }

      .cls-3 {
        clip-path: url(#clippath);
      }

      .cls-4 {
        fill: none;
      }

      .cls-5 {
        fill: #58849b;
      }
    </style>
    <clipPath id="clippath">
      <rect class="cls-4" width="175" height="175"/>
    </clipPath>
  </defs>
  <g id="Layer_1-2" data-name="Layer 1">
    <g class="cls-3">
      <g>
        <g>
          <path class="cls-5" d="M24.88,137.42v-15.66h2.24v15.66h-2.24Zm.92-7.02v-1.87h11.4v1.87h-11.4Zm10.1,7.02v-15.66h2.24v15.66h-2.24Z"/>
          <path class="cls-5" d="M45.89,137.58c-.98,0-1.84-.23-2.59-.69-.74-.46-1.31-1.12-1.72-1.98-.4-.86-.6-1.87-.6-3.03s.21-2.17,.62-3.05c.41-.87,.99-1.55,1.73-2.04,.74-.48,1.59-.73,2.56-.73s1.82,.24,2.52,.71c.7,.48,1.17,1.16,1.42,2.04l-.26,.18v-2.66h2.2v11.09h-2.2v-2.71l.26,.11c-.25,.88-.72,1.56-1.42,2.04-.7,.48-1.54,.71-2.52,.71Zm.53-1.76c1,0,1.77-.34,2.32-1.03s.83-1.67,.83-2.95-.28-2.26-.83-2.95c-.55-.69-1.32-1.03-2.32-1.03s-1.8,.36-2.37,1.07c-.56,.71-.85,1.7-.85,2.96s.28,2.23,.85,2.92c.56,.68,1.35,1.02,2.37,1.02Z"/>
          <path class="cls-5" d="M58.89,137.58c-1.94,0-3.47-.47-4.6-1.41l.68-1.61c.59,.45,1.21,.79,1.86,1,.65,.21,1.36,.32,2.12,.32s1.34-.13,1.74-.38c.4-.26,.59-.62,.59-1.09,0-.4-.14-.71-.41-.94-.27-.23-.73-.42-1.38-.58l-1.87-.44c-.97-.21-1.71-.57-2.21-1.09s-.76-1.17-.76-1.95c0-.66,.18-1.24,.55-1.74,.37-.5,.88-.89,1.54-1.18s1.43-.43,2.31-.43c.79,0,1.54,.12,2.24,.36,.7,.24,1.31,.6,1.83,1.07l-.68,1.56c-.54-.43-1.1-.74-1.66-.96-.57-.21-1.14-.32-1.73-.32-.72,0-1.28,.14-1.67,.41-.4,.27-.59,.65-.59,1.13,0,.4,.12,.71,.36,.93,.24,.23,.65,.41,1.22,.54l1.87,.46c1.07,.24,1.85,.61,2.35,1.12,.5,.51,.75,1.17,.75,1.98,0,.98-.4,1.76-1.2,2.34-.8,.58-1.89,.87-3.27,.87Z"/>
          <path class="cls-5" d="M65.95,137.42v-16.19h2.22v7.35l-.31,.13c.32-.87,.84-1.52,1.55-1.97,.71-.45,1.53-.67,2.45-.67,2.65,0,3.98,1.49,3.98,4.47v6.89h-2.22v-6.8c0-.95-.19-1.65-.57-2.09-.38-.44-.97-.66-1.76-.66-.95,0-1.71,.29-2.28,.88-.56,.59-.85,1.37-.85,2.35v6.31h-2.22Z"/>
          <path class="cls-5" d="M78.84,121.5h2.57v2.33h-2.57v-2.33Zm.15,15.93v-11.09h2.22v11.09h-2.22Z"/>
          <path class="cls-5" d="M84.45,137.42v-7.96c0-.51-.01-1.03-.03-1.56-.02-.53-.07-1.05-.14-1.56h2.11l.2,2.24-.22,.09c.28-.82,.74-1.46,1.39-1.91,.64-.45,1.42-.68,2.31-.68,1.06,0,1.88,.26,2.48,.78,.59,.52,.98,1.32,1.15,2.41l-.53-.37c.25-.87,.73-1.55,1.44-2.06,.71-.51,1.55-.76,2.52-.76,1.23,0,2.16,.37,2.77,1.11,.62,.74,.92,1.86,.92,3.36v6.89h-2.22v-6.8c0-.95-.17-1.65-.5-2.09-.33-.44-.86-.66-1.59-.66-.85,0-1.52,.29-2.01,.88-.49,.59-.74,1.39-.74,2.4v6.27h-2.22v-6.8c0-.95-.17-1.65-.51-2.09-.34-.44-.87-.66-1.58-.66-.87,0-1.54,.29-2.03,.88-.49,.59-.74,1.39-.74,2.4v6.27h-2.22Z"/>
          <path class="cls-5" d="M108.79,137.58c-1.1,0-2.06-.23-2.87-.7-.81-.47-1.44-1.13-1.88-1.99-.44-.86-.66-1.88-.66-3.07s.22-2.17,.66-3.04c.44-.87,1.07-1.53,1.88-2,.81-.47,1.77-.7,2.87-.7s2.03,.23,2.85,.7,1.44,1.14,1.89,2,.67,1.88,.67,3.04-.22,2.21-.67,3.07c-.45,.86-1.08,1.52-1.89,1.99-.81,.47-1.76,.7-2.85,.7Zm0-1.76c1,0,1.77-.34,2.32-1.01,.55-.67,.83-1.67,.83-2.99s-.27-2.26-.83-2.94c-.55-.68-1.32-1.02-2.32-1.02s-1.78,.34-2.34,1.02-.85,1.66-.85,2.94,.28,2.32,.83,2.99c.55,.67,1.34,1.01,2.37,1.01Z"/>
          <path class="cls-5" d="M115.25,128.05v-1.72h7.44v1.72h-7.44Zm7.41,7.48v1.8c-.26,.09-.53,.15-.79,.19-.26,.04-.55,.05-.86,.05-1.13,0-2.01-.32-2.65-.96s-.96-1.58-.96-2.83v-10.23l2.22-.77v10.82c0,.54,.08,.96,.24,1.26,.16,.3,.38,.51,.67,.64,.29,.12,.61,.19,.96,.19,.21,0,.4-.01,.57-.04s.37-.07,.59-.13Z"/>
          <path class="cls-5" d="M129.51,137.58c-1.1,0-2.06-.23-2.87-.7-.81-.47-1.44-1.13-1.88-1.99-.44-.86-.66-1.88-.66-3.07s.22-2.17,.66-3.04c.44-.87,1.07-1.53,1.88-2,.81-.47,1.77-.7,2.87-.7s2.03,.23,2.85,.7,1.44,1.14,1.89,2,.67,1.88,.67,3.04-.22,2.21-.67,3.07c-.45,.86-1.08,1.52-1.89,1.99-.81,.47-1.76,.7-2.85,.7Zm0-1.76c1,0,1.77-.34,2.32-1.01,.55-.67,.83-1.67,.83-2.99s-.27-2.26-.83-2.94c-.55-.68-1.32-1.02-2.32-1.02s-1.78,.34-2.34,1.02-.85,1.66-.85,2.94,.28,2.32,.83,2.99c.55,.67,1.34,1.01,2.37,1.01Z"/>
          <path class="cls-5" d="M137.72,128.05l-.57-6.29h2.6l-.53,6.29h-1.5Z"/>
          <path class="cls-5" d="M146.49,137.58c-1.94,0-3.47-.47-4.6-1.41l.68-1.61c.59,.45,1.21,.79,1.86,1,.65,.21,1.36,.32,2.12,.32s1.34-.13,1.74-.38c.4-.26,.59-.62,.59-1.09,0-.4-.14-.71-.41-.94-.27-.23-.73-.42-1.38-.58l-1.87-.44c-.97-.21-1.71-.57-2.21-1.09s-.76-1.17-.76-1.95c0-.66,.18-1.24,.55-1.74,.37-.5,.88-.89,1.54-1.18s1.43-.43,2.31-.43c.79,0,1.54,.12,2.24,.36,.7,.24,1.31,.6,1.83,1.07l-.68,1.56c-.54-.43-1.1-.74-1.66-.96-.57-.21-1.14-.32-1.73-.32-.72,0-1.28,.14-1.67,.41-.4,.27-.59,.65-.59,1.13,0,.4,.12,.71,.36,.93,.24,.23,.65,.41,1.22,.54l1.87,.46c1.07,.24,1.85,.61,2.35,1.12,.5,.51,.75,1.17,.75,1.98,0,.98-.4,1.76-1.2,2.34-.8,.58-1.89,.87-3.27,.87Z"/>
          <path class="cls-5" d="M39.16,163.82v-13.77h-5.3v-1.89h12.89v1.89h-5.3v13.77h-2.29Z"/>
          <path class="cls-5" d="M48.62,163.82v-16.19h2.22v7.35l-.31,.13c.32-.87,.84-1.52,1.55-1.97,.71-.45,1.53-.67,2.45-.67,2.65,0,3.98,1.49,3.98,4.47v6.89h-2.22v-6.8c0-.95-.19-1.65-.57-2.09-.38-.44-.97-.66-1.76-.66-.95,0-1.71,.29-2.28,.88s-.85,1.37-.85,2.35v6.31h-2.22Z"/>
          <path class="cls-5" d="M65.23,164.46l-5.04-11.73h2.31l3.78,9.28-1.06,2.44Zm-3.96,4.36l-.48-1.72c.67-.15,1.24-.33,1.71-.54,.46-.21,.85-.48,1.16-.8s.57-.74,.79-1.25l.75-1.72,.53-.77,3.83-9.28h2.22l-5.17,11.97c-.41,.94-.88,1.68-1.4,2.23-.52,.55-1.11,.97-1.77,1.27-.66,.29-1.38,.5-2.16,.62Z"/>
          <path class="cls-5" d="M73.48,163.82v-7.96c0-.51-.01-1.03-.03-1.56-.02-.53-.07-1.05-.14-1.56h2.11l.26,2.79-.26-.11c.19-.97,.63-1.7,1.31-2.2,.68-.5,1.45-.75,2.3-.75,.21,0,.4,.01,.57,.04,.18,.03,.34,.07,.48,.11l-.04,2.02c-.4-.15-.83-.22-1.3-.22-.72,0-1.3,.15-1.74,.45s-.77,.7-.98,1.19c-.21,.49-.32,1.02-.32,1.57v6.18h-2.22Z"/>
          <path class="cls-5" d="M86.32,163.98c-1.1,0-2.06-.23-2.87-.7-.81-.47-1.44-1.13-1.88-1.99-.44-.86-.66-1.88-.66-3.07s.22-2.17,.66-3.04c.44-.87,1.07-1.53,1.88-2,.81-.47,1.77-.7,2.87-.7s2.03,.24,2.85,.7c.81,.47,1.44,1.14,1.89,2,.45,.87,.67,1.88,.67,3.04s-.22,2.21-.67,3.07c-.45,.86-1.08,1.52-1.89,1.99-.81,.47-1.76,.7-2.85,.7Zm0-1.76c1,0,1.77-.34,2.32-1.01,.55-.67,.83-1.67,.83-2.99s-.27-2.25-.83-2.94c-.55-.68-1.32-1.02-2.32-1.02s-1.78,.34-2.34,1.02c-.56,.68-.85,1.66-.85,2.94s.28,2.32,.83,2.99,1.34,1.01,2.37,1.01Z"/>
          <path class="cls-5" d="M94.15,147.9h2.57v2.33h-2.57v-2.33Zm.15,15.93v-11.09h2.22v11.09h-2.22Z"/>
          <path class="cls-5" d="M109.93,163.82h-2.2v-2.9l.26,.31c-.25,.88-.72,1.56-1.42,2.04-.7,.48-1.54,.71-2.52,.71s-1.82-.24-2.56-.71c-.74-.48-1.32-1.15-1.73-2.02-.41-.87-.62-1.9-.62-3.07s.2-2.16,.6-3.01,.98-1.51,1.72-1.98c.74-.47,1.6-.7,2.59-.7s1.82,.24,2.52,.73c.7,.48,1.17,1.16,1.42,2.02l-.29,.26v-7.85h2.22v16.19Zm-5.35-1.61c1,0,1.77-.34,2.32-1.03,.55-.69,.83-1.68,.83-2.97s-.28-2.22-.83-2.92c-.55-.7-1.32-1.04-2.32-1.04s-1.8,.34-2.37,1.02c-.56,.68-.85,1.65-.85,2.89s.28,2.29,.85,2.99,1.35,1.06,2.37,1.06Z"/>
          <path class="cls-5" d="M113.01,147.9h2.57v2.33h-2.57v-2.33Zm.15,15.93v-11.09h2.22v11.09h-2.22Z"/>
          <path class="cls-5" d="M117.14,154.45v-1.72h7.44v1.72h-7.44Zm7.41,7.48v1.8c-.26,.09-.53,.15-.79,.19-.26,.04-.55,.05-.86,.05-1.13,0-2.01-.32-2.65-.96-.64-.64-.96-1.58-.96-2.83v-10.23l2.22-.77v10.82c0,.54,.08,.96,.24,1.27s.38,.51,.67,.64c.29,.12,.61,.19,.96,.19,.21,0,.4-.01,.57-.04s.37-.07,.59-.13Z"/>
          <path class="cls-5" d="M126.45,147.9h2.57v2.33h-2.57v-2.33Zm.15,15.93v-11.09h2.22v11.09h-2.22Z"/>
          <path class="cls-5" d="M135.95,163.98c-1.94,0-3.47-.47-4.6-1.41l.68-1.61c.59,.46,1.21,.79,1.86,1,.65,.21,1.36,.32,2.12,.32s1.34-.13,1.74-.38c.4-.26,.59-.62,.59-1.09,0-.4-.14-.71-.41-.93s-.73-.42-1.38-.58l-1.87-.44c-.97-.21-1.71-.57-2.21-1.09-.51-.52-.76-1.17-.76-1.95,0-.66,.18-1.24,.55-1.74,.37-.5,.88-.89,1.54-1.18,.66-.29,1.43-.43,2.31-.43,.79,0,1.54,.12,2.24,.36s1.31,.6,1.83,1.07l-.68,1.56c-.54-.42-1.1-.74-1.66-.96-.57-.21-1.14-.32-1.73-.32-.72,0-1.28,.14-1.67,.41-.4,.27-.59,.65-.59,1.13,0,.4,.12,.71,.36,.94,.24,.23,.65,.41,1.22,.54l1.87,.46c1.07,.23,1.85,.61,2.35,1.12s.75,1.17,.75,1.98c0,.98-.4,1.76-1.2,2.34-.8,.58-1.89,.87-3.27,.87Z"/>
        </g>
        <g id="Group_365" data-name="Group 365">
          <circle id="Ellipse_52" data-name="Ellipse 52" class="cls-2" cx="87.92" cy="55.17" r="50"/>
          <g id="Group_364" data-name="Group 364">
            <path id="Path_289" data-name="Path 289" class="cls-1" d="M111.92,59.71c-.15,1.6-.27,3.2-.47,4.79-.3,2.51-1,4.95-2.06,7.24-2.81,5.98-9.59,6.04-13.16,2.11-.11-.12-.19-.32-.43-.3-.1,.26-.12,.55-.07,.82,0,4.92,0,9.83,0,14.75,.02,.31-.01,.62-.1,.92-.16,.44-.62,.69-1.08,.58-.52-.05-.91-.51-.87-1.03-.02-1.17-.02-2.34,0-3.51,0-.35-.04-.54-.47-.42-3.56,.97-7.31,.95-10.85-.04-.08,0-.15,0-.23,0,0,1.32,.02,2.65,0,3.96,0,.57-.45,1.03-1.01,1.04-.57,0-1.03-.45-1.04-1.01h0c-.01-.23,0-.47,0-.7,0-4.84,0-9.68,0-14.51,.05-.28,.02-.57-.07-.84-.33,.05-.45,.34-.64,.53-2.02,2.13-5.04,2.98-7.87,2.21-1.73-.44-3.23-1.53-4.19-3.04-1.48-2.27-2.43-4.86-2.77-7.55-1.4-9.18-.22-18.57,3.43-27.11,.58-1.72,2.23-2.84,4.03-2.74,.89,.1,1.72,.46,2.41,1.03,.2-.22,.02-.39-.05-.56-.58-1.57-1.43-3.01-2.52-4.28-1.48-1.67-1.67-3.56-1.29-5.62,.29-1.51,.77-2.97,1.42-4.36,.36-.88,1.01-1.6,1.85-2.04,1.14-.63,2.58-.22,3.21,.92,.19,.33,.29,.71,.3,1.09,.04,.89-.16,1.77-.58,2.55-.18,.38-.56,.93-.18,1.19s.74-.31,1.06-.59c.39-.35,.74-.74,1.15-1.05,2.26-1.69,4.75-1,5.85,1.6,.27,.65,.51,1.31,.81,1.94,.43,1.11,1.56,1.78,2.74,1.63,.74-.02,1.42-.39,1.85-.99,.45-.64,.79-1.35,1.02-2.09,.19-.6,.48-1.15,.86-1.65,.94-1.29,2.67-1.74,4.12-1.06,.8,.37,1.52,.91,2.11,1.57,.33,.34,.7,.98,1.16,.68,.36-.24-.04-.85-.24-1.27-.35-.67-.53-1.42-.54-2.17-.07-.96,.44-1.88,1.29-2.32,.89-.45,1.95-.32,2.71,.32,.39,.26,.72,.61,.95,1.02,1.33,2.25,2.02,4.82,1.98,7.43-.04,1.02-.42,2-1.08,2.78-1.14,1.35-2.07,2.87-2.77,4.5-.1,.25-.3,.49-.2,.84,.69-.56,1.52-.93,2.4-1.05,1.76-.15,3.28,.86,4.1,2.76,1.45,3.37,2.49,6.89,3.12,10.51,.47,2.56,.75,5.15,.83,7.75,.02,.28,.06,.56,.11,.84v2.03Zm-45.92-1.18c-.05,2.5,.17,4.99,.66,7.44,.36,2.29,1.23,4.47,2.55,6.38,.64,.93,1.6,1.59,2.69,1.88,2.38,.66,4.92-.19,6.42-2.15,1.34-1.66,2.4-3.53,3.12-5.54,.41-1.02,.76-1.14,1.79-.81,3.01,.97,6.26,.98,9.28,.02,1.08-.34,1.41-.24,1.84,.83,.75,2.03,1.82,3.92,3.17,5.6,2.64,3.13,7.74,3.31,9.91-1.16,1.03-2.13,1.7-4.42,1.98-6.77,.99-8.14-.08-16.4-3.11-24.02-.17-.49-.4-.96-.67-1.4-.44-.85-1.48-1.19-2.33-.75-.17,.09-.33,.21-.46,.35-.69,.56-1.21,1.31-1.49,2.16-.44,1.36-1.11,2.63-1.63,3.95-1.54,3.89-2.25,7.99-2.91,12.09-.18,1.13-.59,1.37-1.73,1.09-4.73-1.21-9.69-1.21-14.42,0-1.08,.27-1.51,.03-1.68-1.05-.38-2.44-.84-4.86-1.39-7.27-.89-3.36-2.11-6.63-3.64-9.74-.34-1.03-1.3-1.73-2.38-1.74-1.16,.07-1.57,1.06-1.95,1.99-2.38,5.92-3.6,12.24-3.61,18.62h0Zm37.35-30.28c-.11-1.94-.64-3.83-1.53-5.56-.15-.24-.33-.47-.54-.66-.14-.13-.33-.3-.55-.17-.2,.12-.2,.35-.19,.56,.05,.44,.18,.87,.4,1.25,.33,.62,.51,1.31,.51,2.02,.05,1.21-.88,2.24-2.09,2.29-.31,.01-.63-.04-.92-.16-.59-.2-1.13-.55-1.56-1-.27-.28-.53-.57-.82-.83-1.34-1.17-2.4-.9-3.03,.77-.32,.88-.72,1.73-1.2,2.53-1.44,2.18-4.37,2.77-6.55,1.33-.53-.35-.98-.8-1.33-1.33-.46-.75-.84-1.55-1.14-2.38-.7-1.88-1.81-2.14-3.26-.76-.21,.2-.4,.41-.6,.62-.32,.34-.7,.62-1.12,.84-.81,.53-1.86,.49-2.64-.08-.75-.61-1.06-1.61-.8-2.54,.13-.53,.31-1.04,.55-1.53,.21-.51,.65-1.28,.07-1.54-.61-.28-.96,.54-1.2,1.06-.64,1.31-1.09,2.7-1.32,4.14-.3,1.26,.03,2.59,.89,3.56,.77,.88,1.42,1.86,1.95,2.91,1.42,2.39,2.06,5.15,1.83,7.92-.02,.23,.02,.46,.12,.67,.37,.86,.75,1.71,1.08,2.59,.05,.29,.33,.47,.62,.42,.03,0,.05-.01,.08-.02,1.22-.14,2.38-.63,3.32-1.42,3.18-2.7,7.84-2.69,11.02,0,.94,.8,2.1,1.29,3.33,1.41,.22,.03,.5,.15,.59-.19,.38-1.48,1.54-2.71,1.24-4.41-.08-.81,0-1.62,.2-2.4,.61-2.86,1.93-5.52,3.83-7.74,.53-.59,.81-1.37,.78-2.16h0Zm-15.62,44.4c1.82,.04,3.64-.22,5.38-.77,.4-.14,.51-.35,.56-.78,.12-1.13-.6-1.96-.94-2.92-.12-.33-.38-.2-.59-.15-2.81,.67-5.75,.67-8.56-.01-.27-.07-.49-.08-.62,.25-.23,.58-.54,1.12-.77,1.7-.43,1.1-.1,1.75,1,2.07,1.48,.4,3,.6,4.54,.59h0Zm-5.62,7.06c0,.96,.06,1.88-.02,2.78-.06,.7,.26,.94,.85,1.12,2.39,.64,4.87,.82,7.33,.52,.98-.08,1.95-.29,2.88-.64,.27-.1,.53-.17,.52-.56-.02-1.06,0-2.12,0-3.21-3.78,1.05-7.77,1.05-11.55,0h0Zm11.55-5.78c-.26,.06-.43,.1-.61,.15s-.35,.11-.52,.14c-3.23,.73-6.59,.68-9.79-.15-.53-.14-.67-.07-.64,.48,.04,.78,.04,1.56,0,2.34-.06,.37,.19,.72,.56,.78,1.23,.41,2.52,.65,3.81,.71,2.2,.19,4.43-.04,6.54-.68,.43-.07,.73-.48,.66-.91,0,0,0-.02,0-.03-.05-.9-.02-1.81-.02-2.82h0Zm-11-23.14c1.75-.01,1.76-.03,3.02,.77,1.16,.74,3.69,.8,4.84-.33,.48-.48,1.18-.67,1.84-.5,2.05,.34,3.49-.56,3.94-2.36q.27-1.09-.86-1.35c-.18-.03-.36-.07-.52-.15-.6-.33-.9-.11-1.23,.46-2.66,4.51-7.98,4.87-11.1,.8-.38-.49-.47-1.35-1.14-1.42-.65,.04-1.28,.2-1.87,.45-.05,.01-.1,.02-.15,.03-.14,.03-.19,.09-.19,.26-.16,1.58,.98,3,2.56,3.2,.35,.07,.71,.11,.88,.13h0Zm5.21-1.89c1.88-.16,3.53-1.33,4.3-3.05,.13-.35-.05-.47-.26-.63-2.39-1.82-5.71-1.81-8.09,.02-.19,.14-.34,.26-.24,.57,.77,1.72,2.4,2.9,4.28,3.08h0Zm7.44,4.06c.13-.43-.04-.5-.38-.39-.85,.26-1.74,.35-2.62,.26-.28,0-.56,.08-.78,.26-2.17,1.54-5.07,1.55-7.24,.02-.22-.18-.49-.28-.78-.28-.91,.09-1.82,0-2.7-.27-.31-.1-.44-.02-.37,.33,.14,.71,.28,1.43,.38,2.15,.05,.37,.16,.44,.55,.37,4.31-.9,8.76-.89,13.08,0,.34,.07,.46,.02,.5-.33,.1-.72,.24-1.43,.36-2.11h0Z"/>
          </g>
        </g>
      </g>
    </g>
  </g>
</svg>