<?xml version="1.0" encoding="UTF-8"?>
<svg id="Layer_2" data-name="Layer 2" xmlns="http://www.w3.org/2000/svg" xmlns:xlink="http://www.w3.org/1999/xlink" viewBox="0 0 175 175">
  <defs>
    <style>
      .cls-1 {
        fill: #fff;
      }

      .cls-2 {
        fill: #fba474;
      }

      .cls-3 {
        clip-path: url(#clippath);
      }

      .cls-4 {
        fill: none;
      }

      .cls-5 {
        fill: #58849b;
      }
    </style>
    <clipPath id="clippath">
      <rect class="cls-4" width="175" height="175"/>
    </clipPath>
  </defs>
  <g id="Layer_1-2" data-name="Layer 1">
    <g class="cls-3">
      <g>
        <g>
          <path class="cls-5" d="M57.9,149.67v-15.66h2.27v13.77h7.61v1.89h-9.88Z"/>
          <path class="cls-5" d="M73.56,149.82c-1.33,0-2.34-.37-3.01-1.11s-1.01-1.85-1.01-3.33v-6.8h2.22v6.78c0,.91,.19,1.58,.56,2.01s.95,.65,1.73,.65c.89,0,1.62-.29,2.17-.88,.55-.59,.83-1.36,.83-2.33v-6.23h2.22v11.09h-2.16v-2.35l.26-.09c-.31,.85-.8,1.5-1.47,1.94-.67,.44-1.45,.66-2.33,.66Z"/>
          <path class="cls-5" d="M82.47,154.42v-12.72c0-.51-.01-1.03-.03-1.56-.02-.53-.07-1.05-.14-1.56h2.11l.2,2.24-.15,.24c.25-.88,.72-1.56,1.42-2.04,.7-.48,1.53-.71,2.5-.71s1.82,.24,2.56,.73c.74,.48,1.32,1.16,1.74,2.04,.42,.87,.63,1.89,.63,3.05s-.21,2.17-.63,3.02c-.42,.86-.99,1.52-1.73,1.98s-1.59,.69-2.57,.69-1.8-.24-2.5-.71c-.7-.48-1.17-1.15-1.42-2.04l.24-.26v7.61h-2.22Zm5.39-6.36c1,0,1.77-.34,2.33-1.02,.56-.68,.84-1.65,.84-2.92s-.28-2.25-.84-2.96c-.56-.71-1.33-1.07-2.33-1.07s-1.81,.34-2.35,1.03c-.54,.69-.81,1.67-.81,2.95s.27,2.26,.81,2.95c.54,.69,1.33,1.03,2.35,1.03Z"/>
          <path class="cls-5" d="M99.83,149.82c-1.33,0-2.34-.37-3.01-1.11s-1.01-1.85-1.01-3.33v-6.8h2.22v6.78c0,.91,.19,1.58,.56,2.01s.95,.65,1.73,.65c.89,0,1.62-.29,2.17-.88,.55-.59,.83-1.36,.83-2.33v-6.23h2.22v11.09h-2.16v-2.35l.26-.09c-.31,.85-.8,1.5-1.47,1.94-.67,.44-1.45,.66-2.33,.66Z"/>
          <path class="cls-5" d="M112.63,149.82c-1.94,0-3.47-.47-4.6-1.41l.68-1.61c.59,.46,1.21,.79,1.86,1,.65,.21,1.36,.32,2.12,.32s1.34-.13,1.74-.38c.4-.26,.59-.62,.59-1.09,0-.4-.14-.71-.41-.93s-.73-.42-1.38-.58l-1.87-.44c-.97-.21-1.71-.57-2.21-1.09-.51-.52-.76-1.17-.76-1.95,0-.66,.18-1.24,.55-1.74,.37-.5,.88-.89,1.54-1.18,.66-.29,1.43-.43,2.31-.43,.79,0,1.54,.12,2.24,.36s1.31,.6,1.83,1.07l-.68,1.56c-.54-.42-1.1-.74-1.66-.96-.57-.21-1.14-.32-1.73-.32-.72,0-1.28,.14-1.67,.41-.4,.27-.59,.65-.59,1.13,0,.4,.12,.71,.36,.94,.24,.23,.65,.41,1.22,.54l1.87,.46c1.07,.23,1.85,.61,2.35,1.12s.75,1.17,.75,1.98c0,.98-.4,1.76-1.2,2.34-.8,.58-1.89,.87-3.27,.87Z"/>
        </g>
        <g id="Group_367" data-name="Group 367">
          <circle id="Ellipse_53" data-name="Ellipse 53" class="cls-2" cx="87.5" cy="69.33" r="50"/>
          <g id="Group_366" data-name="Group 366">
            <path id="Path_290" data-name="Path 290" class="cls-1" d="M87.54,39.1c3.8,0,7.59-.06,11.39,.01,5.25,.11,9.65,2.33,11.51,7.21,1.91,5.02,4.53,9.82,5.51,15.17,1.1,6.01,1.14,11.98-1.31,17.72-1.48,3.25-3.62,6.15-6.28,8.52-5.35,4.94-11.61,8.8-18.44,11.35-1.54,.64-3.26,.64-4.8,0-6.73-2.56-12.93-6.34-18.29-11.15-6.93-6.22-9.23-14.05-8.32-23.07,.37-3.58,1.32-7.07,2.81-10.35,.98-2.03,1.77-4.13,2.38-6.3,1.35-5.31,6.4-9,12.08-9.11,3.92-.07,7.83-.01,11.75-.01h0Zm.02,1.72c-3.88,0-7.75-.03-11.63,0-4.92,.04-9.49,3.33-10.6,7.88-.46,1.91-1.13,3.77-1.99,5.55-1.7,3.4-2.76,7.09-3.13,10.87-.7,7.66,.77,14.6,6.46,20.25,5.52,5.41,12.14,9.59,19.4,12.24,.91,.36,1.92,.35,2.83,0,7.25-2.59,13.84-6.74,19.3-12.16,2.93-2.97,5.25-6.37,6.07-10.56,.87-4.33,.86-8.79,0-13.11-1.03-5.18-3.63-9.8-5.38-14.71-1.51-4.23-5.4-6.16-9.95-6.24-3.79-.06-7.59-.01-11.39-.01h0Z"/>
            <path id="Path_291" data-name="Path 291" class="cls-1" d="M84.54,59.95c-.11,3.12-.13,6.15-.9,9.11-.12,.85-.49,1.64-1.06,2.27-.75,.67-.37,1.08,.15,1.55,1.28,1.11,2.72,2.03,4.26,2.72,.28,.17,.62,.18,.91,.04,1.63-.72,3.13-1.68,4.47-2.86,.54-.5,.61-.84,.04-1.47-1.04-1.15-1.25-2.69-1.46-4.17-.58-4.37-.63-8.79-.13-13.16,.07-1.49,1.1-2.77,2.55-3.16,2.12-.68,4.32-1.06,6.54-1.12,2.42-.14,4.84-.14,7.26-.18,.63-.01,1.33,.04,1.31,.87-.02,.81-.7,.85-1.34,.85-3.88-.02-7.75-.02-11.58,.76-.39,.08-.78,.2-1.18,.29-1.11,.16-1.93,1.13-1.91,2.26-.47,4.42-.35,8.88,.35,13.27,.1,1.09,.58,2.12,1.36,2.89,.68,.59,.75,1.62,.16,2.3,0,0,0,.01-.01,.02-1.65,2.28-4.05,3.51-6.61,4.47-.32,.07-.65,.02-.93-.12-2-.78-3.83-1.93-5.39-3.4-1.41-1.38-1.41-2.22-.15-3.69,.51-.69,.82-1.5,.9-2.35,.78-4.62,.87-9.34,.28-13.99-.11-.96-.74-1.28-1.49-1.53-2.17-.65-4.41-1-6.68-1.04-2.18-.11-4.36-.1-6.54-.12-.62,0-1.2-.12-1.21-.86-.01-.75,.59-.86,1.2-.86,4.08-.03,8.16,0,12.18,.82,.59,.13,1.17,.29,1.74,.49,1.45,.38,2.49,1.66,2.54,3.16,.19,2.01,.26,4.03,.36,5.95Z"/>
            <path id="Path_292" data-name="Path 292" class="cls-1" d="M103.69,62.67c3.69,.19,6.94,1.45,8.54,4.94,1.64,3.57,2.01,7.33-.5,10.82-.78,1.08-1.46,2.23-2.03,3.43-.46,1.04-1.14,1.97-1.99,2.72-1.41,1.3-3.46,1.62-5.21,.83-2.56-1.07-4.61-3.1-5.72-5.65-.47-.79-.4-1.79,.18-2.5,.39-.58,.51-1.3,.33-1.97-.32-1.79-.81-3.54-1.46-5.24-.35-.86-.55-1.77-.61-2.7-.09-.83,.31-1.64,1.02-2.08,2.35-1.2,4.6-2.76,7.44-2.6Zm-.93,1.65c-1.2-.16-2.76,1.1-4.5,1.79-1.43,.57-1.56,.9-1.1,2.42,.53,1.78,1.13,3.53,1.62,5.32,.32,1.17,.66,2.5,.01,3.55-.88,1.41-.21,2.35,.55,3.34,.52,.67,1.1,1.28,1.74,1.84,2.82,2.45,5.35,1.96,7.03-1.37,.66-1.34,1.42-2.62,2.27-3.84,2.07-2.91,1.65-6.05,.31-8.98-1.32-2.89-4.06-3.85-7.94-4.06Z"/>
            <path id="Path_293" data-name="Path 293" class="cls-1" d="M71.5,62.69c2.78-.1,5.02,1.37,7.29,2.63,1.23,.68,1.16,2.05,.82,3.27-.46,1.63-1.06,3.22-1.51,4.85-.4,1.47-.86,2.96,.27,4.39,.3,.55,.26,1.22-.08,1.75-1.1,2.74-3.3,4.88-6.06,5.92-2.21,.89-4.73,.02-5.93-2.04-1.51-2.09-2.82-4.32-3.92-6.66-2.31-5.45,0-14.06,9.12-14.12Zm-8.24,10.65c-.07,.71,.06,1.43,.38,2.08,1.39,2.49,2.76,5,4.34,7.37,.96,1.45,2.5,1.68,4.11,.95,1.95-.92,3.53-2.48,4.46-4.43,.14-.27,.37-.58,.15-.91-1.32-1.96-.64-3.96-.09-5.94,.4-1.44,.92-2.83,1.35-4.26,.19-.62,.32-1.34-.43-1.71-1.33-.75-2.73-1.37-4.18-1.84-5.58-1.4-9.95,2.35-10.07,8.69h0Z"/>
            <path id="Path_294" data-name="Path 294" class="cls-1" d="M103.11,60.59c-1.86-.02-3.7-.29-5.49-.79-.64-.17-1.38-.34-1.12-1.23,.23-.81,.91-.6,1.51-.44,2.56,.77,5.26,.95,7.9,.51,.59-.14,1.16-.32,1.72-.55,.53-.2,.98-.14,1.21,.41s-.04,.93-.54,1.16c-1.63,.71-3.41,1.03-5.19,.93Z"/>
            <path id="Path_295" data-name="Path 295" class="cls-1" d="M71.75,60.59c-1.61,.07-3.23-.2-4.73-.79-.59-.25-1.17-.55-.85-1.32,.29-.71,.88-.52,1.43-.3,2.92,1.15,5.86,.72,8.8,.1,.24-.05,.47-.12,.7-.18,.58-.17,1.19-.24,1.39,.48,.22,.8-.4,1.04-1.02,1.2-1.87,.52-3.79,.79-5.73,.81Z"/>
          </g>
        </g>
      </g>
    </g>
  </g>
</svg>