<svg xmlns="http://www.w3.org/2000/svg" width="136" height="136" viewBox="0 0 136 136">
  <defs>
    <style>
      .cls-1 {
        fill: #fba474;
      }

      .cls-2 {
        fill: #fff;
      }
    </style>
  </defs>
  <g id="Group_367" data-name="Group 367" transform="translate(-702.069 -58.742)">
    <circle id="Ellipse_53" data-name="Ellipse 53" class="cls-1" cx="68" cy="68" r="68" transform="translate(702.069 58.742)"/>
    <g id="Group_366" data-name="Group 366" transform="translate(730.394 85.608)">
      <path id="Path_290" data-name="Path 290" class="cls-2" d="M791.83,106.229c5.162,0,10.325-.085,15.485.02,7.142.147,13.126,3.165,15.654,9.8,2.6,6.822,6.162,13.353,7.5,20.633,1.5,8.175,1.551,16.291-1.775,24.1a34.7,34.7,0,0,1-8.547,11.584,76.345,76.345,0,0,1-25.073,15.439,8.593,8.593,0,0,1-6.533.012,79.611,79.611,0,0,1-24.872-15.159c-9.424-8.456-12.547-19.108-11.309-31.371a45.187,45.187,0,0,1,3.82-14.076,52.393,52.393,0,0,0,3.241-8.569c1.84-7.216,8.708-12.237,16.432-12.388,5.325-.1,10.652-.02,15.978-.02Zm.033,2.345c-5.271,0-10.543-.039-15.814.01-6.69.061-12.905,4.525-14.418,10.713a37.324,37.324,0,0,1-2.7,7.543,42.436,42.436,0,0,0-4.256,14.788c-.948,10.414,1.052,19.86,8.789,27.543a73.987,73.987,0,0,0,26.385,16.65,5.213,5.213,0,0,0,3.843-.011,71.282,71.282,0,0,0,26.251-16.541c3.99-4.045,7.137-8.667,8.26-14.355a45.4,45.4,0,0,0-.008-17.834c-1.405-7.044-4.933-13.323-7.314-20.011-2.047-5.753-7.34-8.379-13.534-8.481C802.186,108.5,797.024,108.571,791.863,108.574Z" transform="translate(-752.1 -106.196)"/>
      <path id="Path_291" data-name="Path 291" class="cls-2" d="M796.284,145.449c-.15,4.24-.182,8.363-1.219,12.387a5.925,5.925,0,0,1-1.443,3.093c-1.021.916-.5,1.469.2,2.11a23.272,23.272,0,0,0,5.8,3.7,1.319,1.319,0,0,0,1.244.055,23.688,23.688,0,0,0,6.073-3.888c.731-.676.823-1.147.053-1.995-1.42-1.564-1.7-3.663-1.979-5.668a73.257,73.257,0,0,1-.182-17.9,4.7,4.7,0,0,1,3.462-4.3,32.394,32.394,0,0,1,8.9-1.527c3.285-.194,6.583-.185,9.875-.25.859-.017,1.808.061,1.783,1.189-.024,1.105-.949,1.156-1.823,1.152-5.272-.025-10.543-.033-15.743,1.035-.537.11-1.063.27-1.6.4a3.037,3.037,0,0,0-2.6,3.067,68.593,68.593,0,0,0,.474,18.049,6.342,6.342,0,0,0,1.846,3.933,2.216,2.216,0,0,1,.2,3.148c-2.25,3.1-5.508,4.772-8.984,6.075a1.939,1.939,0,0,1-1.27-.17,22.964,22.964,0,0,1-7.336-4.624c-1.911-1.881-1.92-3.016-.208-5.025a6.42,6.42,0,0,0,1.225-3.19,65.129,65.129,0,0,0,.375-19.025c-.152-1.3-1.009-1.74-2.022-2.082a33.391,33.391,0,0,0-9.08-1.419c-2.959-.149-5.926-.134-8.89-.168-.849-.01-1.635-.17-1.649-1.165-.014-1.018.807-1.171,1.635-1.176,5.548-.035,11.092-.008,16.56,1.12a21.153,21.153,0,0,1,2.372.67,4.615,4.615,0,0,1,3.459,4.3C796.047,140.1,796.146,142.835,796.284,145.449Z" transform="translate(-760.63 -117.071)"/>
      <path id="Path_292" data-name="Path 292" class="cls-2" d="M852.242,162.855c5.017.259,9.432,1.97,11.615,6.721,2.231,4.854,2.734,9.968-.679,14.711a28.2,28.2,0,0,0-2.754,4.668,10.641,10.641,0,0,1-2.706,3.693,6.5,6.5,0,0,1-7.085,1.125,14.622,14.622,0,0,1-7.778-7.681,2.962,2.962,0,0,1,.243-3.4,3.31,3.31,0,0,0,.448-2.68,39.449,39.449,0,0,0-1.985-7.121,11.506,11.506,0,0,1-.824-3.676,2.962,2.962,0,0,1,1.384-2.827C845.316,164.75,848.372,162.637,852.242,162.855Zm-1.262,2.24c-1.628-.213-3.757,1.49-6.12,2.433-1.94.774-2.119,1.225-1.5,3.289.72,2.415,1.538,4.8,2.2,7.231.435,1.591.9,3.4.018,4.827-1.195,1.918-.286,3.2.749,4.538a17.534,17.534,0,0,0,2.371,2.5c3.841,3.335,7.281,2.672,9.557-1.858a39.531,39.531,0,0,1,3.092-5.227c2.818-3.955,2.242-8.228.428-12.215C859.985,166.684,856.256,165.379,850.98,165.095Z" transform="translate(-790.555 -130.771)"/>
      <path id="Path_293" data-name="Path 293" class="cls-2" d="M773.367,162.895c3.779-.138,6.827,1.865,9.913,3.576,1.672.927,1.58,2.793,1.112,4.453-.625,2.216-1.446,4.377-2.052,6.6-.545,2-1.173,4.023.364,5.969a2.325,2.325,0,0,1-.11,2.376,14.3,14.3,0,0,1-8.242,8.051,6.516,6.516,0,0,1-8.059-2.768,55.947,55.947,0,0,1-5.327-9.052C757.821,174.692,760.966,162.985,773.367,162.895Zm-11.2,14.479a5.164,5.164,0,0,0,.511,2.823c1.89,3.386,3.752,6.8,5.9,10.027,1.31,1.969,3.4,2.288,5.583,1.295a12.748,12.748,0,0,0,6.07-6.024c.189-.366.5-.79.2-1.234-1.795-2.667-.869-5.39-.127-8.079.538-1.953,1.257-3.855,1.834-5.8.252-.848.438-1.826-.584-2.32a31.07,31.07,0,0,0-5.69-2.5C768.276,163.654,762.332,168.76,762.163,177.374Z" transform="translate(-755.453 -130.792)"/>
      <path id="Path_294" data-name="Path 294" class="cls-2" d="M852.74,155.148a29.346,29.346,0,0,1-7.471-1.071c-.871-.23-1.871-.469-1.52-1.678.319-1.1,1.241-.812,2.059-.6a23.679,23.679,0,0,0,10.739.692,15.806,15.806,0,0,0,2.343-.748c.725-.271,1.327-.187,1.647.554s-.054,1.263-.737,1.584A15.512,15.512,0,0,1,852.74,155.148Z" transform="translate(-791.831 -125.895)"/>
      <path id="Path_295" data-name="Path 295" class="cls-2" d="M778.435,155.148A15.806,15.806,0,0,1,772,154.08c-.808-.335-1.59-.751-1.154-1.8.4-.971,1.19-.708,1.951-.407,3.97,1.567,7.97.983,11.971.138.321-.067.637-.159.953-.251.793-.233,1.615-.333,1.889.659.3,1.09-.538,1.413-1.383,1.632A29.944,29.944,0,0,1,778.435,155.148Z" transform="translate(-760.178 -125.895)"/>
    </g>
  </g>
</svg>
