<?xml version="1.0" encoding="UTF-8"?>
<svg id="Layer_2" data-name="Layer 2" xmlns="http://www.w3.org/2000/svg" xmlns:xlink="http://www.w3.org/1999/xlink" viewBox="0 0 175 175">
  <defs>
    <style>
      .cls-1 {
        fill: #fff;
      }

      .cls-2 {
        fill: #fba474;
      }

      .cls-3 {
        clip-path: url(#clippath);
      }

      .cls-4 {
        fill: none;
      }

      .cls-5 {
        fill: #58849b;
      }
    </style>
    <clipPath id="clippath">
      <rect class="cls-4" width="175" height="175"/>
    </clipPath>
  </defs>
  <g id="Layer_1-2" data-name="Layer 1">
    <g class="cls-3">
      <g>
        <g>
          <path class="cls-5" d="M48.67,138.36v-15.66h1.85l6.16,14.01h-.95l6.09-14.01h1.85v15.66h-2.07v-12.52l.7,.13-5.37,12.39h-1.54l-5.46-12.39,.75-.13,.02,12.52h-2.05Z"/>
          <path class="cls-5" d="M71.09,138.51c-1.33,0-2.34-.37-3.01-1.11-.67-.74-1.01-1.85-1.01-3.33v-6.8h2.22v6.78c0,.91,.19,1.58,.56,2.01s.95,.65,1.73,.65c.89,0,1.62-.29,2.17-.88s.83-1.36,.83-2.33v-6.23h2.22v11.09h-2.16v-2.35l.26-.09c-.31,.85-.8,1.5-1.47,1.94-.67,.44-1.45,.66-2.33,.66Z"/>
          <path class="cls-5" d="M80,138.36v-16.19h2.22v16.19h-2.22Z"/>
          <path class="cls-5" d="M83.98,128.99v-1.72h7.44v1.72h-7.44Zm7.41,7.48v1.8c-.26,.09-.53,.15-.79,.19-.26,.04-.55,.05-.86,.05-1.13,0-2.01-.32-2.65-.96-.64-.64-.96-1.58-.96-2.83v-10.23l2.22-.77v10.82c0,.54,.08,.96,.24,1.27,.16,.3,.38,.51,.67,.64s.61,.19,.96,.19c.21,0,.4-.01,.57-.04s.37-.07,.59-.13Z"/>
          <path class="cls-5" d="M93.29,122.43h2.57v2.33h-2.57v-2.33Zm.15,15.93v-11.09h2.22v11.09h-2.22Z"/>
          <path class="cls-5" d="M98.9,143.11v-12.72c0-.51-.01-1.03-.03-1.56-.02-.53-.07-1.05-.14-1.56h2.11l.2,2.24-.15,.24c.25-.88,.72-1.56,1.42-2.04,.7-.48,1.53-.71,2.5-.71s1.82,.24,2.56,.73c.74,.48,1.32,1.16,1.74,2.04s.63,1.89,.63,3.05-.21,2.17-.63,3.02-.99,1.52-1.73,1.98-1.59,.69-2.57,.69-1.8-.24-2.5-.71c-.7-.48-1.17-1.15-1.42-2.04l.24-.26v7.61h-2.22Zm5.39-6.36c1,0,1.77-.34,2.33-1.02,.56-.68,.84-1.65,.84-2.92s-.28-2.25-.84-2.96c-.56-.71-1.33-1.07-2.33-1.07s-1.81,.34-2.35,1.03c-.54,.69-.81,1.67-.81,2.95s.27,2.26,.81,2.95c.54,.69,1.33,1.03,2.35,1.03Z"/>
          <path class="cls-5" d="M112.3,138.36v-16.19h2.22v16.19h-2.22Z"/>
          <path class="cls-5" d="M127.03,137.08c-.5,.44-1.13,.79-1.89,1.04s-1.54,.38-2.33,.38c-1.17,0-2.19-.23-3.04-.68s-1.5-1.11-1.96-1.98c-.46-.87-.68-1.89-.68-3.08s.22-2.15,.67-3.01c.45-.87,1.07-1.54,1.86-2.02s1.71-.73,2.75-.73,1.86,.22,2.57,.66,1.27,1.07,1.66,1.88,.58,1.79,.58,2.94v.37h-8.16l.02-1.32h6.84l-.64,.79c.01-1.19-.22-2.1-.7-2.73-.48-.63-1.2-.95-2.13-.95-.98,0-1.75,.35-2.31,1.04-.56,.7-.84,1.67-.84,2.92,0,1.39,.3,2.43,.9,3.11,.6,.68,1.48,1.02,2.64,1.02,.63,0,1.24-.1,1.83-.31,.59-.21,1.14-.52,1.67-.95l.68,1.58Z"/>
          <path class="cls-5" d="M49.16,164.93c-.81,0-1.57-.07-2.29-.21-.72-.14-1.39-.36-2-.65-.62-.29-1.17-.65-1.65-1.06l.79-1.69c.79,.62,1.6,1.06,2.41,1.34,.81,.28,1.73,.42,2.76,.42,1.17,0,2.08-.22,2.73-.67s.97-1.07,.97-1.86c0-.48-.15-.88-.46-1.19s-.74-.56-1.31-.75c-.57-.19-1.23-.37-1.99-.55-.82-.18-1.58-.38-2.27-.6-.69-.23-1.28-.51-1.78-.85-.5-.34-.88-.75-1.16-1.25-.27-.5-.41-1.11-.41-1.83,0-.89,.24-1.69,.73-2.4,.48-.7,1.16-1.25,2.03-1.64,.87-.39,1.9-.58,3.09-.58,.73,0,1.44,.07,2.11,.22,.67,.15,1.3,.36,1.87,.65,.57,.29,1.08,.63,1.52,1.05l-.84,1.69c-.7-.6-1.44-1.04-2.2-1.33-.76-.29-1.58-.43-2.44-.43-1.13,0-2.02,.23-2.66,.7-.65,.47-.97,1.12-.97,1.96,0,.51,.14,.93,.42,1.24s.69,.58,1.22,.78c.54,.21,1.18,.4,1.93,.57,.84,.19,1.61,.4,2.31,.63,.7,.23,1.32,.5,1.85,.81,.53,.32,.94,.71,1.23,1.19,.29,.48,.44,1.07,.44,1.77,0,.91-.24,1.7-.73,2.38-.48,.67-1.17,1.2-2.07,1.57-.89,.37-1.96,.56-3.19,.56Z"/>
          <path class="cls-5" d="M62.55,164.91c-1.11,0-2.08-.23-2.89-.7-.81-.47-1.44-1.13-1.88-1.98-.44-.85-.66-1.86-.66-3.01s.23-2.17,.68-3.05c.45-.87,1.1-1.55,1.92-2.04,.83-.48,1.81-.73,2.94-.73,.76,0,1.5,.12,2.22,.37,.72,.25,1.31,.6,1.76,1.06l-.68,1.61c-.51-.41-1.03-.72-1.55-.92-.52-.21-1.05-.31-1.59-.31-1.06,0-1.89,.34-2.5,1.03-.61,.69-.91,1.67-.91,2.95s.3,2.25,.9,2.93c.6,.67,1.44,1.01,2.51,1.01,.53,0,1.06-.1,1.58-.31,.53-.21,1.05-.51,1.56-.92l.68,1.61c-.47,.44-1.07,.78-1.8,1.03-.73,.25-1.5,.37-2.29,.37Z"/>
          <path class="cls-5" d="M68.71,164.76v-16.19h2.22v16.19h-2.22Z"/>
          <path class="cls-5" d="M83.45,163.48c-.5,.44-1.13,.79-1.89,1.04s-1.54,.38-2.33,.38c-1.17,0-2.19-.23-3.04-.68s-1.5-1.11-1.96-1.98c-.46-.87-.68-1.89-.68-3.08s.22-2.15,.67-3.01c.45-.87,1.07-1.54,1.86-2.02s1.71-.73,2.75-.73,1.86,.22,2.57,.66,1.27,1.07,1.66,1.88,.58,1.79,.58,2.94v.37h-8.16l.02-1.32h6.84l-.64,.79c.01-1.19-.22-2.1-.7-2.73-.48-.63-1.2-.95-2.13-.95-.98,0-1.75,.35-2.31,1.04-.56,.7-.84,1.67-.84,2.92,0,1.39,.3,2.43,.9,3.11,.6,.68,1.48,1.02,2.64,1.02,.63,0,1.24-.1,1.83-.31,.59-.21,1.14-.52,1.67-.95l.68,1.58Z"/>
          <path class="cls-5" d="M86.18,164.76v-7.96c0-.51-.01-1.03-.03-1.56-.02-.53-.07-1.05-.14-1.56h2.11l.26,2.79-.26-.11c.19-.97,.63-1.7,1.31-2.2,.68-.5,1.45-.75,2.3-.75,.21,0,.4,.01,.57,.04,.18,.03,.34,.07,.48,.11l-.04,2.02c-.4-.15-.83-.22-1.3-.22-.72,0-1.3,.15-1.74,.45s-.77,.7-.98,1.19c-.21,.49-.32,1.02-.32,1.57v6.18h-2.22Z"/>
          <path class="cls-5" d="M99.03,164.91c-1.1,0-2.06-.23-2.87-.7-.81-.47-1.44-1.13-1.88-1.99-.44-.86-.66-1.88-.66-3.07s.22-2.17,.66-3.04c.44-.87,1.07-1.53,1.88-2,.81-.47,1.77-.7,2.87-.7s2.03,.23,2.85,.7c.81,.47,1.44,1.14,1.89,2,.45,.87,.67,1.88,.67,3.04s-.22,2.21-.67,3.07-1.08,1.52-1.89,1.99-1.76,.7-2.85,.7Zm0-1.76c1,0,1.77-.34,2.32-1.01,.55-.67,.83-1.67,.83-2.99s-.27-2.26-.83-2.94c-.55-.68-1.32-1.02-2.32-1.02s-1.78,.34-2.34,1.02c-.56,.68-.85,1.66-.85,2.94s.28,2.32,.83,2.99c.55,.67,1.34,1.01,2.37,1.01Z"/>
          <path class="cls-5" d="M110.91,164.91c-1.94,0-3.47-.47-4.6-1.41l.68-1.61c.59,.45,1.21,.79,1.86,1,.65,.21,1.36,.32,2.12,.32s1.34-.13,1.74-.38c.4-.26,.59-.62,.59-1.09,0-.4-.14-.71-.41-.94-.27-.23-.73-.42-1.38-.58l-1.87-.44c-.97-.21-1.71-.57-2.21-1.09-.51-.52-.76-1.17-.76-1.95,0-.66,.18-1.24,.55-1.74,.37-.5,.88-.89,1.54-1.18,.66-.29,1.43-.43,2.31-.43,.79,0,1.54,.12,2.24,.36,.7,.24,1.31,.6,1.83,1.07l-.68,1.56c-.54-.43-1.1-.74-1.66-.96-.57-.21-1.14-.32-1.73-.32-.72,0-1.28,.14-1.67,.41-.4,.27-.59,.65-.59,1.13,0,.4,.12,.71,.36,.94,.24,.23,.65,.41,1.22,.54l1.87,.46c1.07,.23,1.85,.61,2.35,1.12,.5,.51,.75,1.17,.75,1.98,0,.98-.4,1.76-1.2,2.34-.8,.58-1.89,.87-3.27,.87Z"/>
          <path class="cls-5" d="M117.82,148.83h2.57v2.33h-2.57v-2.33Zm.15,15.93v-11.09h2.22v11.09h-2.22Z"/>
          <path class="cls-5" d="M127.32,164.91c-1.94,0-3.47-.47-4.6-1.41l.68-1.61c.59,.45,1.21,.79,1.86,1,.65,.21,1.36,.32,2.12,.32s1.34-.13,1.74-.38c.4-.26,.59-.62,.59-1.09,0-.4-.14-.71-.41-.94-.27-.23-.73-.42-1.38-.58l-1.87-.44c-.97-.21-1.71-.57-2.21-1.09-.51-.52-.76-1.17-.76-1.95,0-.66,.18-1.24,.55-1.74,.37-.5,.88-.89,1.54-1.18,.66-.29,1.43-.43,2.31-.43,.79,0,1.54,.12,2.24,.36,.7,.24,1.31,.6,1.83,1.07l-.68,1.56c-.54-.43-1.1-.74-1.66-.96-.57-.21-1.14-.32-1.73-.32-.72,0-1.28,.14-1.67,.41-.4,.27-.59,.65-.59,1.13,0,.4,.12,.71,.36,.94,.24,.23,.65,.41,1.22,.54l1.87,.46c1.07,.23,1.85,.61,2.35,1.12,.5,.51,.75,1.17,.75,1.98,0,.98-.4,1.76-1.2,2.34-.8,.58-1.89,.87-3.27,.87Z"/>
        </g>
        <g id="Group_369" data-name="Group 369">
          <circle id="Ellipse_54" data-name="Ellipse 54" class="cls-2" cx="87.5" cy="54.24" r="50"/>
          <g id="Group_368" data-name="Group 368">
            <path id="Path_296" data-name="Path 296" class="cls-1" d="M82.83,83.14c-1.29-.88-2.23-2.02-3.78-2.26-.91-.14-1.26-1-1.12-1.94,.09-.79,.77-1.39,1.57-1.39,.8-.13,1.55,.38,1.73,1.17,.61,2.66,2.9,3.14,4.97,3.55,1.82,.25,3.68,.16,5.47-.26-1.65-.97-3.1-2.4-5.2-1.27-.72,.36-1.6,.09-1.99-.62-.5-.62-.46-1.52,.09-2.09,.54-.65,1.38-.99,2.02-.47,1.87,1.55,4.43,1.42,6.48,3.06,.18-1.2,.03-2.43-.43-3.56-.4-.77-.09-1.71,.67-2.11,.01,0,.03-.01,.04-.02,.65-.46,1.54-.36,2.08,.22,.68,.66,.88,1.56,.21,2.22-.91,.7-1.12,1.98-.5,2.94,.61,1.12,1.85,1.76,3.12,1.6,.99,.08,1.98-.13,2.85-.62-.79-1.23-1.59-2.45-1.65-3.95-.03-.74-.53-.61-1.01-.63-.92,.04-1.7-.67-1.74-1.6,0-.03,0-.06,0-.09-.07-.88,.57-1.65,1.44-1.76,1.05-.18,1.6,.46,2.06,1.34,.58,1.27,1.02,2.61,1.28,3.98,.62-.5,1.09-1.16,1.37-1.9,.33-.81,1.23-1.23,2.06-.95,.78,.17,1.31,.9,1.23,1.7,.06,.85-.58,1.59-1.43,1.65-.02,0-.04,0-.06,0-.63,.07-1.36-.05-1.05,.96,.31,1.02,.97,.49,1.47,.23,1.26-.66,2.68-1.18,2.05-3.18-.05-.69,.16-1.38,.59-1.93,.92-1.42,.89-3.14,1.45-4.55,1.17-2.92-.13-5.48-1.16-7.59-.92-1.89-2.04-4.24-4.67-5.28-1.78-.77-3.63-1.33-5.54-1.68-3.94-.62-8.24-.53-11.52-3.58-1.09-.89-1.95-2.03-2.49-3.33-1.07-2.82-3.36-4.99-6.24-5.9-1.63-.53-5.03,1.93-5.32,3.67-.13,.75,.25,1.97-1,1.84-1.16-.12-.4-1.41-.91-2.17-.95,1.18-1.85,2.42-2.89,3.54-.37,.4-.78,1.43-1.59,.72s-.19-1.28,.42-1.83c.65-.42,1.1-1.08,1.26-1.84-1.19-.28-1.97,.47-2.78,1.05-.34,.33-.88,.32-1.2-.02-.02-.02-.03-.04-.05-.06-.54-.49-.29-.84,.14-1.16,.57-.43,.94-.81,.13-1.39-.28-.2-.76-.51-.29-.96,.42-.39,.89-.65,1.46-.2,1.4,1.08,2.92,.99,4.49,.42-.03-.16-.01-.32-.08-.42-.47-.63-2.03-.85-1.18-1.94,.74-.96,1.69,.08,2.21,.62,1.01,1.07,1.79,.76,2.85,.13,1.16-.7,1.04-1.56,.8-2.65-.45-2.08-1.59-3.28-3.78-3.36-2.14-.07-4.33-.38-5.62,2.01-.36,.68-.33,2.18-1.64,1.56-1.19-.56-.05-1.5,.07-2.28,0-.13,0-.27-.02-.4-.37-.34-.8-.13-1.17-.03-.72,.2-1.05-.12-1.19-.74-.16-.72,.45-.8,.88-.88,1.75-.37,3.51-.67,5.43-1.03-1.29-1.45-2.55-2.83-3.78-4.25-.4-.46-.85-.95-.04-1.53,.74-.53,.95,.07,1.29,.46,.61,.72,1.2,1.45,1.93,2.33,.42-.79,.56-1.71,.39-2.59-.01-.63,.09-1.09,.8-1.19,.87-.13,.84,.52,.86,1.06,.14,.75,.12,1.51-.04,2.25-.67,1.68,0,2.58,1.46,3.19,1.16,.48,2.45,1.61,3.56,.4,1.09-1.19,2.61-2.43,1.87-4.48-1.33-3.71-3.39-5.51-6.98-5.14-.57,.06-1.04,.11-1.23-.67-.22-.87,.48-.81,.98-1.1-1.05-.79-2.27-.94-3.41-1.3-.59-.19-1-.33-.85-1.1,.16-.87,.68-.69,1.22-.54,.78,.21,1.56,.42,2.61,.71-.36-.97-.63-1.7-.92-2.43-.2-.52-.49-1.04,.36-1.3,.73-.22,.98,.18,1.19,.76,.47,1.37,1.14,2.66,2,3.83,.36,.36,.73,.7,1.13,1.01-.33-1.47-.54-2.45-.76-3.42-.1-.45-.03-.8,.49-.95,.54-.16,.91-.11,1.1,.53,.34,1.33,.61,2.68,.79,4.04,.16,1.02,.08,2.7,2.08,1.31,.76-.53,1.57,.17,1.12,1.15-.8,1.76,.51,3.01,.87,4.48,.18,.72,.85,.62,1.37,.57,.58-.06,.45-.58,.47-.97,.06-1.31,.15-2.61,.17-3.92,.12-1.49-.67-2.91-1.99-3.59-.76-.4-1.1-.96-.63-1.63,.51-.72,1.12,0,1.6,.24,.61,.38,1.2,.81,1.74,1.28-.01-1.23-.44-2.41-1.21-3.37-.4-.62-.22-1.01,.31-1.38,.63-.44,.87,.09,1.1,.48,.51,.87,.97,1.78,1.48,2.71,1.02-.96,1.78-2.17,2.2-3.52,.23-.61,.45-.98,1.17-.74,.78,.25,.62,.78,.42,1.33-.68,1.74-1.68,3.32-2.96,4.67-2.14,2.4-1.84,5.37-1.58,8.25,.09,.99,2.11,1.41,3.16,.61,3.27-2.46,5.5-5.56,5.68-9.84,.03-.77-.68-2.1,.76-2.14s.65,1.34,.9,2.07c.06,.17,.09,.35,.16,.61,.79-.78,.93-1.74,1.24-2.63,.1-.45,.55-.73,.99-.63,.04,.01,.09,.02,.13,.04,.68,.16,.65,.6,.46,1.1-.45,1.21-.91,2.42-1.43,3.82,1.51-.16,2.08-1.2,2.64-2.27,.34-.66,.3-1.95,1.48-1.46,1.12,.47,.11,1.38,.04,2.09-.04,.38-.5,.66-.3,1.24,1.06,.13,2.12,.32,3.16,.57,.54,.15,1.59,0,1.33,1.13-.25,1.06-.96,.63-1.63,.47-2.79-.73-5.74-.38-8.28,.98,1.86,.48,3.54,.6,4.85,1.67,.34,.28,.97,.47,.48,1.1-.25,.46-.81,.63-1.27,.38-.04-.02-.07-.04-.1-.06-3.94-1.87-7.44-.85-9.7,2.77-.61,.88-.66,2.03-.13,2.96,.61,1.04,1.47,.32,2.19,.09,1.87-.59,4.31-.51,4.15-3.53-.02-.47,.55-.55,.97-.56,.62-.03,.66,.48,.59,.86-.34,1.83,.84,1.53,1.96,1.53,.52,0,1.49-.56,1.51,.68,.02,1.05-.75,.93-1.44,.94-.89,0-1.78,.19-2.61,.54,.07,.12,.15,.22,.24,.33,.61,.58,2.28,.43,1.79,1.69-.58,1.51-1.57-.06-2.39-.09-.26-.02-.52-.07-.78-.13-.21,.61,.19,.97,.36,1.39,.17,.43,.23,.79-.29,1.01-.47,.2-.86,.32-1.2-.29-.64-1.14-.97-2.85-2.87-2.27-1.77,.54-2.43,2.1-2.97,3.71-.41,1.47-.34,3.04,.2,4.47,.21,.71,.49,1.19,1.45,.96,.91-.18,1.85,.18,2.41,.93,2.04,2.6,5.11,2.15,7.8,2.65,3.97,.74,8.2,.83,11.34,3.75,5.03,4.66,7.69,10.29,6.19,17.34-.23,1.71-.69,3.38-1.36,4.96-.75,1.46-1.42,3.05-3.57,2.87-.74-.06-1.12,.73-1.68,1.12-3.4,2.35-6.64,4.93-9.71,7.7-1.99,1.71-4.5,2.69-7.13,2.79-.86,.14-1.68-.4-1.89-1.24-.26-.67-.01-1.43,.59-1.83,.75-.54,1.73-.62,2.23,.15,1.03,1.55,2.16,.96,3.14,.24,2.2-1.61,4.3-3.38,6.89-5.43-4.15,.36-7.67,.76-11.22,.45-.72-.06-1.36,.03-1.62,.9-.57,1.92-2.25,3.09-3.27,4.71-.39,.71-1.27,.98-1.99,.61-.75-.25-1.23-1-1.12-1.79,.12-.92,.8-1.72,1.64-1.54,2.18,.45,2.37-1.18,3.16-2.58-2.6,.3-5.1,1.18-7.31,2.59-.49,.25-.84,.72-.94,1.27-.15,.93-1.03,1.56-1.96,1.41-.84-.14-1.45-.87-1.43-1.72,0-1.08,.64-1.57,1.67-1.73,2.17-.35,3.62-2.17,5.77-2.73Zm-.43-38.76c.24-1.27,.14-2.41,.65-3.11,1.47-2.05,1.18-4.02,.33-6.15-.22-.55-.26-.98-.95-1.09-1.22-.19-2.42-.49-3.64-.7-1.27-.22-4.81,3.13-4.26,4.21,.67,1.3,.53,3.53,1.92,3.82,2.22,.47,4.27,1.52,5.95,3.04h0Zm22.97,12.49c.77-.07,.98-.56,.73-1.27-.31-.88-3.08-2.1-3.95-1.8-.61,.21-.49,.6-.24,.95,.81,1.16,2.07,1.93,3.47,2.12h0Zm-7.92-4.31c-.67,.16-1.68-.34-1.67,.74,.02,1.36,1.28,1.21,2.15,1.28,.73,.06,2,.36,1.92-.82-.09-1.39-1.62-.81-2.4-1.21Zm10.63,4.38c-1.69,1.3-.83,2.42,.09,3.53,.32,.39,.7,.67,1.23,.35,.42-.27,.58-.81,.37-1.27-.28-1.02-.88-1.93-1.69-2.61h0Zm1.9,6.64c.46,.88,.03,2.5,1.61,2.83,.61,.13,.84-.68,.67-1.24-.33-1.11-.17-2.58-1.57-3.02-.42-.13-.84,.61-.71,1.42h0Zm1.52,11.71c.29-.95-.23-1.19-.69-1.11-1.49,.25-1.6,1.66-2.06,2.74-.18,.33-.07,.74,.26,.93,.12,.06,.25,.09,.38,.09,1.54-.28,1.65-1.78,2.11-2.64h0Zm1.34-5.97c-.19-.31,.27-.97-.36-1.15s-1.04,.3-1.22,.85c-.34,1.03-.87,2.06-.43,3.18,.13,.29,.48,.42,.77,.29,.04-.02,.08-.04,.12-.07,.99-.75,.93-1.92,1.13-3.09h0Zm-21.37-17.61c-.59,.1-1.39-.31-1.6,.55-.26,1.04,.73,.97,1.3,1.17,.84,.29,1.72,.58,2.57,.03,.28-.14,.39-.49,.25-.76-.02-.04-.05-.09-.08-.12-.65-.72-1.59-.69-2.43-.86h0Zm-3-1.04c-.45-.74-.91-1.58-2-1.65-.41-.03-.92,.26-.71,.73,.45,.85,1.24,1.47,2.17,1.7,.47,.16,.43-.36,.55-.79h0Z"/>
          </g>
        </g>
      </g>
    </g>
  </g>
</svg>