<svg xmlns="http://www.w3.org/2000/svg" width="136.333" height="136.333" viewBox="0 0 136.333 136.333">
  <defs>
    <style>
      .cls-1 {
        fill: #fba474;
      }

      .cls-2 {
        fill: #fff;
      }
    </style>
  </defs>
  <g id="Group_375" data-name="Group 375" transform="translate(-712.656 -349.324)">
    <circle id="Ellipse_57" data-name="Ellipse 57" class="cls-1" cx="68.167" cy="68.167" r="68.167" transform="translate(712.656 349.324)"/>
    <g id="Group_374" data-name="Group 374" transform="translate(740.615 377.799)">
      <path id="Path_308" data-name="Path 308" class="cls-2" d="M846.419,417.3a16.11,16.11,0,0,1-1.049,1.684c-6.407,8.007-10.573,17.137-13.674,26.84-2.958,9.257-9.087,15.687-18.023,19.427a69.215,69.215,0,0,1-7.915,2.92,80.928,80.928,0,0,0-21.056,9.783c-.851.534-1.784,1.705-2.815.806-1.11-.968-.007-2,.579-2.789,3.875-5.19,3.867-11.1,3.013-17.05-2.81-19.581,14.673-40.674,36.969-37.488,7.531,1.076,14.352-1.621,21.062-4.577C844.533,416.408,845.582,415.53,846.419,417.3Zm-17.145,11c-4.387,2.079-9.075,3.234-13.6,4.865a31.751,31.751,0,0,0-17.148,14.616c-3.364,5.849-4.942,12.351-7.144,18.856,21.07-11.687,32.052-21.71,37.345-34.245-1.644,1.281-2.975,2.347-4.339,3.371-.683.512-1.528,1.325-2.291.453-.94-1.074.153-1.695.9-2.293A35.874,35.874,0,0,0,829.274,428.3ZM791.847,457.33q.88-2.281,1.761-4.562c4.516-11.617,12.52-19.474,24.643-22.927a59.569,59.569,0,0,0,5.794-1.959,23.4,23.4,0,0,0,7.484-4.342c-4.4,1.15-8.728.053-13.062-.028-19.01-.356-34.34,18.482-30.157,37.529.139-.786.222-1.22.292-1.655,1.05-6.589,2.818-12.922,6.815-18.406.6-.828,1.254-2.5,2.644-1.342,1.228,1.02-.266,1.884-.8,2.662A30.641,30.641,0,0,0,791.847,457.33Zm-.7,13.959c6.687-3.682,14.151-4.989,21.029-7.875,8.673-3.638,14.621-9.684,17.465-18.728a102.121,102.121,0,0,1,5.2-13.279c.551-1.158,1.46-2.2,1.536-3.979a51.634,51.634,0,0,0-7.76,10.274c-5.839,9.756-13.259,17.961-23.41,23.431-.6.326-1.414.488-1.763,1.568a35.037,35.037,0,0,0,11.884-6.842c.677-.568,1.442-1.284,2.212-.25.618.831-.083,1.434-.682,1.953a38.194,38.194,0,0,1-13.31,7.628c-.667.217-1.657.555-1.834-.127-.691-2.67-2.045-.963-2.974-.458A22.686,22.686,0,0,0,791.148,471.288Z" transform="translate(-770.349 -406.738)"/>
      <path id="Path_309" data-name="Path 309" class="cls-2" d="M813,410.9c-7.072-.662-13.981-.218-20.452,3.155-13.195,6.879-19.836,17.777-19.389,32.628a56.826,56.826,0,0,1-6.536,28.366,19.2,19.2,0,0,1-1.313,2.267,1.749,1.749,0,0,1-2.309.674,1.829,1.829,0,0,1-.927-2.469,13.577,13.577,0,0,1,.915-1.817,53.437,53.437,0,0,0,6.262-25.763c-.333-19.072,8.831-32.757,25.363-38.963,6.48-2.433,13.176-2.435,19.881-1.833,8.448.758,16.029-1.064,22.587-6.6,1.115-.942,2.367-1.719,3.49-.169,1,1.377-.048,2.283-1.072,3.148C831.792,410.032,822.83,412.006,813,410.9Z" transform="translate(-761.919 -399.497)"/>
      <path id="Path_310" data-name="Path 310" class="cls-2" d="M853.647,414.085a2.161,2.161,0,0,1-.843,1.78c-4.372,4.074-6.485,9.366-8.1,14.938-.677,2.333-1.4,4.652-2.141,6.967q-9.08,28.511-37.9,36.588c-1.967.546-3.92,1.165-5.915,1.578-7.427,1.538-13.08,5.746-17.691,11.569-.242.305-.482.612-.709.928-.785,1.091-1.687,2.107-3.108,1.11-1.4-.98-.873-2.2-.052-3.3,4.844-6.488,10.813-11.423,18.791-13.581,3.377-.913,6.778-1.751,10.116-2.789,16.127-5.019,26.711-15.758,32.251-31.581,1.669-4.767,3.015-9.647,4.69-14.411a26.888,26.888,0,0,1,6.967-10.654,2.309,2.309,0,0,1,2.616-.758A1.6,1.6,0,0,1,853.647,414.085Z" transform="translate(-768.172 -405.037)"/>
      <path id="Path_311" data-name="Path 311" class="cls-2" d="M832.719,456.164c0,.949-.688,1.238-1.224,1.619-6.346,4.514-12.339,9.417-17.168,15.6-.519.664-1.148,1.228-1.947.63-.83-.621-.377-1.38.12-2.025,5.041-6.524,11.339-11.662,18.054-16.334C831.469,455.016,832.353,454.859,832.719,456.164Z" transform="translate(-783.543 -423.576)"/>
      <path id="Path_312" data-name="Path 312" class="cls-2" d="M837.761,434.723c.024.926-.655,1.086-1.344,1.2-4.9.814-9.15,3.119-13.269,5.734-.751.477-1.622,1.076-2.285.093-.544-.808.136-1.451.827-1.892,4.272-2.728,8.653-5.224,13.759-6.04C837.114,433.553,837.714,433.838,837.761,434.723Z" transform="translate(-787.324 -414.299)"/>
    </g>
  </g>
</svg>
