<?xml version="1.0" encoding="UTF-8"?>
<svg id="Layer_2" data-name="Layer 2" xmlns="http://www.w3.org/2000/svg" xmlns:xlink="http://www.w3.org/1999/xlink" viewBox="0 0 175 175">
  <defs>
    <style>
      .cls-1 {
        fill: #fff;
      }

      .cls-2 {
        fill: #fba474;
      }

      .cls-3 {
        clip-path: url(#clippath);
      }

      .cls-4 {
        fill: none;
      }

      .cls-5 {
        fill: #58849b;
      }
    </style>
    <clipPath id="clippath">
      <rect class="cls-4" width="175" height="175"/>
    </clipPath>
  </defs>
  <g id="Layer_1-2" data-name="Layer 1">
    <g class="cls-3">
      <g>
        <g>
          <path class="cls-5" d="M26.42,137.41v-15.66h6.45c1.73,0,3.05,.38,3.96,1.14,.91,.76,1.36,1.86,1.36,3.28s-.47,2.44-1.4,3.23c-.93,.79-2.23,1.19-3.91,1.19l1.67-.33c.56,0,1.04,.16,1.46,.47s.75,.82,1,1.51l1.96,5.17h-2.4l-1.96-5.21c-.22-.59-.54-.98-.95-1.18-.41-.2-.94-.3-1.58-.3h-3.43v6.69h-2.24Zm2.24-8.51h3.94c1.16,0,2.01-.22,2.56-.67s.83-1.12,.83-2.01-.27-1.56-.81-1.99c-.54-.43-1.4-.65-2.57-.65h-3.94v5.32Z"/>
          <path class="cls-5" d="M41.53,137.41v-16.19h2.22v7.35l-.31,.13c.32-.87,.84-1.52,1.55-1.97,.71-.45,1.53-.67,2.45-.67,2.65,0,3.98,1.49,3.98,4.47v6.89h-2.22v-6.8c0-.95-.19-1.65-.57-2.09-.38-.44-.97-.66-1.76-.66-.95,0-1.71,.29-2.28,.88-.56,.59-.85,1.37-.85,2.35v6.31h-2.22Z"/>
          <path class="cls-5" d="M63.86,136.14c-.5,.44-1.13,.79-1.89,1.04-.76,.26-1.54,.38-2.33,.38-1.17,0-2.19-.23-3.04-.68-.85-.46-1.5-1.12-1.96-1.98-.46-.87-.68-1.89-.68-3.08s.22-2.15,.67-3.01,1.07-1.54,1.86-2.02c.79-.48,1.71-.73,2.75-.73s1.86,.22,2.57,.66c.72,.44,1.27,1.07,1.66,1.88,.39,.81,.58,1.79,.58,2.94v.37h-8.16l.02-1.32h6.84l-.64,.79c.01-1.19-.22-2.1-.7-2.73-.48-.63-1.2-.95-2.13-.95-.98,0-1.75,.35-2.31,1.04-.56,.7-.84,1.67-.84,2.92,0,1.39,.3,2.43,.9,3.11,.6,.68,1.48,1.02,2.64,1.02,.63,0,1.24-.1,1.83-.31,.59-.21,1.14-.52,1.67-.95l.68,1.58Z"/>
          <path class="cls-5" d="M70.55,137.57c-1.33,0-2.34-.37-3.01-1.11-.67-.74-1.01-1.85-1.01-3.33v-6.8h2.22v6.78c0,.91,.19,1.58,.56,2.01s.95,.65,1.73,.65c.89,0,1.62-.29,2.17-.88,.55-.59,.83-1.36,.83-2.33v-6.23h2.22v11.09h-2.16v-2.35l.26-.09c-.31,.85-.8,1.5-1.47,1.94-.67,.44-1.45,.66-2.33,.66Z"/>
          <path class="cls-5" d="M79.46,137.41v-7.96c0-.51-.01-1.03-.03-1.56-.02-.53-.07-1.05-.14-1.56h2.11l.2,2.24-.22,.09c.28-.82,.74-1.46,1.39-1.91,.64-.45,1.42-.68,2.31-.68,1.06,0,1.88,.26,2.48,.78,.59,.52,.98,1.32,1.15,2.41l-.53-.37c.25-.87,.73-1.55,1.44-2.06,.71-.51,1.55-.76,2.52-.76,1.23,0,2.16,.37,2.77,1.11,.62,.74,.92,1.86,.92,3.36v6.89h-2.22v-6.8c0-.95-.17-1.65-.5-2.09-.33-.44-.86-.66-1.59-.66-.85,0-1.52,.29-2.01,.88-.49,.59-.74,1.39-.74,2.4v6.27h-2.22v-6.8c0-.95-.17-1.65-.51-2.09-.34-.44-.87-.66-1.58-.66-.87,0-1.54,.29-2.03,.88-.49,.59-.74,1.39-.74,2.4v6.27h-2.22Z"/>
          <path class="cls-5" d="M103.29,137.57c-.98,0-1.84-.23-2.59-.69-.74-.46-1.31-1.12-1.72-1.98-.4-.86-.6-1.87-.6-3.03s.21-2.17,.62-3.05c.41-.87,.99-1.55,1.73-2.04,.74-.48,1.59-.73,2.56-.73s1.82,.24,2.52,.71c.7,.48,1.17,1.16,1.42,2.04l-.26,.18v-2.66h2.2v11.09h-2.2v-2.71l.26,.11c-.25,.88-.72,1.56-1.42,2.04-.7,.48-1.54,.71-2.52,.71Zm.53-1.76c1,0,1.77-.34,2.32-1.03s.83-1.67,.83-2.95-.28-2.26-.83-2.95c-.55-.69-1.32-1.03-2.32-1.03s-1.8,.36-2.37,1.07c-.56,.71-.85,1.7-.85,2.96s.28,2.23,.85,2.92c.56,.68,1.35,1.02,2.37,1.02Z"/>
          <path class="cls-5" d="M110.92,128.04v-1.72h7.44v1.72h-7.44Zm7.41,7.48v1.8c-.26,.09-.53,.15-.79,.19-.26,.04-.55,.05-.86,.05-1.13,0-2.01-.32-2.65-.96s-.96-1.58-.96-2.83v-10.23l2.22-.77v10.82c0,.54,.08,.96,.24,1.26,.16,.3,.38,.51,.67,.64,.29,.12,.61,.19,.96,.19,.21,0,.4-.01,.57-.04s.37-.07,.59-.13Z"/>
          <path class="cls-5" d="M125.18,137.57c-1.1,0-2.06-.23-2.87-.7-.81-.47-1.44-1.13-1.88-1.99-.44-.86-.66-1.88-.66-3.07s.22-2.17,.66-3.04c.44-.87,1.07-1.53,1.88-2,.81-.47,1.77-.7,2.87-.7s2.03,.23,2.85,.7,1.44,1.14,1.89,2,.67,1.88,.67,3.04-.22,2.21-.67,3.07c-.45,.86-1.08,1.52-1.89,1.99-.81,.47-1.76,.7-2.85,.7Zm0-1.76c1,0,1.77-.34,2.32-1.01,.55-.67,.83-1.67,.83-2.99s-.27-2.26-.83-2.94c-.55-.68-1.32-1.02-2.32-1.02s-1.78,.34-2.34,1.02-.85,1.66-.85,2.94,.28,2.32,.83,2.99c.55,.67,1.34,1.01,2.37,1.01Z"/>
          <path class="cls-5" d="M133.01,121.48h2.57v2.33h-2.57v-2.33Zm.15,15.93v-11.09h2.22v11.09h-2.22Z"/>
          <path class="cls-5" d="M148.78,137.41h-2.2v-2.9l.26,.31c-.25,.88-.72,1.56-1.42,2.04-.7,.48-1.54,.71-2.52,.71s-1.82-.24-2.56-.71c-.74-.48-1.32-1.15-1.73-2.02-.41-.87-.62-1.9-.62-3.07s.2-2.16,.6-3.01,.98-1.51,1.72-1.98c.74-.47,1.6-.7,2.59-.7s1.82,.24,2.52,.73c.7,.48,1.17,1.16,1.42,2.02l-.29,.26v-7.85h2.22v16.19Zm-5.35-1.61c1,0,1.77-.34,2.32-1.03s.83-1.68,.83-2.97-.28-2.22-.83-2.92c-.55-.7-1.32-1.04-2.32-1.04s-1.8,.34-2.37,1.02-.85,1.65-.85,2.89,.28,2.29,.85,2.99,1.35,1.06,2.37,1.06Z"/>
          <path class="cls-5" d="M41.69,163.81h-2.31l6.97-15.66h1.91l6.97,15.66h-2.29l-5.96-13.95h.7l-6.01,13.95Zm.7-3.87l.84-1.8h8.12l.81,1.8h-9.77Z"/>
          <path class="cls-5" d="M57.06,163.81v-7.96c0-.51-.01-1.03-.03-1.56-.02-.53-.07-1.05-.14-1.56h2.11l.26,2.79-.26-.11c.19-.97,.63-1.7,1.31-2.2,.68-.5,1.45-.75,2.3-.75,.21,0,.4,.01,.57,.04,.18,.03,.34,.07,.48,.11l-.04,2.02c-.4-.15-.83-.22-1.3-.22-.72,0-1.3,.15-1.74,.45s-.77,.7-.98,1.19c-.21,.49-.32,1.02-.32,1.57v6.18h-2.22Z"/>
          <path class="cls-5" d="M64.81,154.44v-1.72h7.44v1.72h-7.44Zm7.41,7.48v1.8c-.26,.09-.53,.15-.79,.19-.26,.04-.55,.05-.86,.05-1.13,0-2.01-.32-2.65-.96-.64-.64-.96-1.58-.96-2.83v-10.23l2.22-.77v10.82c0,.54,.08,.96,.24,1.27s.38,.51,.67,.64c.29,.12,.61,.19,.96,.19,.21,0,.4-.01,.57-.04s.37-.07,.59-.13Z"/>
          <path class="cls-5" d="M74.27,163.81v-16.19h2.22v7.35l-.31,.13c.32-.87,.84-1.52,1.55-1.97,.71-.45,1.53-.67,2.45-.67,2.65,0,3.98,1.49,3.98,4.47v6.89h-2.22v-6.8c0-.95-.19-1.65-.57-2.09-.38-.44-.97-.66-1.76-.66-.95,0-1.71,.29-2.28,.88s-.85,1.37-.85,2.35v6.31h-2.22Z"/>
          <path class="cls-5" d="M96.6,162.54c-.5,.44-1.13,.79-1.89,1.04-.76,.26-1.54,.38-2.33,.38-1.17,0-2.19-.23-3.04-.68-.85-.45-1.5-1.11-1.96-1.98-.46-.87-.68-1.89-.68-3.08s.22-2.15,.67-3.01c.45-.87,1.07-1.54,1.86-2.02,.79-.48,1.71-.73,2.75-.73s1.86,.22,2.57,.66c.72,.44,1.27,1.07,1.66,1.88,.39,.81,.58,1.79,.58,2.94v.37h-8.16l.02-1.32h6.84l-.64,.79c.01-1.19-.22-2.1-.7-2.73-.48-.63-1.2-.95-2.13-.95-.98,0-1.75,.35-2.31,1.04s-.84,1.67-.84,2.92c0,1.39,.3,2.43,.9,3.11,.6,.68,1.48,1.02,2.64,1.02,.63,0,1.24-.1,1.83-.31,.59-.21,1.14-.52,1.67-.95l.68,1.58Z"/>
          <path class="cls-5" d="M99.33,163.81v-7.96c0-.51-.01-1.03-.03-1.56-.02-.53-.07-1.05-.14-1.56h2.11l.26,2.79-.26-.11c.19-.97,.63-1.7,1.31-2.2,.68-.5,1.45-.75,2.3-.75,.21,0,.4,.01,.57,.04,.18,.03,.34,.07,.48,.11l-.04,2.02c-.4-.15-.83-.22-1.3-.22-.72,0-1.3,.15-1.74,.45s-.77,.7-.98,1.19c-.21,.49-.32,1.02-.32,1.57v6.18h-2.22Z"/>
          <path class="cls-5" d="M107.44,147.88h2.57v2.33h-2.57v-2.33Zm.15,15.93v-11.09h2.22v11.09h-2.22Z"/>
          <path class="cls-5" d="M111.58,154.44v-1.72h7.44v1.72h-7.44Zm7.41,7.48v1.8c-.26,.09-.53,.15-.79,.19-.26,.04-.55,.05-.86,.05-1.13,0-2.01-.32-2.65-.96-.64-.64-.96-1.58-.96-2.83v-10.23l2.22-.77v10.82c0,.54,.08,.96,.24,1.27s.38,.51,.67,.64c.29,.12,.61,.19,.96,.19,.21,0,.4-.01,.57-.04s.37-.07,.59-.13Z"/>
          <path class="cls-5" d="M120.88,147.88h2.57v2.33h-2.57v-2.33Zm.15,15.93v-11.09h2.22v11.09h-2.22Z"/>
          <path class="cls-5" d="M130.39,163.97c-1.94,0-3.47-.47-4.6-1.41l.68-1.61c.59,.46,1.21,.79,1.86,1,.65,.21,1.36,.32,2.12,.32s1.34-.13,1.74-.38c.4-.26,.59-.62,.59-1.09,0-.4-.14-.71-.41-.93s-.73-.42-1.38-.58l-1.87-.44c-.97-.21-1.71-.57-2.21-1.09-.51-.52-.76-1.17-.76-1.95,0-.66,.18-1.24,.55-1.74,.37-.5,.88-.89,1.54-1.18,.66-.29,1.43-.43,2.31-.43,.79,0,1.54,.12,2.24,.36s1.31,.6,1.83,1.07l-.68,1.56c-.54-.42-1.1-.74-1.66-.96-.57-.21-1.14-.32-1.73-.32-.72,0-1.28,.14-1.67,.41-.4,.27-.59,.65-.59,1.13,0,.4,.12,.71,.36,.94,.24,.23,.65,.41,1.22,.54l1.87,.46c1.07,.23,1.85,.61,2.35,1.12s.75,1.17,.75,1.98c0,.98-.4,1.76-1.2,2.34-.8,.58-1.89,.87-3.27,.87Z"/>
        </g>
        <g id="Group_371" data-name="Group 371">
          <circle id="Ellipse_55" data-name="Ellipse 55" class="cls-2" cx="87.6" cy="55.18" r="50"/>
          <g id="Group_370" data-name="Group 370">
            <path id="Path_297" data-name="Path 297" class="cls-1" d="M91.52,93.58c0-4.8,.01-9.6,.02-14.4-.06-3.41,1.12-6.72,3.32-9.33,.49-.57,1.01-1.11,1.57-1.61,2.31-2.07,2.51-5.63,.43-7.94-1.75-1.95-4.6-2.43-6.9-1.17-1.44,.87-3.24,.87-4.68,0-2.72-1.5-6.13-.52-7.64,2.2-1.28,2.32-.77,5.23,1.24,6.96,3.13,2.75,4.89,6.73,4.82,10.89,0,4.8,.01,9.6,.02,14.4h-2.4c0-4.9,.03-9.79,0-14.69,.02-3.4-1.46-6.64-4.04-8.85-2.98-2.65-3.57-7.08-1.36-10.41,2.19-3.34,6.53-4.52,10.11-2.75,.99,.58,2.22,.58,3.21,0,3.58-1.77,7.92-.59,10.11,2.76,2.19,3.3,1.63,7.71-1.31,10.36-2.68,2.3-4.18,5.67-4.11,9.2,0,4.8,0,9.59,0,14.39h-2.4Z"/>
            <path id="Path_298" data-name="Path 298" class="cls-1" d="M93.91,24.79c0,2.17-.01,4.35,0,6.52-.05,3.45,1.43,6.75,4.04,9.01,3.31,2.91,3.64,7.95,.73,11.26-2.4,2.73-6.35,3.5-9.59,1.86-.9-.54-2.03-.54-2.94,0-3.6,1.86-8.03,.7-10.25-2.69-2.22-3.35-1.61-7.83,1.42-10.46,2.55-2.21,4.01-5.43,3.98-8.81,.04-4.65,.02-9.3,0-13.94,0-.58,.14-.76,.74-.75,1.65,.04,1.65,0,1.65,1.63,0,4.22-.01,8.45,0,12.67,.09,4.21-1.69,8.25-4.85,11.02-2.33,2.05-2.55,5.6-.5,7.93,1.73,1.97,4.59,2.47,6.89,1.23,1.46-.89,3.29-.9,4.75,0,2.72,1.49,6.14,.48,7.62-2.24,1.26-2.3,.75-5.17-1.21-6.9-3.17-2.77-4.95-6.81-4.86-11.02,0-4.52,.01-9.04-.01-13.57,0-.6,.17-.75,.75-.74,1.63,.03,1.63,0,1.63,1.63,0,2.12,0,4.25,0,6.37Z"/>
            <path id="Path_299" data-name="Path 299" class="cls-1" d="M67.45,56.37c-.77,0-1.54,0-2.32,0-.79,0-.49-.65-.42-.91,.13-.48-.57-1.36,.42-1.43,1.59-.1,3.19-.1,4.78,0,.95,.06,.35,.89,.43,1.35,.05,.31,.39,.98-.42,.99s-1.64,0-2.47,0Z"/>
            <path id="Path_300" data-name="Path 300" class="cls-1" d="M107.71,56.37c-.79,.06-1.59,.05-2.39-.03-.97-.18-.3-1.04-.44-1.57-.07-.28-.24-.79,.43-.78,1.59,.02,3.19,.02,4.78,0,.36,0,.45,.13,.47,.48,.1,1.9,.11,1.9-1.73,1.9-.37,0-.74,0-1.12,0Z"/>
            <path id="Path_301" data-name="Path 301" class="cls-1" d="M109.48,48.22c.04,.25-.12,.31-.29,.37-1.54,.56-3.09,1.12-4.63,1.69-.23,.09-.38,.09-.45-.18-.02-.07-.05-.14-.08-.21q-.67-1.68,1.01-2.3c1.07-.39,2.16-.77,3.23-1.18,.34-.13,.55-.13,.67,.28,.16,.52,.37,1.03,.55,1.53Z"/>
            <path id="Path_302" data-name="Path 302" class="cls-1" d="M109.49,62.13c-.22,.58-.42,1.2-.67,1.79-.11,.26-.35,.11-.52,.04-1.48-.53-2.95-1.09-4.43-1.6-.74-.26-.31-.76-.14-.99,.3-.41-.04-1.5,.93-1.21,1.5,.44,2.96,1.05,4.43,1.59,.18,.06,.42,.07,.4,.39Z"/>
            <path id="Path_303" data-name="Path 303" class="cls-1" d="M71.7,48.54l-.6,1.62c-.09,.24-.25,.17-.42,.1-1.54-.56-3.09-1.13-4.64-1.69-.05-.02-.13-.02-.14-.05-.28-.74,.32-1.27,.44-1.92,.06-.35,.3-.33,.57-.23,1.5,.55,3,1.09,4.49,1.64,.17,.06,.42,.08,.3,.52Z"/>
            <path id="Path_304" data-name="Path 304" class="cls-1" d="M70.94,60.01c.31,.57,.57,1.17,.75,1.8,.15,.31,0,.46-.28,.55-.21,.07-.43,.14-.64,.22-1.26,.46-2.53,.91-3.79,1.4-.39,.15-.55,.07-.7-.33-.65-1.69-.67-1.68,1.01-2.3,1.03-.38,2.06-.75,3.09-1.13,.14-.06,.28-.1,.56-.2Z"/>
          </g>
        </g>
      </g>
    </g>
  </g>
</svg>