<svg xmlns="http://www.w3.org/2000/svg" width="136" height="136" viewBox="0 0 136 136">
  <defs>
    <style>
      .cls-1 {
        fill: #fba474;
      }

      .cls-2 {
        fill: #fff;
      }
    </style>
  </defs>
  <g id="Group_371" data-name="Group 371" transform="translate(-355.83 -350.319)">
    <circle id="Ellipse_55" data-name="Ellipse 55" class="cls-1" cx="68" cy="68" r="68" transform="translate(355.83 350.319)"/>
    <g id="Group_370" data-name="Group 370" transform="translate(392.547 366.097)">
      <path id="Path_297" data-name="Path 297" class="cls-2" d="M467.7,523.552q.015-9.789.028-19.579a19.193,19.193,0,0,1,4.512-12.683,24.833,24.833,0,0,1,2.131-2.189,7.65,7.65,0,0,0-8.791-12.4,6.133,6.133,0,0,1-6.368,0,7.642,7.642,0,0,0-8.705,12.461,19.3,19.3,0,0,1,6.556,14.812q.015,9.79.031,19.579h-3.264c0-6.658.043-13.317-.008-19.975a15.672,15.672,0,0,0-5.5-12.036,10.883,10.883,0,0,1-1.854-14.155,10.735,10.735,0,0,1,13.744-3.745,4.291,4.291,0,0,0,4.362,0,10.726,10.726,0,0,1,13.745,3.747,10.864,10.864,0,0,1-1.782,14.086,16.046,16.046,0,0,0-5.586,12.513q.009,9.783.008,19.567Z" transform="translate(-431.086 -419.109)"/>
      <path id="Path_298" data-name="Path 298" class="cls-2" d="M470.946,389.08c0,2.956-.014,5.913,0,8.869A15.939,15.939,0,0,0,476.44,410.2a10.848,10.848,0,0,1-12.051,17.833,3.9,3.9,0,0,0-3.992-.01,10.746,10.746,0,0,1-13.934-3.658,10.87,10.87,0,0,1,1.934-14.224,15.69,15.69,0,0,0,5.417-11.975c.048-6.32.025-12.642-.006-18.962,0-.788.187-1.034,1-1.017,2.25.048,2.247.007,2.246,2.214,0,5.743-.014,11.486,0,17.229a19.379,19.379,0,0,1-6.6,14.993,7.642,7.642,0,0,0,8.693,12.453,6.183,6.183,0,0,1,6.458-.01,7.641,7.641,0,0,0,8.719-12.434,19.348,19.348,0,0,1-6.609-14.988c.013-6.151.02-12.3-.016-18.452-.005-.821.237-1.018,1.024-1,2.22.038,2.22,0,2.22,2.223Q470.945,384.748,470.946,389.08Z" transform="translate(-431.078 -378.189)"/>
      <path id="Path_299" data-name="Path 299" class="cls-2" d="M424.571,470.767c-1.05,0-2.1-.005-3.15,0-1.072.006-.672-.879-.576-1.244.173-.659-.769-1.852.574-1.944a51.726,51.726,0,0,1,6.5-.006c1.29.075.481,1.214.581,1.839.067.418.535,1.33-.575,1.35S425.689,470.768,424.571,470.767Z" transform="translate(-420.685 -416.926)"/>
      <path id="Path_300" data-name="Path 300" class="cls-2" d="M521.2,470.811a17.815,17.815,0,0,1-3.245-.04c-1.321-.249-.414-1.414-.6-2.142-.1-.378-.331-1.071.584-1.06,2.168.026,4.337.022,6.505,0,.494,0,.611.183.637.651.14,2.579.153,2.578-2.356,2.588C522.221,470.813,521.713,470.811,521.2,470.811Z" transform="translate(-462.57 -416.967)"/>
      <path id="Path_301" data-name="Path 301" class="cls-2" d="M522.386,451.742c.061.34-.163.415-.4.5-2.1.76-4.206,1.518-6.3,2.3-.315.117-.518.125-.613-.243a2.454,2.454,0,0,0-.113-.283c-.916-2.287-.918-2.29,1.372-3.131,1.462-.537,2.934-1.051,4.392-1.6.46-.174.745-.178.91.379C521.847,450.371,522.136,451.061,522.386,451.742Z" transform="translate(-461.338 -408.986)"/>
      <path id="Path_302" data-name="Path 302" class="cls-2" d="M522.238,485.026c-.293.791-.573,1.627-.915,2.437-.149.353-.474.143-.712.057-2.008-.724-4.006-1.477-6.022-2.178-1-.348-.425-1.028-.19-1.35.413-.564-.054-2.034,1.269-1.649,2.045.6,4.022,1.424,6.027,2.159C521.935,484.589,522.26,484.6,522.238,485.026Z" transform="translate(-461.178 -423.349)"/>
      <path id="Path_303" data-name="Path 303" class="cls-2" d="M431.622,452.167l-.811,2.207c-.123.333-.341.228-.577.141q-3.151-1.152-6.306-2.293c-.064-.023-.17-.029-.186-.07-.38-1,.433-1.727.592-2.607.087-.478.405-.45.772-.316,2.036.746,4.077,1.48,6.112,2.231C431.444,451.543,431.794,451.575,431.622,452.167Z" transform="translate(-421.968 -408.973)"/>
      <path id="Path_304" data-name="Path 304" class="cls-2" d="M430.64,482.026a12.426,12.426,0,0,1,1.022,2.443c.2.415,0,.623-.385.742-.292.089-.579.192-.865.3-1.719.628-3.443,1.241-5.151,1.9-.537.206-.744.1-.957-.453-.89-2.3-.913-2.289,1.375-3.126q2.1-.769,4.2-1.535C430.071,482.22,430.264,482.156,430.64,482.026Z" transform="translate(-422.012 -423.239)"/>
    </g>
  </g>
</svg>
