<?xml version="1.0" encoding="UTF-8"?>
<svg id="Layer_2" data-name="Layer 2" xmlns="http://www.w3.org/2000/svg" xmlns:xlink="http://www.w3.org/1999/xlink" viewBox="0 0 175 175">
  <defs>
    <style>
      .cls-1 {
        fill: #fff;
      }

      .cls-2 {
        fill: #fba474;
      }

      .cls-3 {
        clip-path: url(#clippath);
      }

      .cls-4 {
        fill: none;
      }

      .cls-5 {
        fill: #58849b;
      }
    </style>
    <clipPath id="clippath">
      <rect class="cls-4" width="175" height="175"/>
    </clipPath>
  </defs>
  <g id="Layer_1-2" data-name="Layer 1">
    <g class="cls-3">
      <g>
        <g>
          <path class="cls-5" d="M47.04,137.55c-.81,0-1.57-.07-2.29-.21-.72-.14-1.39-.36-2-.65-.62-.29-1.17-.65-1.65-1.06l.79-1.69c.79,.62,1.6,1.06,2.41,1.34,.81,.28,1.73,.42,2.76,.42,1.17,0,2.08-.22,2.73-.67s.97-1.07,.97-1.86c0-.48-.15-.88-.46-1.19s-.74-.56-1.31-.75c-.57-.19-1.23-.37-1.99-.55-.82-.18-1.58-.38-2.27-.6-.69-.23-1.28-.51-1.78-.85-.5-.34-.88-.75-1.16-1.25-.27-.5-.41-1.11-.41-1.83,0-.89,.24-1.69,.73-2.4,.48-.7,1.16-1.25,2.03-1.64,.87-.39,1.9-.58,3.09-.58,.73,0,1.44,.07,2.11,.22,.67,.15,1.3,.36,1.87,.65,.57,.29,1.08,.63,1.52,1.05l-.84,1.69c-.7-.6-1.44-1.04-2.2-1.33-.76-.29-1.58-.43-2.44-.43-1.13,0-2.02,.23-2.66,.7-.65,.47-.97,1.12-.97,1.96,0,.51,.14,.93,.42,1.24s.69,.58,1.22,.78c.54,.21,1.18,.4,1.93,.57,.84,.19,1.61,.4,2.31,.63,.7,.23,1.32,.5,1.85,.81,.53,.32,.94,.71,1.23,1.19,.29,.48,.44,1.07,.44,1.77,0,.91-.24,1.7-.73,2.38-.48,.67-1.17,1.2-2.07,1.57-.89,.37-1.96,.56-3.19,.56Z"/>
          <path class="cls-5" d="M52.74,140.19c.22,.06,.42,.1,.58,.13,.17,.03,.33,.04,.5,.04,.34,0,.65-.06,.92-.19,.28-.12,.5-.34,.65-.64,.15-.3,.23-.72,.23-1.27v-11.99h2.22v12.17c0,1.25-.31,2.19-.94,2.83-.62,.64-1.48,.96-2.58,.96-.26,0-.53-.01-.8-.04s-.53-.09-.78-.18v-1.83Zm2.71-18.74h2.57v2.33h-2.57v-2.33Z"/>
          <path class="cls-5" d="M65.87,137.53c-1.1,0-2.06-.23-2.87-.7-.81-.47-1.44-1.13-1.88-1.99-.44-.86-.66-1.88-.66-3.07s.22-2.17,.66-3.04c.44-.87,1.07-1.53,1.88-2,.81-.47,1.77-.7,2.87-.7s2.03,.23,2.85,.7c.81,.47,1.44,1.14,1.89,2,.45,.87,.67,1.88,.67,3.04s-.22,2.21-.67,3.07-1.08,1.52-1.89,1.99-1.76,.7-2.85,.7Zm0-1.76c1,0,1.77-.34,2.32-1.01,.55-.67,.83-1.67,.83-2.99s-.27-2.26-.83-2.94c-.55-.68-1.32-1.02-2.32-1.02s-1.78,.34-2.34,1.02c-.56,.68-.85,1.66-.85,2.94s.28,2.32,.83,2.99c.55,.67,1.34,1.01,2.37,1.01Z"/>
          <path class="cls-5" d="M78.83,142.28c-1.69,0-3.16-.37-4.42-1.1l.35-1.74c.69,.37,1.35,.64,1.98,.81,.63,.18,1.32,.26,2.07,.26,1.03,0,1.8-.26,2.33-.79,.53-.53,.79-1.32,.79-2.38v-2.88l.24-.15c-.18,.53-.45,1-.83,1.42s-.83,.74-1.36,.97c-.54,.23-1.13,.34-1.79,.34-.98,0-1.84-.23-2.58-.69-.74-.46-1.32-1.1-1.74-1.93-.42-.82-.63-1.79-.63-2.9s.21-2.06,.63-2.88,1-1.46,1.74-1.93c.74-.46,1.6-.69,2.58-.69s1.85,.24,2.55,.73,1.18,1.16,1.43,2.02l-.26-.11v-2.38h2.22v10.87c0,1.7-.45,2.98-1.34,3.84s-2.21,1.29-3.96,1.29Zm-.11-7.02c1,0,1.78-.33,2.34-.99s.85-1.58,.85-2.75-.28-2.05-.85-2.72-1.35-1-2.34-1-1.81,.33-2.39,.99c-.58,.66-.87,1.57-.87,2.73s.29,2.09,.87,2.75c.58,.66,1.38,.99,2.39,.99Z"/>
          <path class="cls-5" d="M87.35,137.37v-7.96c0-.51-.01-1.03-.03-1.56-.02-.53-.07-1.05-.14-1.56h2.11l.26,2.79-.26-.11c.19-.97,.63-1.7,1.31-2.2,.68-.5,1.45-.75,2.3-.75,.21,0,.4,.01,.57,.04,.18,.03,.34,.07,.48,.11l-.04,2.02c-.4-.15-.83-.22-1.3-.22-.72,0-1.3,.15-1.74,.45s-.77,.7-.98,1.19c-.21,.49-.32,1.02-.32,1.57v6.18h-2.22Z"/>
          <path class="cls-5" d="M104.68,136.1c-.5,.44-1.13,.79-1.89,1.04s-1.54,.38-2.33,.38c-1.17,0-2.19-.23-3.04-.68s-1.5-1.11-1.96-1.98c-.46-.87-.68-1.89-.68-3.08s.22-2.15,.67-3.01c.45-.87,1.07-1.54,1.86-2.02s1.71-.73,2.75-.73,1.86,.22,2.57,.66,1.27,1.07,1.66,1.88,.58,1.79,.58,2.94v.37h-8.16l.02-1.32h6.84l-.64,.79c.01-1.19-.22-2.1-.7-2.73-.48-.63-1.2-.95-2.13-.95-.98,0-1.75,.35-2.31,1.04-.56,.7-.84,1.67-.84,2.92,0,1.39,.3,2.43,.9,3.11,.6,.68,1.48,1.02,2.64,1.02,.63,0,1.24-.1,1.83-.31,.59-.21,1.14-.52,1.67-.95l.68,1.58Z"/>
          <path class="cls-5" d="M107.41,137.37v-7.96c0-.51-.01-1.03-.03-1.56-.02-.53-.07-1.05-.14-1.56h2.11l.2,2.24-.22,.13c.32-.87,.84-1.52,1.55-1.97,.71-.45,1.53-.67,2.45-.67,2.65,0,3.98,1.49,3.98,4.47v6.89h-2.22v-6.8c0-.95-.19-1.65-.56-2.09s-.96-.66-1.77-.66c-.95,0-1.71,.29-2.28,.88-.56,.59-.85,1.37-.85,2.35v6.31h-2.22Z"/>
          <path class="cls-5" d="M120.68,128l-.57-6.29h2.6l-.53,6.29h-1.5Z"/>
          <path class="cls-5" d="M129.45,137.53c-1.94,0-3.47-.47-4.6-1.41l.68-1.61c.59,.45,1.21,.79,1.86,1,.65,.21,1.36,.32,2.12,.32s1.34-.13,1.74-.38c.4-.26,.59-.62,.59-1.09,0-.4-.14-.71-.41-.94-.27-.23-.73-.42-1.38-.58l-1.87-.44c-.97-.21-1.71-.57-2.21-1.09-.51-.52-.76-1.17-.76-1.95,0-.66,.18-1.24,.55-1.74,.37-.5,.88-.89,1.54-1.18,.66-.29,1.43-.43,2.31-.43,.79,0,1.54,.12,2.24,.36,.7,.24,1.31,.6,1.83,1.07l-.68,1.56c-.54-.43-1.1-.74-1.66-.96-.57-.21-1.14-.32-1.73-.32-.72,0-1.28,.14-1.67,.41-.4,.27-.59,.65-.59,1.13,0,.4,.12,.71,.36,.94,.24,.23,.65,.41,1.22,.54l1.87,.46c1.07,.23,1.85,.61,2.35,1.12,.5,.51,.75,1.17,.75,1.98,0,.98-.4,1.76-1.2,2.34-.8,.58-1.89,.87-3.27,.87Z"/>
          <path class="cls-5" d="M42.25,163.95c-.81,0-1.57-.07-2.29-.21-.72-.14-1.39-.36-2-.65-.62-.29-1.17-.65-1.65-1.06l.79-1.69c.79,.62,1.6,1.06,2.41,1.34,.81,.28,1.73,.42,2.76,.42,1.17,0,2.08-.22,2.73-.67s.97-1.07,.97-1.86c0-.48-.15-.88-.46-1.19s-.74-.56-1.31-.75c-.57-.19-1.23-.37-1.99-.55-.82-.18-1.58-.38-2.27-.6-.69-.23-1.28-.51-1.78-.85-.5-.34-.88-.75-1.16-1.25-.27-.5-.41-1.11-.41-1.83,0-.89,.24-1.69,.73-2.4,.48-.7,1.16-1.25,2.03-1.64,.87-.39,1.9-.58,3.09-.58,.73,0,1.44,.07,2.11,.22,.67,.15,1.3,.36,1.87,.65,.57,.29,1.08,.63,1.52,1.05l-.84,1.69c-.7-.6-1.44-1.04-2.2-1.33-.76-.29-1.58-.43-2.44-.43-1.13,0-2.02,.23-2.66,.7-.65,.47-.97,1.12-.97,1.96,0,.51,.14,.93,.42,1.24s.69,.58,1.22,.78c.54,.21,1.18,.4,1.93,.57,.84,.19,1.61,.4,2.31,.63,.7,.23,1.32,.5,1.85,.81,.53,.32,.94,.71,1.23,1.19,.29,.48,.44,1.07,.44,1.77,0,.91-.24,1.7-.73,2.38-.48,.67-1.17,1.2-2.07,1.57-.89,.37-1.96,.56-3.19,.56Z"/>
          <path class="cls-5" d="M54.24,164.41l-5.04-11.73h2.31l3.78,9.28-1.06,2.44Zm-3.96,4.36l-.48-1.72c.67-.15,1.24-.33,1.71-.54,.46-.21,.85-.48,1.16-.8,.31-.32,.57-.74,.79-1.25l.75-1.72,.53-.77,3.83-9.28h2.22l-5.17,11.97c-.41,.94-.88,1.68-1.4,2.23-.52,.55-1.11,.97-1.77,1.27s-1.38,.5-2.16,.62Z"/>
          <path class="cls-5" d="M62.49,163.77v-7.96c0-.51-.01-1.03-.03-1.56-.02-.53-.07-1.05-.14-1.56h2.11l.2,2.24-.22,.13c.32-.87,.84-1.52,1.55-1.97,.71-.45,1.53-.67,2.45-.67,2.65,0,3.98,1.49,3.98,4.47v6.89h-2.22v-6.8c0-.95-.19-1.65-.56-2.09s-.96-.66-1.77-.66c-.95,0-1.71,.29-2.28,.88-.56,.59-.85,1.37-.85,2.35v6.31h-2.22Z"/>
          <path class="cls-5" d="M85.7,163.77h-2.2v-2.9l.26,.31c-.25,.88-.72,1.56-1.42,2.04-.7,.48-1.54,.71-2.52,.71s-1.82-.24-2.56-.71c-.74-.48-1.32-1.15-1.73-2.02-.41-.87-.62-1.9-.62-3.07s.2-2.16,.6-3.01,.98-1.51,1.72-1.98c.74-.47,1.6-.7,2.59-.7s1.82,.24,2.52,.73c.7,.48,1.17,1.16,1.42,2.02l-.29,.26v-7.85h2.22v16.19Zm-5.35-1.61c1,0,1.77-.34,2.32-1.03,.55-.69,.83-1.68,.83-2.97s-.28-2.22-.83-2.92-1.32-1.04-2.32-1.04-1.8,.34-2.37,1.02c-.56,.68-.85,1.65-.85,2.89s.28,2.29,.85,2.99,1.35,1.06,2.37,1.06Z"/>
          <path class="cls-5" d="M88.93,163.77v-7.96c0-.51-.01-1.03-.03-1.56-.02-.53-.07-1.05-.14-1.56h2.11l.26,2.79-.26-.11c.19-.97,.63-1.7,1.31-2.2,.68-.5,1.45-.75,2.3-.75,.21,0,.4,.01,.57,.04,.18,.03,.34,.07,.48,.11l-.04,2.02c-.4-.15-.83-.22-1.3-.22-.72,0-1.3,.15-1.74,.45s-.77,.7-.98,1.19c-.21,.49-.32,1.02-.32,1.57v6.18h-2.22Z"/>
          <path class="cls-5" d="M101.78,163.93c-1.1,0-2.06-.23-2.87-.7-.81-.47-1.44-1.13-1.88-1.99-.44-.86-.66-1.88-.66-3.07s.22-2.17,.66-3.04c.44-.87,1.07-1.53,1.88-2,.81-.47,1.77-.7,2.87-.7s2.03,.23,2.85,.7c.81,.47,1.44,1.14,1.89,2,.45,.87,.67,1.88,.67,3.04s-.22,2.21-.67,3.07-1.08,1.52-1.89,1.99-1.76,.7-2.85,.7Zm0-1.76c1,0,1.77-.34,2.32-1.01,.55-.67,.83-1.67,.83-2.99s-.27-2.26-.83-2.94c-.55-.68-1.32-1.02-2.32-1.02s-1.78,.34-2.34,1.02c-.56,.68-.85,1.66-.85,2.94s.28,2.32,.83,2.99c.55,.67,1.34,1.01,2.37,1.01Z"/>
          <path class="cls-5" d="M109.76,163.77v-7.96c0-.51-.01-1.03-.03-1.56-.02-.53-.07-1.05-.14-1.56h2.11l.2,2.24-.22,.09c.28-.82,.74-1.46,1.39-1.91,.64-.45,1.42-.68,2.31-.68,1.06,0,1.88,.26,2.48,.78,.59,.52,.98,1.32,1.15,2.41l-.53-.37c.25-.87,.73-1.55,1.44-2.06,.71-.51,1.55-.76,2.52-.76,1.23,0,2.16,.37,2.77,1.11,.62,.74,.92,1.86,.92,3.35v6.89h-2.22v-6.8c0-.95-.17-1.65-.5-2.09s-.86-.66-1.59-.66c-.85,0-1.52,.29-2.01,.88-.49,.59-.74,1.39-.74,2.4v6.27h-2.22v-6.8c0-.95-.17-1.65-.51-2.09-.34-.44-.87-.66-1.58-.66-.87,0-1.54,.29-2.03,.88-.49,.59-.74,1.39-.74,2.4v6.27h-2.22Z"/>
          <path class="cls-5" d="M138.58,162.5c-.5,.44-1.13,.79-1.89,1.04s-1.54,.38-2.33,.38c-1.17,0-2.19-.23-3.04-.68s-1.5-1.11-1.96-1.98c-.46-.87-.68-1.89-.68-3.08s.22-2.15,.67-3.01c.45-.87,1.07-1.54,1.86-2.02s1.71-.73,2.75-.73,1.86,.22,2.57,.66,1.27,1.07,1.66,1.88,.58,1.79,.58,2.94v.37h-8.16l.02-1.32h6.84l-.64,.79c.01-1.19-.22-2.1-.7-2.73-.48-.63-1.2-.95-2.13-.95-.98,0-1.75,.35-2.31,1.04-.56,.7-.84,1.67-.84,2.92,0,1.39,.3,2.43,.9,3.11,.6,.68,1.48,1.02,2.64,1.02,.63,0,1.24-.1,1.83-.31,.59-.21,1.14-.52,1.67-.95l.68,1.58Z"/>
        </g>
        <g id="Group_373" data-name="Group 373">
          <circle id="Ellipse_56" data-name="Ellipse 56" class="cls-2" cx="87.54" cy="55.22" r="50"/>
          <g id="Group_372" data-name="Group 372">
            <path id="Path_305" data-name="Path 305" class="cls-1" d="M87.86,90.56c-3.02,.37-6.05-.61-8.29-2.66-.98-.89-1.86-1.89-2.61-2.98-1.16-1.74-2.13-3.59-2.91-5.53-.48-1.19-1.01-2.36-1.6-3.51-.43-.8-.73-1.66-.87-2.55-.12-.38-.28-.74-.48-1.08-.26-.53-.48-1.08-.67-1.64-.45-1.35-1.13-2.61-2.01-3.73-2.97-4.27-5.62-8.76-7.92-13.42-.4-.77-.8-1.54-1.21-2.31-.06-.13-.13-.24-.23-.35-.83-.8-.82-1.56,.02-2.3,.13-.14,.24-.29,.32-.46,1.96-3.45,3.68-7.03,5.56-10.51,1.75-3.43,3.84-6.67,6.24-9.67,1.01-1.22,2.16-2.32,3.42-3.28,3.55-2.61,7.31-2.97,11.22-.93,.73,.45,1.64,.46,2.38,.03,4.09-1.96,7.94-1.32,11.53,1.3,2.52,1.95,4.71,4.31,6.46,6.98,2.59,3.87,4.96,7.89,7.1,12.04,.84,1.54,1.71,3.07,2.56,4.6,.1,.18,.23,.35,.37,.5,.51,.57,.46,1.45-.12,1.96-.09,.08-.18,.14-.28,.19-.26,.17-.47,.41-.62,.69-1.83,2.67-3.53,5.43-5.07,8.27-1.68,2.95-3.34,5.9-5.3,8.68-.13,.23-.23,.46-.31,.71-1.75,4.24-3.35,8.54-5.36,12.67-.87,1.84-2.05,3.53-3.48,4.98-2.19,2.21-4.75,3.49-7.87,3.31Zm18.27-26.59c.18-.28,.36-.55,.52-.84,2.11-3.56,4.02-7.24,6.32-10.69,.02-.03,0-.09,0-.2-2.12,1.46-4.2,2.88-6.28,4.31-.18,.11-.26,.33-.2,.53,.16,1.37,.15,2.74,0,4.11-.17,.92-.29,1.85-.35,2.79l-.03,.04,.03-.04Zm-37.61,.21s0,.11,.07,.04l-.07-.03c.04-.24,.02-.49-.05-.72-.51-2.38-.59-4.84-.24-7.25,.07-.23-.04-.48-.26-.59-1.49-1.02-2.97-2.06-4.47-3.07-.77-.52-1.56-1.01-2.34-1.52-.05,.09-.04,.21,.03,.29,1.51,2.92,3.02,5.84,4.68,8.67,.8,1.44,1.68,2.84,2.64,4.18h0Zm25.01,14.88c.32-1.43,.52-2.75-.32-4-.24-.34-.17-.81,.17-1.05,0,0,.02-.01,.02-.02,.34-.26,.83-.2,1.09,.14,0,0,.01,.02,.02,.03,.38,.48,.63,1.05,.75,1.65,.27,1.37,.14,2.8-.36,4.1-.12,.2-.05,.47,.15,.59,.02,.01,.05,.02,.07,.03,.7,.43,1.5,.67,2.32,.71,.33,.05,.65-.13,.76-.45,.94-1.91,1.6-3.93,2.44-5.87,.13-.31-.03-.34-.24-.42-1.14-.45-2.16-1.14-3-2.03-.43-.45-.46-.89-.11-1.24,.36-.37,.82-.32,1.27,.15,.71,.72,1.56,1.29,2.49,1.68,.28,.12,.37,.07,.48-.19,1.58-3.38,2.66-6.96,3.21-10.65,.13-.89,.13-.93-.74-.65-.56,.19-1.21,.27-1.59,.84-.31,.5-.55,1.05-.71,1.62-.22,.82-.84,1.48-1.65,1.75-.54,.17-.97,.58-1.17,1.11-.13,.41-.57,.63-.97,.5-.03,0-.06-.02-.09-.03-.41-.17-.6-.65-.42-1.05,0-.01,.01-.03,.02-.04,.25-.82,.86-1.47,1.66-1.78,.77-.25,1.3-.95,1.33-1.76-.95,.21-1.91,.36-2.88,.47-.86,.15-1.73-.13-2.34-.75-.29-.28-.31-.74-.03-1.03,0,0,0,0,0,0,.21-.32,.65-.4,.97-.19,.02,.01,.04,.03,.06,.04,.41,.33,.96,.44,1.47,.32,.73-.08,1.45-.21,2.16-.38,1.66-.43,3.24-1.18,4.94-1.47,.32-.06,.24-.29,.24-.48,.03-1.38-.13-2.75-.47-4.09-.64-3.11-2.93-5.63-5.97-6.56-1.9-.61-3.86-.32-5.78,.08-1.39,.29-2.62,1.02-3.96,1.44-.38,.12-.47,.27-.44,.65,.26,2.83,.27,5.67,.05,8.5-.06,.81-.16,1.63-.27,2.44-.03,.42-.4,.74-.83,.71-.01,0-.03,0-.04,0-.44-.05-.75-.45-.7-.88,0-.14,.03-.28,.05-.41,.42-3.46,.47-6.95,.16-10.42,.01-.19-.13-.36-.33-.38h0c-.7-.15-1.38-.38-2.02-.69-1.95-.9-4.08-1.35-6.22-1.32-2.94,0-5.07,1.45-6.79,3.68-.21,.28-.25,.46,.15,.59,1.03,.32,1.77,1.21,1.9,2.28,.03,.21,.09,.41,.17,.6,.07,.24,.3,.4,.55,.38,.38-.05,.73,.22,.78,.6,0,.04,0,.08,0,.12,.05,.42-.24,.8-.66,.85,0,0-.01,0-.02,0-.56,.12-1.14-.05-1.53-.46-.46-.46-.76-1.06-.84-1.7-.07-.56-.46-1.03-.99-1.22-.45-.19-.55-.07-.66,.32-.55,1.78-.78,3.65-.67,5.51,.26,3.68,1.11,7.3,2.5,10.72,.08,.2,.1,.43,.28,.57,.34-.29,.66-.56,.97-.84,.48-.42,1.17-.63,1.35-1.36,.04-.1,.13-.17,.23-.2,.53-.24,.9-.75,.98-1.33,.32-1.23,.63-2.46,.96-3.68,.07-.44,.49-.74,.93-.67,.01,0,.02,0,.03,0,.42,.08,.7,.49,.62,.91,0,.03-.01,.06-.02,.09-.36,1.65-.82,3.27-1.39,4.85-.04,.1-.18,.22,.03,.29,.94,.3,1.74,1.06,2.85,.83,.37-.08,.73,.15,.81,.52,0,.01,0,.03,0,.04,.13,.4-.1,.83-.5,.95,0,0,0,0,0,0-.38,.14-.78,.18-1.18,.12-.67-.12-1.31-.36-1.9-.7-.81-.44-1.56-.55-2.25,.19-.1,.09-.22,.17-.34,.24-1.54,1.13-1.69,1.65-.88,3.38,.57,1.21,1.21,2.38,1.69,3.64,.64,1.66,1.43,3.25,2.36,4.76,.07,.11,.12,.38,.29,.27,.36-.23,.74-.13,1.12-.18,.81-.12,.9-.21,.85-1.03-.11-.81-.01-1.64,.27-2.41,.32-.83,1.04-1.44,1.91-1.62,.42-.11,.86,.14,.97,.57,0,0,0,0,0,0,.12,.4-.1,.82-.5,.94,0,0-.02,0-.02,0-.64,.14-1.08,.72-1.04,1.38-.02,.47-.02,.94,.01,1.41,.13,1.11-.66,2.11-1.77,2.25,0,0-.01,0-.02,0-.28,.06-.56,.1-.9,.16,2.05,2.39,4.3,4.22,7.67,4.03-.38-.7-.52-1.5-.41-2.29-.01-.48,.26-.93,.7-1.13,.21-.1,.28-.18,.22-.42-.12-.38,.08-.78,.46-.91,.03,0,.06-.02,.08-.02,.4-.13,.84,.08,.98,.48,.35,.74,.11,1.62-.56,2.08-.12,.08-.27,.1-.32,.3-.19,.75,.57,1.2,.56,1.89,.08,.03,.16,.04,.24,.03,1.1,0,2.19-.24,3.18-.71,2.15-1.17,3.94-2.92,5.14-5.06,.07-.11,.2-.21,.13-.37-1.58-.15-3.04-.9-4.09-2.08-.36-.42-.8-.77-1.3-1.03-.4-.15-.6-.6-.45-1,.01-.03,.02-.06,.04-.08,.2-.39,.67-.55,1.07-.36,.46,.2,.88,.47,1.26,.79Zm-32.69-30.2c1-.4,1.94-.93,2.8-1.58,2.44-1.75,4.61-3.81,6.9-5.75,2.37-2.13,4.98-3.98,7.78-5.51,1.95-1.05,4.1-1.68,6.31-1.86,1.24-.08,2.47,.07,3.7,.03,1.22-.02,2.44,.18,3.59,.59,2.74,1.02,5.31,2.46,7.62,4.27,2.75,1.99,5.32,4.21,7.99,6.3,1.77,1.5,3.71,2.78,5.78,3.82,.38,.21,.79,.34,1.22,.38,0-.13-.04-.26-.12-.36-1.03-1.86-2.06-3.71-3.08-5.57-1.93-3.71-4.06-7.3-6.4-10.76-1.6-2.43-3.58-4.6-5.85-6.42-1.88-1.57-4.27-2.38-6.72-2.28-1.66,.14-3.25,.68-4.65,1.58-.41,.32-.99,.31-1.39-.02-.63-.44-1.31-.8-2.03-1.07-1.39-.61-2.93-.83-4.44-.64-2.14,.38-4.11,1.42-5.63,2.97-1.98,1.94-3.7,4.13-5.1,6.52-1.99,3.18-3.66,6.52-5.4,9.84-.94,1.8-1.89,3.6-2.89,5.51h0Zm1.59,1.07c2.16,1.36,4.19,2.78,6.25,4.21,.06-.19,.11-.34,.16-.49,1.4-3.72,3.97-6.19,7.92-6.85,2.76-.45,5.59-.02,8.09,1.24,1.55,.84,3.42,.83,4.96-.02,2.48-1.25,5.3-1.68,8.04-1.22,4.01,.68,6.62,3.18,7.97,6.99,.13,.37,.23,.74,.35,1.14l6.38-4.34c-.98-.47-1.93-1.02-2.83-1.63-2.34-1.58-4.5-3.4-6.69-5.17-.23-.21-.53-.32-.84-.29-2.83,.26-5.66,.4-8.5,.47-7,.2-14-.04-20.97-.71-1.05-.17-2.12,.17-2.87,.91-2.24,2.2-4.73,4.13-7.43,5.74h0Zm38.24-7.9c-.02-.19-.15-.24-.24-.31-1.67-1.33-3.43-2.56-5.26-3.67-1.6-1.02-3.37-1.75-5.23-2.15-1.4-.16-2.81-.21-4.22-.17-1.59-.04-3.17,.23-4.65,.81-2.85,1.17-5.5,2.8-7.83,4.82-.11,.09-.28,.14-.3,.35,9.22,.85,18.49,.96,27.72,.32h0Z"/>
            <path id="Path_306" data-name="Path 306" class="cls-1" d="M106.13,63.97l-.03,.04,.03-.04h0Z"/>
            <path id="Path_307" data-name="Path 307" class="cls-1" d="M68.52,64.19l.07,.03c-.07,.07-.05-.01-.07-.04h0Z"/>
          </g>
        </g>
      </g>
    </g>
  </g>
</svg>