<svg xmlns="http://www.w3.org/2000/svg" width="156" height="47" viewBox="0 0 156 47">
  <defs>
    <style>
      .cls-1 {
        fill: #d9f6fd;
      }

      .cls-2 {
        fill: #f39175;
      }

      .cls-3 {
        fill: #58849b;
      }
    </style>
  </defs>
  <g id="Group_468" data-name="Group 468" transform="translate(-1407 -593)">
    <rect id="Rectangle_237" data-name="Rectangle 237" class="cls-1" width="149" height="42" transform="translate(1414 598)"/>
    <path id="Path_806" data-name="Path 806" class="cls-2" d="M2,2V40H146.5V2H2M0,0H148.5V42H0Z" transform="translate(1407 593)"/>
    <path id="Path_809" data-name="Path 809" class="cls-3" d="M-55.161.162a10.447,10.447,0,0,1-1.9-.171,8.712,8.712,0,0,1-1.737-.5,5.844,5.844,0,0,1-1.4-.8l.918-2.016a7.287,7.287,0,0,0,1.98.99,7.131,7.131,0,0,0,2.16.324,3.673,3.673,0,0,0,1.881-.4,1.225,1.225,0,0,0,.657-1.1.989.989,0,0,0-.27-.7,2.215,2.215,0,0,0-.864-.5,12.774,12.774,0,0,0-1.584-.432,13.2,13.2,0,0,1-2.124-.594,5.234,5.234,0,0,1-1.431-.792,2.7,2.7,0,0,1-.8-1.053,3.6,3.6,0,0,1-.252-1.395,3.469,3.469,0,0,1,.639-2.043,4.3,4.3,0,0,1,1.782-1.431,6.381,6.381,0,0,1,2.673-.522,8.846,8.846,0,0,1,1.791.18,8.033,8.033,0,0,1,1.611.5,4.412,4.412,0,0,1,1.242.792l-.9,2.016a6.349,6.349,0,0,0-1.8-.99A5.8,5.8,0,0,0-54.8-10.8a3.058,3.058,0,0,0-1.746.441,1.377,1.377,0,0,0-.648,1.2,1.029,1.029,0,0,0,.252.7,2.111,2.111,0,0,0,.837.513,12.318,12.318,0,0,0,1.611.459,13.411,13.411,0,0,1,2.088.594,5.729,5.729,0,0,1,1.449.783,2.768,2.768,0,0,1,.837,1.026,3.167,3.167,0,0,1,.27,1.341,3.458,3.458,0,0,1-.63,2.079A4.014,4.014,0,0,1-52.3-.315,7.681,7.681,0,0,1-55.161.162ZM-46.2,0V-13.248h2.718v5.976l-.306-.09a3.439,3.439,0,0,1,1.3-1.485,3.628,3.628,0,0,1,1.935-.513q3.222,0,3.222,3.834V0h-2.718V-5.4a2.232,2.232,0,0,0-.351-1.4A1.343,1.343,0,0,0-41.5-7.236a1.88,1.88,0,0,0-1.44.576,2.172,2.172,0,0,0-.54,1.548V0Zm16.4.144A3.879,3.879,0,0,1-31.9-.432,3.8,3.8,0,0,1-33.327-2.07a5.737,5.737,0,0,1-.5-2.484,5.829,5.829,0,0,1,.513-2.511A4.04,4.04,0,0,1-31.9-8.757a3.706,3.706,0,0,1,2.1-.6,3.535,3.535,0,0,1,1.944.54A2.706,2.706,0,0,1-26.7-7.362l-.216.144V-9.126h2.682V0h-2.682V-1.872l.216.036A2.623,2.623,0,0,1-27.855-.378,3.626,3.626,0,0,1-29.8.144Zm.792-2.07a1.862,1.862,0,0,0,1.539-.684,3.1,3.1,0,0,0,.549-1.98,3.14,3.14,0,0,0-.549-1.989,1.852,1.852,0,0,0-1.539-.693,1.873,1.873,0,0,0-1.557.72,3.153,3.153,0,0,0-.567,2A3.03,3.03,0,0,0-30.582-2.6,1.913,1.913,0,0,0-29.007-1.926ZM-20.241,0V-6.516q0-.648-.027-1.3t-.117-1.305h2.556l.288,2.412-.288-.144a2.857,2.857,0,0,1,1.035-1.854,2.975,2.975,0,0,1,1.863-.63,2.541,2.541,0,0,1,.549.054,2.758,2.758,0,0,1,.423.126l-.018,2.484a3.167,3.167,0,0,0-1.332-.306,2.445,2.445,0,0,0-1.215.27,1.852,1.852,0,0,0-.738.765,2.5,2.5,0,0,0-.261,1.179V0ZM-3.213-.972a5.014,5.014,0,0,1-1.62.819,6.446,6.446,0,0,1-1.926.3A5.644,5.644,0,0,1-9.4-.432,4.038,4.038,0,0,1-11.1-2.07a5.082,5.082,0,0,1-.594-2.52,5.2,5.2,0,0,1,.576-2.484A4.264,4.264,0,0,1-9.54-8.757a4.423,4.423,0,0,1,2.331-.6,4.191,4.191,0,0,1,2.214.567,3.737,3.737,0,0,1,1.44,1.6,5.559,5.559,0,0,1,.5,2.457v.4H-9.3l.036-1.35h4.59l-.7.558a2.707,2.707,0,0,0-.441-1.737,1.582,1.582,0,0,0-1.323-.585,1.714,1.714,0,0,0-1.449.675A3.218,3.218,0,0,0-9.1-4.806a3.311,3.311,0,0,0,.6,2.214,2.333,2.333,0,0,0,1.845.684,4.47,4.47,0,0,0,1.422-.234,4.736,4.736,0,0,0,1.3-.666ZM11.979.162a10.447,10.447,0,0,1-1.9-.171,8.712,8.712,0,0,1-1.737-.5,5.844,5.844,0,0,1-1.4-.8L7.857-3.33a7.287,7.287,0,0,0,1.98.99A7.131,7.131,0,0,0,12-2.016a3.673,3.673,0,0,0,1.881-.4,1.225,1.225,0,0,0,.657-1.1.989.989,0,0,0-.27-.7,2.215,2.215,0,0,0-.864-.5,12.774,12.774,0,0,0-1.584-.432,13.2,13.2,0,0,1-2.124-.594,5.234,5.234,0,0,1-1.431-.792,2.7,2.7,0,0,1-.8-1.053,3.6,3.6,0,0,1-.252-1.395,3.469,3.469,0,0,1,.639-2.043A4.3,4.3,0,0,1,9.63-12.456a6.381,6.381,0,0,1,2.673-.522,8.846,8.846,0,0,1,1.791.18,8.033,8.033,0,0,1,1.611.5,4.412,4.412,0,0,1,1.242.792l-.9,2.016a6.349,6.349,0,0,0-1.8-.99,5.8,5.8,0,0,0-1.908-.324,3.058,3.058,0,0,0-1.746.441,1.377,1.377,0,0,0-.648,1.2,1.029,1.029,0,0,0,.252.7,2.111,2.111,0,0,0,.837.513,12.318,12.318,0,0,0,1.611.459,13.411,13.411,0,0,1,2.088.594,5.729,5.729,0,0,1,1.449.783,2.767,2.767,0,0,1,.837,1.026,3.167,3.167,0,0,1,.27,1.341,3.458,3.458,0,0,1-.63,2.079,4.014,4.014,0,0,1-1.818,1.35A7.681,7.681,0,0,1,11.979.162Zm7.776-7.254V-9.126h6.768v2.034Zm6.768,4.9V-.108a3.518,3.518,0,0,1-.756.2,5.735,5.735,0,0,1-.81.054,3.345,3.345,0,0,1-2.583-.963,3.786,3.786,0,0,1-.891-2.673v-7.776L24.2-12.15v8.6a1.645,1.645,0,0,0,.2.864,1.1,1.1,0,0,0,.522.459,1.807,1.807,0,0,0,.7.135,3.267,3.267,0,0,0,.423-.027Q26.253-2.142,26.523-2.2ZM34.065.144a5.358,5.358,0,0,1-2.556-.576,4.005,4.005,0,0,1-1.665-1.647,5.2,5.2,0,0,1-.585-2.529,5.145,5.145,0,0,1,.585-2.52,4.076,4.076,0,0,1,1.665-1.647,5.29,5.29,0,0,1,2.556-.585,5.211,5.211,0,0,1,2.52.585A4.076,4.076,0,0,1,38.25-7.128a5.145,5.145,0,0,1,.585,2.52,5.2,5.2,0,0,1-.585,2.529A4.005,4.005,0,0,1,36.585-.432,5.277,5.277,0,0,1,34.065.144Zm0-2.07a1.869,1.869,0,0,0,1.53-.657,3.153,3.153,0,0,0,.54-2.025,3.12,3.12,0,0,0-.54-2.007,1.869,1.869,0,0,0-1.53-.657,1.916,1.916,0,0,0-1.557.657,3.082,3.082,0,0,0-.549,2.007,3.153,3.153,0,0,0,.54,2.025A1.91,1.91,0,0,0,34.065-1.926ZM42.381,0V-6.516q0-.648-.027-1.3t-.117-1.305h2.556l.288,2.412-.288-.144a2.857,2.857,0,0,1,1.035-1.854,2.975,2.975,0,0,1,1.863-.63,2.541,2.541,0,0,1,.549.054,2.758,2.758,0,0,1,.423.126l-.018,2.484a3.167,3.167,0,0,0-1.332-.306,2.445,2.445,0,0,0-1.215.27,1.852,1.852,0,0,0-.738.765A2.5,2.5,0,0,0,45.1-4.77V0Zm9.666,4.1-.63-2.088a6.536,6.536,0,0,0,1.395-.4,2.966,2.966,0,0,0,.909-.6,2.921,2.921,0,0,0,.594-.882l.7-1.566.72-1.062,2.682-6.624H61.1L56.907.468a6.749,6.749,0,0,1-1.278,2,4.9,4.9,0,0,1-1.62,1.116A7.726,7.726,0,0,1,52.047,4.1ZM55.089.684l-4.266-9.81h2.826L56.277-2.5Z" transform="translate(1486 623)"/>
  </g>
</svg>
