<svg xmlns="http://www.w3.org/2000/svg" width="135.781" height="135.781" viewBox="0 0 135.781 135.781">
  <defs>
    <style>
      .cls-1 {
        fill: #fba474;
      }

      .cls-2 {
        fill: #fff;
      }
    </style>
  </defs>
  <g id="Group_361" data-name="Group 361" transform="translate(-27.78 -55.861)">
    <circle id="Ellipse_50" data-name="Ellipse 50" class="cls-1" cx="67.89" cy="67.89" r="67.89" transform="translate(27.78 55.861)"/>
    <g id="Group_360" data-name="Group 360" transform="translate(48.515 77.519)">
      <path id="Path_282" data-name="Path 282" class="cls-2" d="M92.542,139.16c-.659-1.225-1.111-2.053-1.55-2.889-.405-.77-.934-1.613.12-2.241,1.038-.618,1.608.181,2.03.946,1.2,2.175,2.327,4.394,3.525,6.571a12.711,12.711,0,0,0,10.553,6.934,7.771,7.771,0,0,0,8.126-4.668,7.888,7.888,0,0,0-2.132-9.14,27.174,27.174,0,0,0-2.97-2.239c-.682-.484-1.237-1.054-.767-1.895.484-.866,1.281-.639,2.006-.27a3.889,3.889,0,0,1,.964.616c2.379,2.31,4.585,3.658,6.114-.8a1.146,1.146,0,0,1,1.666-.644c.9.465.808,1.249.352,1.952a11.984,11.984,0,0,0-2.136,6.733c.026,3.341,1.307,6,4.349,7.5,3.135,1.552,6.261,1.6,9.14-.733.636-.515,1.212-1.461,2.17-.633,1.084.937.289,1.807-.394,2.412-1.157,1.026-.475,1.675.149,2.6a6.462,6.462,0,0,1-2.55,9.667c-.868.357-1.895.886-2.488-.323-.534-1.088.379-1.531,1.177-1.893a3.812,3.812,0,0,0,2.394-4.652c-.462-2.241-2.275-2.611-4.152-2.8a9.944,9.944,0,0,0-9.014,3.374c-1.27,1.455-2.634,2.828-4.69,3.052-.6.065-1.468.353-1.692-.555a1.43,1.43,0,0,1,.856-1.66c2.88-.666,3.836-3.677,6.207-4.913,1.445-.753.523-1.481-.156-1.83-.777-.4-1.261-2.671-2.548-.773a11.435,11.435,0,0,1-6.536,4.815c-1.008.289-2.58,5.563-2.066,6.515.338.626.746,1.119,1.562.969.376-.069.759-.107,1.13-.2,2.493-.6,4.961.263,7.38.181,2.659-.09,2.234-4.088,4.717-4.949.352-.123.631-.454.983-.58,1.011-.363,2.222-1.537,3.061-.2.984,1.566-.776,1.8-1.66,2.326-4.291,2.56-4.238,5.536.12,8.066a1.585,1.585,0,0,0,1.825.062,11.327,11.327,0,0,1,6.609-1.537c1.213.1,1.441-.613,1.493-1.578a14.191,14.191,0,0,1,2.546-7.507,1.984,1.984,0,0,0,.39-2.121,19.076,19.076,0,0,1-1.857-7.751c-.015-1.207-1.16-1.4-1.92-1.908a8.482,8.482,0,0,1-3.665-8.711c.185-.844.349-1.845,1.492-1.751s1.127,1.075,1.129,1.964c.005,1.516-.312,3.091.58,4.478.665,1.034,1.63,2.515,2.769,1.84s2.431-2.276,1.526-3.891a18.466,18.466,0,0,1-2.369-11c-8.952,2.149-11.982,8.5-7.948,16.187.495.943,1.3,1.951-.105,2.644-1.216.6-1.658-.635-2.118-1.392-2.956-4.862-3.11-9.725.388-14.694a5.03,5.03,0,0,0-4.7.245,16.708,16.708,0,0,1-14.171.471c-2.568-1-5.732-1.355-7.283.445-1.6,1.856-.564,4.948.706,7.322a14.09,14.09,0,0,0,6.519,5.833c.732.367,1.782.737,1.316,1.857-.524,1.26-1.5.772-2.424.4a14.194,14.194,0,0,1-9.138-14.207c.057-1.526-.53-1.968-1.73-2.727-3.294-2.083-6.379-2.294-9.776-.335-1.2.691-2.192,1.144-1.623,2.728.032.089.029.189.053.282.888,3.4-2.3,6.534-1.108,9.642,1.238,3.234,2.361,6.224,1.294,9.659-.362,1.164.408,2.008.891,2.919,2.405,4.532,2.563,8.99-.664,13.184-1.105,1.437-.561,2.125.628,2.944a11.211,11.211,0,0,0,8.164,1.953c1.042-.144,2.079-.322,3.121-.462.73-.1,1.409.083,1.6.858.237.961-.4,1.338-1.245,1.545-4.751,1.165-9.342,1.194-13.308-2.178a5.311,5.311,0,0,0-5.146-1.285c-8.68,1.882-14.842-5.557-12.015-14.429a4.418,4.418,0,0,0-.462-4.2,9.21,9.21,0,0,1-.524-9.8,3.4,3.4,0,0,0,.1-3.469,7.471,7.471,0,0,1,.523-7.895c.267-.392.779-.947.669-1.219-1.635-4,1.157-7.745.645-11.651C66.623,107.4,71.229,101.618,77.9,101.8c.477.012,1.067-.083,1.411.153,3.733,2.558,8.072,2.772,12.336,3.4a5.374,5.374,0,0,1,3.69,2.574c1.348,2.289,3.09,2.238,5.325,1.712,2.623-.618,5.348-.857,7.743.872,1.041.751,1.573-.019,2.181-.566,3.978-3.582,8.468-5.13,13.744-3.426a1.994,1.994,0,0,0,2.457-.826,10.314,10.314,0,0,1,7.295-4.116c1.7-.138,2.123-1.364,2.857-2.445,2.765-4.077,7.377-5.739,12.652-4.594,4.774,1.037,8.053,4.3,8.814,8.709a9.193,9.193,0,0,1-.633,5.339,10.7,10.7,0,0,0-.363,7.268,18.211,18.211,0,0,1-2.7,15.594,2.847,2.847,0,0,0-.264,3.369,16.06,16.06,0,0,1,.657,14.128c-.48,1.116-.09,1.677.563,2.488,5.621,6.978,3.332,17.956-4.589,22.206-.913.49-1.957.752-2.359,1.916-2.5,7.246-12.414,8.739-18.351,5.56a5.46,5.46,0,0,0-5.2-.178c-7.809,2.979-13.639-2.531-15.247-9.129-.161-.66-.131-1.4.726-1.628a1.271,1.271,0,0,1,1.582.872,32.006,32.006,0,0,0,1.994,4.116c2.957,4.551,7.771,5.427,12.03,2.094,1.278-1,2.02-.54,2.977.2a12.546,12.546,0,0,0,10.569,2.38c4.4-.878,6.743-3.66,6.967-8.161.043-.859-.13-1.864.833-2.26,1.108-.456,1.48.426,1.8,1.284.449,1.205,1.137.315,1.54.041,6.406-4.364,7.164-14.933,1.809-18.366-1.372-.88-1.432-1.748-.682-3.07,2.715-4.782,2.257-9.547-.338-14.2-.742-1.331-1.307-2.415-.074-3.854,4.271-4.985,4.731-10.716,2.76-16.718a6.421,6.421,0,0,1,.354-5.173c2.331-4.932.982-9.353-3.312-11.527-4.921-2.492-10.44-1-12.8,3.74-.951,1.912-2.009,2.738-4.136,2.57a6.365,6.365,0,0,0-4.418,1.806c-1.378,1.115-2.512,2.213-.315,3.693.733.494,1.259,1.309.4,2.17-.739.74-1.374.149-2.023-.271-7.348-4.758-11.113-4.412-17.133,1.656-.929.937-1.666,1.509-2.841.391-2.778-2.642-5.936-2.307-9.067-.86-1.947.9-3.095.929-4.343-1.258-2.928-5.135-8.619-5.8-13.148-1.857-.718.626-1.374,2.045-2.542.89-1.29-1.275.318-1.941.894-2.8.453-.673,1.681-1.049,1.234-2.041-.408-.9-1.529-1.093-2.463-1.284-4.7-.962-9.29,3.646-8.693,8.872.278,2.43,1.108,4.7-.735,7.033-.909,1.151-.387,2.988.314,4.408.685,1.385.427,2.36-.648,3.545-2.571,2.832-2.1,5.135,1.155,7.151,1.223.757.706,1.52-.014,2.317-4.036,4.466-4.186,6.609-.433,11.388,1.154,1.469.414,2.377-.222,3.57-3.142,5.89.66,12.5,7.143,12.441,3.331-.03,5.964-1.33,7.38-4.485a9.691,9.691,0,0,0-1.5-9.738c-.916-.983-2.044-.865-3.175-.956-.874-.07-1.876-.206-1.818-1.351.046-.911.916-1.077,1.712-1.2,3.259-.509,4.089-1.888,2.969-5.075a11.1,11.1,0,0,0-1.442-2.795,3.312,3.312,0,0,1-.2-4.186,10.371,10.371,0,0,0,1.37-5.784c-.02-2.216-.592-3.768-3.062-4.442a7.037,7.037,0,0,1-4.719-4.674c-.291-.794-.405-1.519.456-1.989.954-.522,1.354.231,1.8.862,3.339,4.72,7.706,5.6,12.473,2.268,1.667-1.165,2.648-1.4,4.352.105,4.017,3.547,10.279,3.45,14.555.128.672-.522,1.255-1.361,2.2-.588.962.787.354,1.56-.215,2.216-1.21,1.394.023,1.585.911,1.79a14.246,14.246,0,0,0,10.325-1.063,7.731,7.731,0,0,1,4.909-.965,11.824,11.824,0,0,0,7.232-1.346c3.258-1.793,6.48-3.664,9.61-5.671a10.658,10.658,0,0,0,4.165-6.021c.3-.917.63-2,1.941-1.436,1.078.463.711,1.432.453,2.247a13.55,13.55,0,0,1-5.884,7.86c-4.137,2.515-5.928,6.338-3.879,10.768,1.768,3.823,2.585,6.924.366,10.932-1.508,2.723-.22,6.04,1.286,8.781a3.231,3.231,0,0,1-.338,4.12,11.008,11.008,0,0,0-1.534,11.619c.387.968,1.5,2.278-.068,2.961-1.461.636-1.788-.992-2.317-1.912-1.34-2.329-3.593-3.225-6.588-1.362-3.33,2.071-5.2,1.416-7.8-1.233-3.842-3.915-10.288-4.192-14.59-1.368-4.179,2.743-5.562,7.452-3.725,13.2a5.082,5.082,0,0,1-.451,3.843,11.581,11.581,0,0,0-.8,7.832,2.563,2.563,0,0,0,2.834,2.23c2.39-.066,4.786-.071,7.176,0,1.857.057,2.622-.811,2.6-2.582a12.52,12.52,0,0,1,.1-2,1.087,1.087,0,0,1,1.176-1.009c.65.027.945.463,1.134,1.077,1.212,3.931-.861,6.9-5.023,7.025-2.581.078-5.166.007-7.749-.008a4.324,4.324,0,0,1-4.568-3.535c-.437-1.6-1.056-3.446-.411-4.785,2.759-5.728-1.04-11.927,1.52-17.6a15.348,15.348,0,0,1,3.073-4.458c.713-.729,2.317-1.156,1.4-2.675a3.217,3.217,0,0,0-3.723-1.523c-1.821.446-3.16,1.744-4.5,2.967a9.327,9.327,0,0,1-5.582,2.674c-1.014.083-2.112-.036-2.3-1.186-.239-1.476,1.06-1.24,1.947-1.322a7.418,7.418,0,0,0,4.68-2.548c2.107-2.167,4.576-3.488,7.692-3.021,1.509.226,2.08-.571,2.409-1.809.449-1.691-.812-1.842-1.917-2.195-1.272-.406-2.529-.861-3.776-1.338-.924-.354-1.774-1.275-2.767-.058-.857,1.05-2.4,1.778-1.168,3.561a1.221,1.221,0,0,1-.375,1.961,1.1,1.1,0,0,1-1.66-.594c-.919-2.3-2.832-2.919-5.027-3.183a5.655,5.655,0,0,1-1.629-.538c-.734-.337-1.381-.831-1-1.764.365-.9,1.087-.939,1.9-.578a6.054,6.054,0,0,0,5.534.132c1.474-.784,2.111-1.735.82-3.394-1.588-2.041-3.344-3.344-6.077-2.948-.948.137-2.4.7-2.588-.838-.211-1.718,1.459-1.388,2.483-1.614C90.442,139.333,91.3,139.3,92.542,139.16Z" transform="translate(-64.463 -94.178)"/>
    </g>
  </g>
</svg>
