<svg xmlns="http://www.w3.org/2000/svg" width="134.333" height="134.333" viewBox="0 0 134.333 134.333">
  <defs>
    <style>
      .cls-1 {
        fill: #fba474;
      }

      .cls-2 {
        fill: #fff;
      }
    </style>
  </defs>
  <g id="Group_363" data-name="Group 363" transform="translate(-48.241 -669.664)">
    <circle id="Ellipse_51" data-name="Ellipse 51" class="cls-1" cx="67.167" cy="67.167" r="67.167" transform="translate(48.241 669.664)"/>
    <g id="Group_362" data-name="Group 362" transform="translate(73.561 703.936)">
      <path id="Path_283" data-name="Path 283" class="cls-2" d="M135.376,773.982c-13.963-.02-25.809-5.17-35.832-14.763-1.864-1.784-3.555-3.74-5.476-5.467a1.618,1.618,0,0,1-.125-2.3c2.175-2.194,4.305-4.437,6.562-6.545,6.8-6.357,14.655-10.9,23.824-12.751,16.71-3.369,31.7.3,44.691,11.522,2.754,2.379,5.131,5.128,7.676,7.714a1.566,1.566,0,0,1,.032,2.3,108.06,108.06,0,0,1-10.326,9.731A49.849,49.849,0,0,1,135.376,773.982Zm-37.536-21.59c.545.561,1.056,1.092,1.57,1.62.534.549,1.067,1.1,1.607,1.641,10.4,10.43,22.888,15.472,37.677,14.55a45.741,45.741,0,0,0,21.753-7.026,66.656,66.656,0,0,0,12.23-10.5c.32-.331.131-.434-.075-.639-.945-.941-1.873-1.9-2.818-2.836-10.544-10.475-23.118-15.66-38.084-14.61a45.59,45.59,0,0,0-22.462,7.747A71.774,71.774,0,0,0,97.839,752.392Z" transform="translate(-93.52 -730.951)"/>
      <path id="Path_284" data-name="Path 284" class="cls-2" d="M145.625,834.265a49.136,49.136,0,0,1-9.783-.677,6.035,6.035,0,0,1-.737-.2,1.736,1.736,0,0,1-1.191-2.143,1.659,1.659,0,0,1,1.963-1.229,46.653,46.653,0,0,0,11.341.618,95.078,95.078,0,0,0,21.027-2.69,46.845,46.845,0,0,0,13.424-5.373,23.506,23.506,0,0,0,6.334-5.6,1.763,1.763,0,1,1,2.726,2.157,29.208,29.208,0,0,1-10.911,8.324,66.565,66.565,0,0,1-17.25,5.236A102.623,102.623,0,0,1,145.625,834.265Z" transform="translate(-111.302 -768.477)"/>
      <path id="Path_285" data-name="Path 285" class="cls-2" d="M138.482,817.537a55.031,55.031,0,0,1-22.6-4.895,25.3,25.3,0,0,1-11.125-9.433,19.1,19.1,0,0,1-2.413-6.046,1.821,1.821,0,0,1,1.287-2.333,1.8,1.8,0,0,1,2.173,1.521c1.257,5.8,4.914,9.7,9.932,12.495a43.175,43.175,0,0,0,16.015,4.781,53.678,53.678,0,0,0,12.3.178,23.248,23.248,0,0,0,2.844-.489,1.694,1.694,0,0,1,2.282,1.276c.247.961-.338,1.786-1.507,2.065A40.894,40.894,0,0,1,138.482,817.537Z" transform="translate(-97.381 -759.086)"/>
      <path id="Path_286" data-name="Path 286" class="cls-2" d="M178.1,810.931c-.85,0-1.7.02-2.549-.005-1.213-.035-1.892-.668-1.893-1.721a1.775,1.775,0,0,1,1.966-1.77,62.635,62.635,0,0,0,11.492-1.044,33.887,33.887,0,0,0,13.193-4.9,14.741,14.741,0,0,0,5.121-5.677,1.76,1.76,0,0,1,2.417-1.063,2.051,2.051,0,0,1,.84,2.716A15.943,15.943,0,0,1,204.7,802.7c-3.768,3.33-8.288,5.145-13.072,6.39A61.666,61.666,0,0,1,178.1,810.931Z" transform="translate(-128.843 -758.997)"/>
      <path id="Path_287" data-name="Path 287" class="cls-2" d="M155.9,772.592a15.689,15.689,0,1,1,15.763-15.312A15.6,15.6,0,0,1,155.9,772.592Zm.1-3.321a12.184,12.184,0,1,0-12.206-12.2A12.25,12.25,0,0,0,156,769.271Z" transform="translate(-114.155 -735.476)"/>
      <path id="Path_288" data-name="Path 288" class="cls-2" d="M163.414,770.6a6.256,6.256,0,1,1,6.267-6.268A6.246,6.246,0,0,1,163.414,770.6Zm2.755-6.076a2.738,2.738,0,0,0-2.789-2.793,2.588,2.588,0,0,0-2.746,2.607,2.747,2.747,0,0,0,2.789,2.8A2.6,2.6,0,0,0,166.168,764.527Z" transform="translate(-121.555 -742.915)"/>
    </g>
  </g>
</svg>
