<svg xmlns="http://www.w3.org/2000/svg" width="136" height="136" viewBox="0 0 136 136">
  <defs>
    <style>
      .cls-1 {
        fill: #fba474;
      }

      .cls-2 {
        fill: #fff;
      }
    </style>
  </defs>
  <g id="Group_373" data-name="Group 373" transform="translate(-368.724 -659.749)">
    <circle id="Ellipse_56" data-name="Ellipse 56" class="cls-1" cx="68" cy="68" r="68" transform="translate(368.724 659.749)"/>
    <g id="Group_372" data-name="Group 372" transform="translate(397.171 683.024)">
      <path id="Path_305" data-name="Path 305" class="cls-2" d="M458.958,793.648a14.171,14.171,0,0,1-11.273-3.618,23.126,23.126,0,0,1-3.545-4.05,41.156,41.156,0,0,1-3.956-7.521c-.658-1.623-1.375-3.215-2.177-4.771a11.044,11.044,0,0,1-1.189-3.471,6.531,6.531,0,0,0-.653-1.466,20.212,20.212,0,0,1-.909-2.232,16.609,16.609,0,0,0-2.733-5.07,141.883,141.883,0,0,1-10.766-18.256c-.547-1.048-1.091-2.1-1.642-3.144a1.779,1.779,0,0,0-.307-.471c-1.129-1.085-1.115-2.12.032-3.13a2.4,2.4,0,0,0,.442-.631c2.667-4.688,5-9.555,7.563-14.3a76.941,76.941,0,0,1,8.487-13.154,27.255,27.255,0,0,1,4.657-4.458c4.827-3.555,9.946-4.036,15.26-1.264a3.144,3.144,0,0,0,3.24.045c5.558-2.665,10.8-1.8,15.686,1.766a39.344,39.344,0,0,1,8.79,9.488,165.882,165.882,0,0,1,9.652,16.371c1.142,2.1,2.319,4.176,3.481,6.262a3.514,3.514,0,0,0,.5.681,1.891,1.891,0,0,1-.544,2.932,2.406,2.406,0,0,0-.837.936,127.761,127.761,0,0,0-6.9,11.243c-2.278,4.011-4.547,8.027-7.21,11.8a4.638,4.638,0,0,0-.423.971c-2.378,5.766-4.562,11.617-7.285,17.235a24.859,24.859,0,0,1-4.735,6.778C466.685,792.148,463.2,793.9,458.958,793.648Zm24.849-36.165c.238-.379.484-.752.712-1.137,2.873-4.841,5.467-9.847,8.591-14.54.028-.042,0-.118,0-.27-2.886,1.98-5.712,3.923-8.545,5.855a.639.639,0,0,0-.266.724,24.236,24.236,0,0,1-.011,5.587,34.307,34.307,0,0,0-.477,3.789l-.044.048Zm-51.143.283c.023.029,0,.152.089.048l-.1-.036a2.207,2.207,0,0,0-.064-.98,27.586,27.586,0,0,1-.32-9.865.684.684,0,0,0-.348-.806c-2.032-1.384-4.045-2.8-6.079-4.18-1.043-.709-2.116-1.372-3.183-2.061a.34.34,0,0,0,.046.4c2.048,3.972,4.107,7.939,6.37,11.795A60.075,60.075,0,0,0,432.664,757.766ZM466.674,778c.437-1.94.708-3.735-.434-5.438a1.022,1.022,0,0,1,.26-1.449,1.056,1.056,0,0,1,1.512.225,5.2,5.2,0,0,1,1.014,2.242,10.026,10.026,0,0,1-.495,5.581.586.586,0,0,0,.3.849,6.486,6.486,0,0,0,3.154.959.943.943,0,0,0,1.037-.606c1.273-2.6,2.175-5.341,3.325-7.985.183-.421-.047-.457-.331-.57a11.3,11.3,0,0,1-4.08-2.764c-.58-.613-.622-1.213-.148-1.692.493-.5,1.11-.436,1.727.2a10.3,10.3,0,0,0,3.386,2.289c.381.165.5.09.656-.263a52.714,52.714,0,0,0,4.37-14.481c.17-1.212.173-1.271-1-.882-.764.255-1.64.367-2.16,1.141a8.781,8.781,0,0,0-.967,2.2,3.426,3.426,0,0,1-2.244,2.378,2.477,2.477,0,0,0-1.59,1.505,1.052,1.052,0,0,1-1.444.635,1.09,1.09,0,0,1-.547-1.488,3.777,3.777,0,0,1,2.257-2.416,2.648,2.648,0,0,0,1.813-2.389,38.231,38.231,0,0,1-3.919.638,3.58,3.58,0,0,1-3.185-1.024.993.993,0,0,1-.029-1.415.946.946,0,0,1,1.392-.2,2.326,2.326,0,0,0,2,.431,24.637,24.637,0,0,0,2.933-.513c2.26-.589,4.4-1.6,6.712-2.006.438-.076.329-.4.333-.656a20.846,20.846,0,0,0-.634-5.556,11.8,11.8,0,0,0-8.113-8.916c-2.588-.833-5.246-.439-7.86.109-1.891.4-3.563,1.394-5.392,1.952-.52.159-.645.367-.6.881a68.378,68.378,0,0,1,.063,11.561c-.082,1.108-.223,2.213-.374,3.314a1.049,1.049,0,0,1-1.185.96,1.083,1.083,0,0,1-.948-1.2c.006-.188.044-.375.067-.563a67.981,67.981,0,0,0,.218-14.174.481.481,0,0,0-.45-.515,11.688,11.688,0,0,1-2.742-.943,19.639,19.639,0,0,0-8.463-1.8c-4,0-6.9,1.966-9.228,5.009-.291.379-.339.62.2.8a3.735,3.735,0,0,1,2.59,3.1,3.741,3.741,0,0,0,.234.816.7.7,0,0,0,.743.515.949.949,0,0,1,1.068.981,1.033,1.033,0,0,1-.925,1.154,2.235,2.235,0,0,1-2.085-.631,4.022,4.022,0,0,1-1.145-2.312,2.056,2.056,0,0,0-1.343-1.665c-.606-.256-.75-.089-.9.441a21.175,21.175,0,0,0-.914,7.5,47.59,47.59,0,0,0,3.4,14.583c.108.266.136.589.378.772.459-.4.892-.763,1.319-1.136.652-.572,1.594-.854,1.831-1.849a.526.526,0,0,1,.309-.277,2.287,2.287,0,0,0,1.327-1.806c.438-1.67.863-3.342,1.308-5.009a1.1,1.1,0,0,1,1.307-.9,1.055,1.055,0,0,1,.805,1.362,54.182,54.182,0,0,1-1.884,6.6c-.057.135-.242.3.038.39,1.28.408,2.366,1.443,3.874,1.127a.927.927,0,0,1,1.112.766,1.035,1.035,0,0,1-.693,1.3,3.159,3.159,0,0,1-1.606.157,8.015,8.015,0,0,1-2.584-.952c-1.1-.6-2.116-.753-3.062.264a3.037,3.037,0,0,1-.459.331c-2.1,1.532-2.3,2.243-1.191,4.6.774,1.646,1.65,3.241,2.3,4.949A38.617,38.617,0,0,0,445.2,783.6c.093.151.161.521.4.367.489-.314,1.013-.177,1.518-.249,1.105-.157,1.222-.284,1.154-1.4a6.9,6.9,0,0,1,.373-3.281,3.533,3.533,0,0,1,2.6-2.2,1.079,1.079,0,0,1,1.32.783,1.024,1.024,0,0,1-.707,1.292,1.8,1.8,0,0,0-1.419,1.872,17.729,17.729,0,0,0,.015,1.915,2.75,2.75,0,0,1-2.433,3.058c-.375.078-.755.131-1.221.211,2.784,3.257,5.847,5.741,10.433,5.477a5.03,5.03,0,0,1-.56-3.117,1.658,1.658,0,0,1,.956-1.543c.285-.13.384-.245.3-.576a.977.977,0,0,1,.733-1.265A1.077,1.077,0,0,1,460,785.6a2.27,2.27,0,0,1-.759,2.835c-.162.114-.367.142-.435.41-.258,1.015.772,1.638.76,2.573a.974.974,0,0,0,.327.047,10.007,10.007,0,0,0,4.324-.965,17.753,17.753,0,0,0,6.992-6.877c.092-.15.271-.283.182-.5a8.533,8.533,0,0,1-5.562-2.83,5.953,5.953,0,0,0-1.764-1.4,1.056,1.056,0,0,1-.556-1.478,1.1,1.1,0,0,1,1.453-.49A7.1,7.1,0,0,1,466.674,778Zm-44.452-41.068a16.528,16.528,0,0,0,3.805-2.143c3.316-2.376,6.272-5.185,9.378-7.815a56.2,56.2,0,0,1,10.574-7.5,21.719,21.719,0,0,1,8.577-2.528c1.685-.105,3.358.1,5.038.042a13.812,13.812,0,0,1,4.876.8,38.674,38.674,0,0,1,10.362,5.808c3.738,2.711,7.234,5.731,10.871,8.572a39.649,39.649,0,0,0,7.857,5.2,4.287,4.287,0,0,0,1.666.519.726.726,0,0,0-.168-.485c-1.4-2.527-2.8-5.048-4.185-7.582a149.218,149.218,0,0,0-8.7-14.639,37.841,37.841,0,0,0-7.954-8.729,13.409,13.409,0,0,0-9.134-3.1,13.713,13.713,0,0,0-6.319,2.148,1.509,1.509,0,0,1-1.885-.028,13.406,13.406,0,0,0-2.756-1.459,11.336,11.336,0,0,0-6.035-.867,14.2,14.2,0,0,0-7.659,4.045,42.57,42.57,0,0,0-6.935,8.868c-2.7,4.319-4.984,8.869-7.338,13.379C424.879,731.888,423.588,734.334,422.222,736.936Zm2.156,1.464c2.934,1.852,5.7,3.785,8.5,5.73.088-.264.149-.468.224-.666,1.9-5.064,5.395-8.423,10.772-9.313a17.972,17.972,0,0,1,11,1.692,7.043,7.043,0,0,0,6.746-.025,17.8,17.8,0,0,1,10.931-1.661c5.459.923,9,4.322,10.842,9.51.177.5.309,1.012.472,1.551l8.681-5.9A30.316,30.316,0,0,1,488.7,737.1c-3.178-2.155-6.115-4.622-9.093-7.036a1.469,1.469,0,0,0-1.148-.392c-3.843.358-7.7.547-11.554.644a231.171,231.171,0,0,1-28.514-.964,4.547,4.547,0,0,0-3.909,1.244A53.34,53.34,0,0,1,424.378,738.4Zm52-10.734c-.026-.263-.2-.324-.324-.417a68.682,68.682,0,0,0-7.154-4.991,21.648,21.648,0,0,0-7.111-2.918,41.208,41.208,0,0,0-5.738-.235,16.3,16.3,0,0,0-6.318,1.095,38.487,38.487,0,0,0-10.644,6.553c-.153.123-.383.195-.412.482A233.442,233.442,0,0,0,476.383,727.666Z" transform="translate(-418.971 -700.86)"/>
      <path id="Path_306" data-name="Path 306" class="cls-2" d="M533.464,800.875l-.037.056.044-.048Z" transform="translate(-468.628 -744.252)"/>
      <path id="Path_307" data-name="Path 307" class="cls-2" d="M443.139,801.387l.1.036c-.093.1-.067-.018-.089-.048Z" transform="translate(-429.456 -744.469)"/>
    </g>
  </g>
</svg>
