<svg xmlns="http://www.w3.org/2000/svg" width="151" height="47" viewBox="0 0 151 47">
  <defs>
    <style>
      .cls-1 {
        fill: #d9f6fd;
      }

      .cls-2 {
        fill: #f39175;
      }

      .cls-3 {
        fill: #58849b;
      }
    </style>
  </defs>
  <g id="Group_466" data-name="Group 466" transform="translate(-1407 -593)">
    <rect id="Rectangle_237" data-name="Rectangle 237" class="cls-1" width="144" height="42" transform="translate(1414 598)"/>
    <path id="Path_806" data-name="Path 806" class="cls-2" d="M2,2V40H142V2H2M0,0H144V42H0Z" transform="translate(1407 593)"/>
    <path id="Path_807" data-name="Path 807" class="cls-3" d="M-36.018,3.222V.936a7.063,7.063,0,0,0,1.719.09,1,1,0,0,0,.81-.477A2.722,2.722,0,0,0-33.264-.72v-12.1h2.808V-.756a5.87,5.87,0,0,1-.5,2.646,2.585,2.585,0,0,1-1.728,1.323A8.347,8.347,0,0,1-36.018,3.222ZM-21.906.144a5.358,5.358,0,0,1-2.556-.576,4.005,4.005,0,0,1-1.665-1.647,5.2,5.2,0,0,1-.585-2.529,5.145,5.145,0,0,1,.585-2.52,4.076,4.076,0,0,1,1.665-1.647,5.29,5.29,0,0,1,2.556-.585,5.211,5.211,0,0,1,2.52.585,4.076,4.076,0,0,1,1.665,1.647,5.145,5.145,0,0,1,.585,2.52,5.2,5.2,0,0,1-.585,2.529A4.005,4.005,0,0,1-19.386-.432,5.277,5.277,0,0,1-21.906.144Zm0-2.07a1.869,1.869,0,0,0,1.53-.657,3.153,3.153,0,0,0,.54-2.025,3.119,3.119,0,0,0-.54-2.007,1.869,1.869,0,0,0-1.53-.657,1.916,1.916,0,0,0-1.557.657,3.082,3.082,0,0,0-.549,2.007,3.153,3.153,0,0,0,.54,2.025A1.91,1.91,0,0,0-21.906-1.926ZM-13.572,0l-.018-9.126,2.718.018V0Zm-.108-13.392,2.916-.018-.018,2.556H-13.7ZM-6.858,0V-6.516q.018-.63-.009-1.287t-.117-1.305l2.538-.018.2,1.782-.2-.018a3.4,3.4,0,0,1,1.3-1.476A3.786,3.786,0,0,1-1.206-9.36q3.222.018,3.222,3.834V0H-.7V-5.4a2.273,2.273,0,0,0-.351-1.413A1.288,1.288,0,0,0-2.16-7.236a1.813,1.813,0,0,0-1.44.567,2.2,2.2,0,0,0-.54,1.557V0ZM18.45.162a5.6,5.6,0,0,1-4.113-1.386,5.493,5.493,0,0,1-1.395-4.068v-7.524h2.736v7.65a3.472,3.472,0,0,0,.7,2.34,2.591,2.591,0,0,0,2.07.81,2.523,2.523,0,0,0,2.016-.81,3.472,3.472,0,0,0,.7-2.34v-7.65h2.79v7.524a5.436,5.436,0,0,1-1.422,4.059A5.594,5.594,0,0,1,18.45.162Zm13.1-.018A6.8,6.8,0,0,1,27.432-.972l.738-1.89a5.546,5.546,0,0,0,1.611.8,5.963,5.963,0,0,0,1.791.279,2.13,2.13,0,0,0,1.08-.225.693.693,0,0,0,.378-.621.611.611,0,0,0-.27-.531,2.986,2.986,0,0,0-.954-.351l-1.494-.36a3.733,3.733,0,0,1-1.953-.9,2.281,2.281,0,0,1-.621-1.674,2.432,2.432,0,0,1,.5-1.5A3.309,3.309,0,0,1,29.61-8.982a5.175,5.175,0,0,1,2.052-.378,6.16,6.16,0,0,1,1.908.3,6.079,6.079,0,0,1,1.674.837l-.756,1.818a5.906,5.906,0,0,0-1.431-.738A4.315,4.315,0,0,0,31.644-7.4a1.979,1.979,0,0,0-1.044.234.726.726,0,0,0-.378.648.59.59,0,0,0,.225.486,2.211,2.211,0,0,0,.8.324l1.53.342a4.077,4.077,0,0,1,2.034.972,2.373,2.373,0,0,1,.63,1.728A2.408,2.408,0,0,1,34.407-.612,4.753,4.753,0,0,1,31.554.144Z" transform="translate(1479 621)"/>
  </g>
</svg>
