<svg xmlns="http://www.w3.org/2000/svg" width="155" height="47" viewBox="0 0 155 47">
  <defs>
    <style>
      .cls-1 {
        fill: #d9f6fd;
      }

      .cls-2 {
        fill: #f39175;
      }

      .cls-3 {
        fill: #58849b;
      }
    </style>
  </defs>
  <g id="Group_465" data-name="Group 465" transform="translate(-1407 -593)">
    <rect id="Rectangle_237" data-name="Rectangle 237" class="cls-1" width="148" height="42" transform="translate(1414 598)"/>
    <path id="Path_806" data-name="Path 806" class="cls-2" d="M2,2V40H145.5V2H2M0,0H147.5V42H0Z" transform="translate(1407 593)"/>
    <path id="Path_808" data-name="Path 808" class="cls-3" d="M-55.872,0l-.018-12.816h2.808v10.53h5.724V0ZM-36.09-.972a5.014,5.014,0,0,1-1.62.819,6.446,6.446,0,0,1-1.926.3,5.644,5.644,0,0,1-2.637-.576,4.038,4.038,0,0,1-1.7-1.638,5.082,5.082,0,0,1-.594-2.52,5.2,5.2,0,0,1,.576-2.484,4.264,4.264,0,0,1,1.575-1.683,4.423,4.423,0,0,1,2.331-.6,4.191,4.191,0,0,1,2.214.567,3.737,3.737,0,0,1,1.44,1.6,5.559,5.559,0,0,1,.5,2.457v.4h-6.246l.036-1.35h4.59l-.7.558a2.707,2.707,0,0,0-.441-1.737,1.582,1.582,0,0,0-1.323-.585,1.714,1.714,0,0,0-1.449.675,3.218,3.218,0,0,0-.513,1.971,3.311,3.311,0,0,0,.6,2.214,2.333,2.333,0,0,0,1.845.684,4.47,4.47,0,0,0,1.422-.234,4.736,4.736,0,0,0,1.3-.666ZM-28.836.144a3.879,3.879,0,0,1-2.106-.576A3.8,3.8,0,0,1-32.364-2.07a5.737,5.737,0,0,1-.5-2.484,5.829,5.829,0,0,1,.513-2.511,4.04,4.04,0,0,1,1.422-1.692,3.706,3.706,0,0,1,2.1-.6,3.535,3.535,0,0,1,1.944.54A2.706,2.706,0,0,1-25.74-7.362l-.216.144V-9.126h2.682V0h-2.682V-1.872l.216.036A2.623,2.623,0,0,1-26.892-.378,3.626,3.626,0,0,1-28.836.144Zm.792-2.07A1.862,1.862,0,0,0-26.5-2.61a3.1,3.1,0,0,0,.549-1.98A3.14,3.14,0,0,0-26.5-6.579a1.852,1.852,0,0,0-1.539-.693,1.873,1.873,0,0,0-1.557.72,3.153,3.153,0,0,0-.567,2A3.03,3.03,0,0,0-29.619-2.6,1.913,1.913,0,0,0-28.044-1.926ZM-19.278,0V-6.516q0-.648-.027-1.3t-.117-1.305h2.556l.288,2.412-.288-.144a2.857,2.857,0,0,1,1.035-1.854,2.975,2.975,0,0,1,1.863-.63,2.541,2.541,0,0,1,.549.054A2.758,2.758,0,0,1-13-9.162l-.018,2.484a3.167,3.167,0,0,0-1.332-.306,2.445,2.445,0,0,0-1.215.27,1.852,1.852,0,0,0-.738.765A2.5,2.5,0,0,0-16.56-4.77V0Zm9.18,0V-6.516q.018-.63-.009-1.287t-.117-1.305l2.538-.018.2,1.782-.2-.018a3.4,3.4,0,0,1,1.3-1.476A3.786,3.786,0,0,1-4.446-9.36q3.222.018,3.222,3.834V0H-3.942V-5.4a2.273,2.273,0,0,0-.351-1.413A1.288,1.288,0,0,0-5.4-7.236a1.813,1.813,0,0,0-1.44.567,2.2,2.2,0,0,0-.54,1.557V0ZM9.792,0V-12.816h2.232L16.65-2.25h-.99l4.608-10.566h2.214V0H20L19.98-8.658l.648.162L17.046,0H15.228L11.574-8.5l.684-.162V0ZM31.05.144a5.358,5.358,0,0,1-2.556-.576,4.005,4.005,0,0,1-1.665-1.647,5.2,5.2,0,0,1-.585-2.529,5.145,5.145,0,0,1,.585-2.52,4.076,4.076,0,0,1,1.665-1.647A5.29,5.29,0,0,1,31.05-9.36a5.211,5.211,0,0,1,2.52.585,4.076,4.076,0,0,1,1.665,1.647,5.145,5.145,0,0,1,.585,2.52,5.2,5.2,0,0,1-.585,2.529A4.005,4.005,0,0,1,33.57-.432,5.277,5.277,0,0,1,31.05.144Zm0-2.07a1.869,1.869,0,0,0,1.53-.657,3.153,3.153,0,0,0,.54-2.025,3.119,3.119,0,0,0-.54-2.007,1.869,1.869,0,0,0-1.53-.657,1.916,1.916,0,0,0-1.557.657,3.082,3.082,0,0,0-.549,2.007,3.153,3.153,0,0,0,.54,2.025A1.91,1.91,0,0,0,31.05-1.926ZM39.366,0V-6.516q0-.648-.027-1.3t-.117-1.305h2.556l.288,2.412-.288-.144a2.857,2.857,0,0,1,1.035-1.854,2.975,2.975,0,0,1,1.863-.63,2.541,2.541,0,0,1,.549.054,2.758,2.758,0,0,1,.423.126L45.63-6.678A3.167,3.167,0,0,0,44.3-6.984a2.445,2.445,0,0,0-1.215.27,1.852,1.852,0,0,0-.738.765,2.5,2.5,0,0,0-.261,1.179V0ZM56.394-.972a5.014,5.014,0,0,1-1.62.819,6.446,6.446,0,0,1-1.926.3,5.644,5.644,0,0,1-2.637-.576,4.038,4.038,0,0,1-1.7-1.638,5.082,5.082,0,0,1-.594-2.52,5.2,5.2,0,0,1,.576-2.484,4.264,4.264,0,0,1,1.575-1.683,4.423,4.423,0,0,1,2.331-.6,4.191,4.191,0,0,1,2.214.567,3.737,3.737,0,0,1,1.44,1.6,5.559,5.559,0,0,1,.5,2.457v.4H50.31l.036-1.35h4.59l-.7.558a2.707,2.707,0,0,0-.441-1.737,1.582,1.582,0,0,0-1.323-.585,1.714,1.714,0,0,0-1.449.675,3.218,3.218,0,0,0-.513,1.971,3.311,3.311,0,0,0,.6,2.214,2.333,2.333,0,0,0,1.845.684,4.47,4.47,0,0,0,1.422-.234,4.736,4.736,0,0,0,1.3-.666Z" transform="translate(1488 623)"/>
  </g>
</svg>
