<svg xmlns="http://www.w3.org/2000/svg" width="33" height="27" viewBox="0 0 33 27">
  <defs>
    <style>
      .cls-1 {
        fill: #f3f1ea;
      }
    </style>
  </defs>
  <g id="Icon_feather-mail" data-name="Icon feather-mail" transform="translate(-1.5 -4.5)">
    <path id="Path_279" data-name="Path 279" class="cls-1" d="M6,4.5H30A4.505,4.505,0,0,1,34.5,9V27A4.505,4.505,0,0,1,30,31.5H6A4.505,4.505,0,0,1,1.5,27V9A4.505,4.505,0,0,1,6,4.5Zm24,24A1.5,1.5,0,0,0,31.5,27V9A1.5,1.5,0,0,0,30,7.5H6A1.5,1.5,0,0,0,4.5,9V27A1.5,1.5,0,0,0,6,28.5Z"/>
    <path id="Path_280" data-name="Path 280" class="cls-1" d="M18,21a1.5,1.5,0,0,1-.86-.271l-15-10.5A1.5,1.5,0,1,1,3.86,7.771L18,17.669l14.14-9.9a1.5,1.5,0,1,1,1.72,2.458l-15,10.5A1.5,1.5,0,0,1,18,21Z"/>
  </g>
</svg>
