<svg xmlns="http://www.w3.org/2000/svg" width="142.286" height="144.583" viewBox="0 0 142.286 144.583">
  <defs>
    <style>
      .cls-1 {
        fill: #58849b;
      }

      .cls-2 {
        fill: none;
        stroke: #58849b;
        stroke-miterlimit: 10;
        stroke-width: 5px;
      }
    </style>
  </defs>
  <g id="Group_121" data-name="Group 121" transform="translate(-263.681 -2535.781)">
    <g id="Component_2_12" data-name="Component 2 – 12" transform="translate(266.181 2538.281)">
      <g id="Group_11" data-name="Group 11" transform="translate(11.426 11.436)">
        <g id="Group_10" data-name="Group 10">
          <path id="Path_20" data-name="Path 20" class="cls-1" d="M1333.722,1630.728l-1.176-1.144a5.206,5.206,0,0,0,.967-1.049,1.087,1.087,0,0,0,.161-.91,2.513,2.513,0,0,0-.711-1.019l-7.63-7.461,1.287-1.543,7.618,7.451a4.648,4.648,0,0,1,1.285,1.864,2.435,2.435,0,0,1-.149,1.844A6.338,6.338,0,0,1,1333.722,1630.728Z" transform="translate(-1312.846 -1598.046)"/>
          <path id="Path_21" data-name="Path 21" class="cls-1" d="M1359.5,1598.647a5.708,5.708,0,0,1-2.621,1.082,4.345,4.345,0,0,1-2.51-.446,5.951,5.951,0,0,1-2.153-1.95,7.3,7.3,0,0,1-1.313-3,5.01,5.01,0,0,1,.3-2.815,5.248,5.248,0,0,1,1.884-2.259,5.671,5.671,0,0,1,2.609-1.073,4.393,4.393,0,0,1,2.517.442,5.9,5.9,0,0,1,2.159,1.945,7.278,7.278,0,0,1,1.316,3.018,5.018,5.018,0,0,1-.308,2.813A5.265,5.265,0,0,1,1359.5,1598.647Zm-.94-1.3a3,3,0,0,0,1.146-1.469,3.434,3.434,0,0,0,.063-1.934,6.324,6.324,0,0,0-1.053-2.2,4.034,4.034,0,0,0-2.249-1.748,2.913,2.913,0,0,0-2.443.565,3.05,3.05,0,0,0-1.171,1.487,3.384,3.384,0,0,0-.056,1.929,6.466,6.466,0,0,0,1.069,2.211,4.03,4.03,0,0,0,2.233,1.739A2.92,2.92,0,0,0,1358.558,1597.347Z" transform="translate(-1328.686 -1579.623)"/>
          <path id="Path_22" data-name="Path 22" class="cls-1" d="M1397.386,1581.883l-3.247-10.639,1.886-.739,3.232,10.645Z" transform="translate(-1357.923 -1567.263)"/>
          <path id="Path_23" data-name="Path 23" class="cls-1" d="M1423.012,1572.014l-.595-11.109,1.5-.2,6.79,7.474-.45.279-.442-8.536,1.853-.246.595,11.108-1.482.2-6.771-7.445.43-.309.442,8.536Z" transform="translate(-1376.737 -1559.678)"/>
          <path id="Path_24" data-name="Path 24" class="cls-1" d="M1497.88,1580.617a5.707,5.707,0,0,1-2.382-1.538,4.34,4.34,0,0,1-1.062-2.318,5.949,5.949,0,0,1,.376-2.88,7.3,7.3,0,0,1,1.72-2.789,5.008,5.008,0,0,1,2.484-1.359,5.242,5.242,0,0,1,2.929.263,5.674,5.674,0,0,1,2.368,1.533,4.4,4.4,0,0,1,1.07,2.321,5.9,5.9,0,0,1-.369,2.882,7.268,7.268,0,0,1-1.732,2.8,5.009,5.009,0,0,1-2.488,1.349A5.261,5.261,0,0,1,1497.88,1580.617Zm.534-1.513a2.994,2.994,0,0,0,1.86.1,3.431,3.431,0,0,0,1.625-1.049,6.316,6.316,0,0,0,1.211-2.12,4.035,4.035,0,0,0,.157-2.843,2.91,2.91,0,0,0-1.856-1.687,3.049,3.049,0,0,0-1.889-.116,3.381,3.381,0,0,0-1.618,1.052,6.473,6.473,0,0,0-1.209,2.138,4.035,4.035,0,0,0-.158,2.827A2.923,2.923,0,0,0,1498.414,1579.1Z" transform="translate(-1424.938 -1566.65)"/>
          <path id="Path_25" data-name="Path 25" class="cls-1" d="M1539.18,1601.055a4.588,4.588,0,0,1-2.008-3.122,4.486,4.486,0,0,1,1.448-3.344l4.438-4.771,1.55,1.229-4.457,4.8q-2.121,2.274.077,4.016a2.7,2.7,0,0,0,1.908.677,3.207,3.207,0,0,0,1.989-1.206l4.645-4.983,1.551,1.228-4.546,4.884a5.017,5.017,0,0,1-3.215,1.825A4.8,4.8,0,0,1,1539.18,1601.055Z" transform="translate(-1451.842 -1580.79)"/>
          <path id="Path_26" data-name="Path 26" class="cls-1" d="M1565.613,1634.325l-1.1-1.641,9.68-5.481,2.748,4.084a3.943,3.943,0,0,1,.815,2.662,2.777,2.777,0,0,1-1.314,2.01,3.18,3.18,0,0,1-2.59.559,4.4,4.4,0,0,1-2.454-2.029l.624.481a1.933,1.933,0,0,1,.387,1.232,2.365,2.365,0,0,1-.619,1.27l-2.192,2.77-1.173-1.745,2.428-3a1.066,1.066,0,0,0,.29-.881,2.469,2.469,0,0,0-.414-.951l-1.218-1.81,1.345-.792,1.73,2.572a2.52,2.52,0,0,0,1.288,1.1,1.64,1.64,0,0,0,1.416-.3,1.418,1.418,0,0,0,.71-1.051,2.274,2.274,0,0,0-.487-1.409l-1.582-2.352Z" transform="translate(-1470.996 -1604.408)"/>
          <path id="Path_27" data-name="Path 27" class="cls-1" d="M1594.989,1704.914a5.428,5.428,0,0,1,.257-2.74,4.281,4.281,0,0,1,1.557-1.984,6.027,6.027,0,0,1,2.708-1,7.007,7.007,0,0,1,3.281.246,5.049,5.049,0,0,1,2.359,1.647,5.726,5.726,0,0,1,1.148,2.844,6.842,6.842,0,0,1-.029,2.174,4.808,4.808,0,0,1-.735,1.847l-1.559-.586a4.8,4.8,0,0,0,.677-1.525,4.493,4.493,0,0,0,.05-1.627,3.469,3.469,0,0,0-.81-1.877,3.421,3.421,0,0,0-1.7-1.023,6.02,6.02,0,0,0-2.419-.1,4,4,0,0,0-2.551,1.171,2.894,2.894,0,0,0-.615,2.428,4.472,4.472,0,0,0,.478,1.459,6.018,6.018,0,0,0,1.087,1.438l-1.375.741a4.312,4.312,0,0,1-1.18-1.48A6.466,6.466,0,0,1,1594.989,1704.914Z" transform="translate(-1492.301 -1652.245)"/>
          <path id="Path_28" data-name="Path 28" class="cls-1" d="M1593.833,1748.1a5.7,5.7,0,0,1,1.089-2.619,4.346,4.346,0,0,1,2.091-1.458,5.947,5.947,0,0,1,2.9-.141,7.3,7.3,0,0,1,3.05,1.2,5.02,5.02,0,0,1,1.78,2.2,5.248,5.248,0,0,1,.263,2.93,5.672,5.672,0,0,1-1.087,2.6,4.392,4.392,0,0,1-2.093,1.466,5.9,5.9,0,0,1-2.9.15,7.271,7.271,0,0,1-3.065-1.207,5.01,5.01,0,0,1-1.77-2.208A5.256,5.256,0,0,1,1593.833,1748.1Zm1.584.256a3,3,0,0,0,.228,1.848,3.435,3.435,0,0,0,1.322,1.413,6.329,6.329,0,0,0,2.3.814,4.034,4.034,0,0,0,2.826-.353,2.911,2.911,0,0,0,1.329-2.126,3.049,3.049,0,0,0-.223-1.879,3.378,3.378,0,0,0-1.323-1.4,6.478,6.478,0,0,0-2.319-.809,4.033,4.033,0,0,0-2.809.347A2.924,2.924,0,0,0,1595.417,1748.358Z" transform="translate(-1491.472 -1681.795)"/>
          <path id="Path_29" data-name="Path 29" class="cls-1" d="M1576.035,1785.432l9.273,6.142-.78,1.4-10-1.663.341-.612,5.972,8.9-.781,1.4-9.273-6.143.871-1.565,6.862,4.551-.374.415-5.056-7.538.644-1.156,8.465,1.414-.164.551-6.869-4.537Z" transform="translate(-1475.393 -1708.98)"/>
          <path id="Path_30" data-name="Path 30" class="cls-1" d="M1544.117,1826.724l6.588,8.962-1.215,1.047-8.816-5.009.531-.457,2.536,10.416-1.215,1.047-6.588-8.962,1.357-1.169,4.873,6.636-.494.262-2.148-8.819,1-.864,7.459,4.246-.343.46-4.885-6.626Z" transform="translate(-1450.984 -1735.053)"/>
          <path id="Path_31" data-name="Path 31" class="cls-1" d="M1503.014,1860.979a4.588,4.588,0,0,1,3.707-.2,4.488,4.488,0,0,1,2.185,2.917l1.941,6.219-1.836.737-1.953-6.248q-.923-2.97-3.525-1.926A2.7,2.7,0,0,0,1502,1863.8a3.211,3.211,0,0,0,.06,2.326l2.023,6.506-1.836.736-1.985-6.37a5.015,5.015,0,0,1,.011-3.7A4.8,4.8,0,0,1,1503.014,1860.979Z" transform="translate(-1428.652 -1758.696)"/>
          <path id="Path_32" data-name="Path 32" class="cls-1" d="M1462.338,1871.179l-.161,11.123-1.508.1-6.267-7.917.468-.248-.139,8.546-1.866.12.161-11.124,1.492-.1,6.249,7.887-.45.279.138-8.547Z" transform="translate(-1397.183 -1766.192)"/>
          <path id="Path_33" data-name="Path 33" class="cls-1" d="M1428.174,1870.337l-2.784,10.769-1.994-.354,2.8-10.766Z" transform="translate(-1377.604 -1765.356)"/>
          <path id="Path_34" data-name="Path 34" class="cls-1" d="M1386.5,1861.908l-4.293,8.439,3.369,1.391-.76,1.473-8.552-3.531.745-1.478,3.34,1.379,4.293-8.439Z" transform="translate(-1345.764 -1759.161)"/>
          <path id="Path_35" data-name="Path 35" class="cls-1" d="M1347.164,1842.408l-3.406,3.66.5-1.155-1.153,8.435-1.756-1.4,1.026-6.148.353.281-6.416,1.865-1.817-1.444,8.847-2.32-1.158.631,3.406-3.66Z" transform="translate(-1319.265 -1745.164)"/>
          <path id="Path_36" data-name="Path 36" class="cls-1" d="M1308.275,1789.281l-10.388,3.98-.65-1.364,5.025-8.758.4.342-7.987,3.044-.8-1.688,10.388-3.98.643,1.351-5,8.731-.426-.315,7.987-3.044Z" transform="translate(-1290.812 -1706.25)"/>
          <path id="Path_37" data-name="Path 37" class="cls-1" d="M1296.338,1740.355a5.7,5.7,0,0,1-.3,2.82,4.338,4.338,0,0,1-1.588,2,5.955,5.955,0,0,1-2.739.965,7.3,7.3,0,0,1-3.264-.274,5.008,5.008,0,0,1-2.334-1.6,5.247,5.247,0,0,1-1.09-2.732,5.676,5.676,0,0,1,.3-2.8,4.4,4.4,0,0,1,1.587-2,5.9,5.9,0,0,1,2.739-.973,7.267,7.267,0,0,1,3.281.28,5.015,5.015,0,0,1,2.328,1.61A5.26,5.26,0,0,1,1296.338,1740.355Zm-1.59.207a3,3,0,0,0-.747-1.706,3.435,3.435,0,0,0-1.67-.976,6.321,6.321,0,0,0-2.438-.122,4.033,4.033,0,0,0-2.608,1.145,2.91,2.91,0,0,0-.666,2.417,3.046,3.046,0,0,0,.75,1.737,3.381,3.381,0,0,0,1.67.968,6.486,6.486,0,0,0,2.453.113,4.037,4.037,0,0,0,2.593-1.136A2.924,2.924,0,0,0,1294.748,1740.563Z" transform="translate(-1284.576 -1676.445)"/>
          <path id="Path_38" data-name="Path 38" class="cls-1" d="M1295.144,1677.717l-11.5.1.513-1.942,9.411.055-.147.557-7.818-6.079.385-1.4,9.4.052-.135.512-7.83-6.034.49-1.852,9.5,7.443-.418,1.581-8.815.07.1-.361,7.287,5.713Z" transform="translate(-1283.646 -1627.119)"/>
        </g>
      </g>
      <ellipse id="Ellipse_7" data-name="Ellipse 7" class="cls-2" cx="68.643" cy="69.792" rx="68.643" ry="69.792"/>
    </g>
  </g>
</svg>
