<svg xmlns="http://www.w3.org/2000/svg" width="130.556" height="91.328" viewBox="0 0 130.556 91.328">
  <defs>
    <style>
      .cls-1 {
        fill: #58849b;
      }
    </style>
  </defs>
  <g id="Group_4" data-name="Group 4" transform="translate(0)">
    <path id="Path_10" data-name="Path 10" class="cls-1" d="M2231.056,771.8c-8.587-.124-17.162-.4-25.537-2.6-4.459-1.172-4.486-1.195-4.441-5.67a100.45,100.45,0,0,1,.242-11.383c1.151-9.294,5.775-16.426,13.427-21.715,1.188-.822,1.953-.739,3.083.222a20.273,20.273,0,0,0,26.676-.005,2.12,2.12,0,0,1,3.079-.21c8.23,5.659,12.894,13.418,13.577,23.391.283,4.131.028,8.3.13,12.445.036,1.43-.836,1.776-1.861,2.129a61.078,61.078,0,0,1-14.674,2.809A130.027,130.027,0,0,1,2231.056,771.8Zm.152-3.891c2.6,0,5.2.091,7.8-.019a88.111,88.111,0,0,0,16.485-2.151c1.451-.341,2.138-.953,2.055-2.573-.14-2.734.027-5.482-.069-8.22a26.056,26.056,0,0,0-9.773-19.773,1.817,1.817,0,0,0-2.562-.262c-9.256,5.99-18.587,6.043-27.871.054a1.846,1.846,0,0,0-2.576.149,27.029,27.029,0,0,0-8.8,13.1c-1.507,4.814-.894,9.754-1.135,14.649-.093,1.892.646,2.559,2.364,2.953A99.056,99.056,0,0,0,2231.208,767.912Z" transform="translate(-2165.857 -680.489)"/>
    <path id="Path_11" data-name="Path 11" class="cls-1" d="M2162.419,689.227a21.9,21.9,0,0,0,3.219,13.375c.741,1.181-.581,1.4-1.163,1.807a33.525,33.525,0,0,0-13.792,19.553,24.117,24.117,0,0,0-.887,5.612c-.027,1.178-.51,1.6-1.666,1.582-9.433-.14-18.834-.472-27.979-3.2-1.737-.518-2.536-1.264-2.438-3.222.183-3.648-.065-7.316.112-10.964.5-10.258,5.163-18.207,13.6-23.994.922-.632,1.612-.988,2.746-.073,8.778,7.089,18.428,7.061,27.335.041A10.254,10.254,0,0,1,2162.419,689.227Zm-40.959,28.788a37.552,37.552,0,0,1-.027,4c-.205,1.9.547,2.71,2.417,3.135a112.039,112.039,0,0,0,20.3,2.253c1.589.065,2.17-.413,2.453-2.015a33.56,33.56,0,0,1,11.055-20.115c2.645-2.284,3.528-4.134,1.961-7.306-.647-1.308-.848-1.854-2.444-1.2a23.418,23.418,0,0,1-22.552-2.049c-1.645-1.052-2.579-.97-3.95.261C2123.787,701.157,2120.965,708.911,2121.46,718.015Z" transform="translate(-2117.705 -656.958)"/>
    <path id="Path_12" data-name="Path 12" class="cls-1" d="M2316.732,689.119a21.772,21.772,0,0,0,9.839,5.3,19.759,19.759,0,0,0,17.748-4.344c1.4-1.18,2.264-1.033,3.588-.1,8.368,5.918,12.863,13.959,13.3,24.194.156,3.65-.049,7.315.082,10.967.058,1.622-.7,2.241-2.049,2.674a67.362,67.362,0,0,1-15.532,2.8c-4.132.316-8.288.322-12.43.534-1.293.066-1.878-.273-2.011-1.686-1.01-10.749-6.077-19.127-14.957-25.224-.7-.482-1.349-.74-.764-1.935C2316.516,696.229,2316.469,696.206,2316.732,689.119Zm40.78,29c0-1.125.026-2.251,0-3.376a26.5,26.5,0,0,0-9.433-19.974,2.36,2.36,0,0,0-3.44-.23,23.889,23.889,0,0,1-20.167,3.214c-1.468-.39-3.168-1.943-4.234-1.15s-1.144,2.9-1.776,4.373a1.452,1.452,0,0,0,.474,2A36.72,36.72,0,0,1,2332.619,726a1.426,1.426,0,0,0,1.7,1.382,105.488,105.488,0,0,0,19.282-1.933c3.929-.843,3.916-.908,3.918-5.012Q2357.517,719.277,2357.512,718.117Z" transform="translate(-2230.738 -656.94)"/>
    <path id="Path_13" data-name="Path 13" class="cls-1" d="M2182.669,630.273A17.341,17.341,0,1,1,2165.4,612.9,17.288,17.288,0,0,1,2182.669,630.273Zm-3.743.239a13.606,13.606,0,1,0-13.75,13.38A13.591,13.591,0,0,0,2178.926,630.512Z" transform="translate(-2135.203 -612.895)"/>
    <path id="Path_14" data-name="Path 14" class="cls-1" d="M2331.807,647.588a17.347,17.347,0,1,1,17.277-17.343A17.388,17.388,0,0,1,2331.807,647.588ZM2318.1,630.2a13.642,13.642,0,1,0,13.8-13.552A13.716,13.716,0,0,0,2318.1,630.2Z" transform="translate(-2231.331 -612.895)"/>
    <path id="Path_15" data-name="Path 15" class="cls-1" d="M2231.324,670.62a17.365,17.365,0,1,1,17.067,17.576A17.379,17.379,0,0,1,2231.324,670.62Zm17.3-13.423a13.647,13.647,0,1,0,13.684,13.712A13.746,13.746,0,0,0,2248.62,657.2Z" transform="translate(-2183.357 -636.335)"/>
  </g>
</svg>
