<svg xmlns="http://www.w3.org/2000/svg" width="28.61" height="28.614" viewBox="0 0 28.61 28.614">
  <defs>
    <style>
      .cls-1 {
        fill: #f3f1ea;
      }
    </style>
  </defs>
  <path id="Path_281" data-name="Path 281" class="cls-1" d="M1506.487,337.021c0,5.687-1.362,6.526-6.446,4.093a14.566,14.566,0,0,1-7.921-15.962c1.134-6.068,6.958-11.027,13.328-11.349a14.377,14.377,0,0,1,14.309,10.022,14.089,14.089,0,0,1-5.929,16.362c-.938.59-1.928,1.676-3.088.964-.958-.587-.687-1.928-.5-2.843.538-2.588-1.9-6.166,2.647-7.573a1.633,1.633,0,0,0-.846-3.011c-1.206-.2-1.908-.528-1.805-1.868.085-1.111.357-2.094,1.685-2.121,1.367-.028,1.787-.73,1.667-1.953-.151-1.543-1.363-1.228-2.322-1.285-1.945-.114-3.7.425-4.331,2.409-.67,2.111-.111,4.771-3.259,5.518-.449.107-.519,2.259.063,2.384C1507.789,331.673,1506.163,334.8,1506.487,337.021Z" transform="translate(-1491.858 -313.786)"/>
</svg>
