<?xml version="1.0" encoding="UTF-8"?>
<svg id="Layer_2" data-name="Layer 2" xmlns="http://www.w3.org/2000/svg" xmlns:xlink="http://www.w3.org/1999/xlink" viewBox="0 0 175 175">
  <defs>
    <style>
      .cls-1 {
        fill: #fff;
      }

      .cls-2 {
        fill: #fba474;
      }

      .cls-3 {
        clip-path: url(#clippath);
      }

      .cls-4 {
        fill: none;
      }

      .cls-5 {
        fill: #58849b;
      }
    </style>
    <clipPath id="clippath">
      <rect class="cls-4" width="175" height="175"/>
    </clipPath>
  </defs>
  <g id="Layer_1-2" data-name="Layer 1">
    <g class="cls-3">
      <g>
        <g id="Group_361" data-name="Group 361">
          <circle id="Ellipse_50" data-name="Ellipse 50" class="cls-2" cx="90.42" cy="64.22" r="50"/>
          <g id="Group_360" data-name="Group 360">
            <path id="Path_282" data-name="Path 282" class="cls-1" d="M76.37,63.3c-.49-.9-.82-1.51-1.14-2.13-.3-.57-.69-1.19,.09-1.65,.76-.46,1.18,.13,1.5,.7,.88,1.6,1.71,3.24,2.6,4.84,1.5,2.96,4.46,4.9,7.77,5.11,2.54,.32,4.98-1.08,5.98-3.44,1.01-2.34,.38-5.08-1.57-6.73-.69-.6-1.42-1.15-2.19-1.65-.5-.36-.91-.78-.56-1.4,.36-.64,.94-.47,1.48-.2,.26,.12,.5,.27,.71,.45,1.75,1.7,3.38,2.69,4.5-.59,.14-.44,.62-.69,1.06-.55,.06,.02,.11,.04,.17,.07,.66,.34,.6,.92,.26,1.44-1.01,1.46-1.56,3.19-1.57,4.96,.02,2.46,.96,4.42,3.2,5.52,2.31,1.14,4.61,1.18,6.73-.54,.47-.38,.89-1.08,1.6-.47,.8,.69,.21,1.33-.29,1.78-.85,.76-.35,1.23,.11,1.91,1.54,2.13,1.06,5.1-1.06,6.65-.25,.18-.53,.34-.81,.47-.64,.26-1.4,.65-1.83-.24-.39-.8,.28-1.13,.87-1.39,1.4-.49,2.18-2,1.76-3.43-.34-1.65-1.68-1.92-3.06-2.06-2.49-.37-5,.57-6.64,2.48-.94,1.07-1.94,2.08-3.45,2.25-.44,.05-1.08,.26-1.25-.41-.12-.51,.15-1.03,.63-1.22,2.12-.49,2.83-2.71,4.57-3.62,1.06-.55,.39-1.09-.11-1.35-.57-.29-.93-1.97-1.88-.57-1.12,1.73-2.83,2.99-4.81,3.55-.74,.21-1.9,4.1-1.52,4.8,.25,.46,.55,.82,1.15,.71,.28-.05,.56-.08,.83-.15,1.84-.44,3.65,.19,5.44,.13,1.96-.07,1.65-3.01,3.47-3.64,.26-.09,.46-.33,.72-.43,.74-.27,1.64-1.13,2.25-.15,.72,1.15-.57,1.33-1.22,1.71-3.16,1.89-3.12,4.08,.09,5.94,.39,.3,.93,.32,1.34,.05,1.47-.87,3.17-1.26,4.87-1.13,.89,.07,1.06-.45,1.1-1.16,.09-1.98,.74-3.9,1.88-5.53,.4-.42,.51-1.03,.29-1.56-.85-1.79-1.32-3.73-1.37-5.71-.01-.89-.85-1.03-1.41-1.41-2.12-1.39-3.18-3.93-2.7-6.42,.14-.62,.26-1.36,1.1-1.29s.83,.79,.83,1.45c0,1.12-.23,2.28,.43,3.3,.49,.76,1.2,1.85,2.04,1.36s1.79-1.68,1.12-2.87c-1.41-2.45-2.02-5.29-1.74-8.1-6.59,1.58-8.82,6.26-5.85,11.92,.36,.69,.96,1.44-.08,1.95-.9,.44-1.22-.47-1.56-1.03-2.18-3.58-2.29-7.16,.29-10.82-1.11-.52-2.41-.45-3.46,.18-3.25,1.66-7.08,1.79-10.44,.35-1.89-.74-4.22-1-5.36,.33-1.18,1.37-.42,3.64,.52,5.39,1.1,1.91,2.79,3.41,4.8,4.3,.54,.27,1.31,.54,.97,1.37-.39,.93-1.1,.57-1.79,.29-4.3-1.63-7.03-5.87-6.73-10.46,.04-1.12-.39-1.45-1.27-2.01-2.43-1.53-4.7-1.69-7.2-.25-.88,.51-1.61,.84-1.2,2.01,.02,.07,.02,.14,.04,.21,.65,2.5-1.69,4.81-.82,7.1,.91,2.38,1.74,4.58,.95,7.11-.27,.86,.3,1.48,.66,2.15,1.77,3.34,1.89,6.62-.49,9.71-.81,1.06-.41,1.57,.46,2.17,1.74,1.24,3.9,1.76,6.01,1.44,.77-.11,1.53-.24,2.3-.34,.54-.07,1.04,.06,1.18,.63,.17,.71-.29,.99-.92,1.14-3.5,.86-6.88,.88-9.8-1.6-1-.97-2.45-1.33-3.79-.95-6.39,1.39-10.93-4.09-8.85-10.63,.42-1.02,.29-2.19-.34-3.09-1.51-2.13-1.66-4.94-.39-7.22,.49-.77,.52-1.75,.07-2.55-.99-1.85-.84-4.11,.39-5.81,.2-.29,.57-.7,.49-.9-1.2-2.95,.85-5.7,.48-8.58-.7-5.36,2.7-9.61,7.61-9.48,.35,0,.79-.06,1.04,.11,2.75,1.88,5.94,2.04,9.09,2.5,1.14,.2,2.13,.9,2.72,1.9,.99,1.69,2.28,1.65,3.92,1.26,1.93-.46,3.94-.63,5.7,.64,.77,.55,1.16-.01,1.61-.42,2.93-2.64,6.24-3.78,10.12-2.52,.67,.27,1.44,.01,1.81-.61,1.28-1.72,3.23-2.83,5.37-3.03,1.25-.1,1.56-1,2.1-1.8,2.04-3,5.43-4.23,9.32-3.38,3.52,.76,5.93,3.17,6.49,6.41,.24,1.33,.08,2.7-.47,3.93-.71,1.7-.81,3.59-.27,5.35,1.12,3.93,.39,8.16-1.99,11.48-.6,.7-.68,1.7-.19,2.48,1.76,3.21,1.94,7.05,.48,10.41-.35,.82-.07,1.24,.41,1.83,4.14,5.14,2.45,13.22-3.38,16.35-.67,.36-1.44,.55-1.74,1.41-1.84,5.34-9.14,6.44-13.52,4.09-1.17-.69-2.61-.74-3.83-.13-5.75,2.19-10.04-1.86-11.23-6.72-.12-.49-.1-1.03,.53-1.2,.5-.15,1.02,.14,1.16,.63,0,0,0,0,0,0,.42,1.04,.91,2.06,1.47,3.03,2.18,3.35,5.72,4,8.86,1.54,.94-.74,1.49-.4,2.19,.15,2.2,1.73,5.06,2.38,7.78,1.75,3.24-.65,4.97-2.7,5.13-6.01,.03-.63-.1-1.37,.61-1.66,.82-.34,1.09,.31,1.33,.95,.33,.89,.84,.23,1.13,.03,4.72-3.21,5.28-11,1.33-13.53-1.01-.65-1.05-1.29-.5-2.26,2-3.52,1.66-7.03-.25-10.46-.55-.98-.96-1.78-.05-2.84,3.15-3.67,3.48-7.89,2.03-12.31-.45-1.25-.36-2.63,.26-3.81,1.72-3.63,.72-6.89-2.44-8.49-3.62-1.84-7.69-.74-9.43,2.75-.7,1.41-1.48,2.02-3.05,1.89-1.22,0-2.38,.48-3.25,1.33-1.01,.82-1.85,1.63-.23,2.72,.54,.36,.93,.96,.29,1.6-.54,.54-1.01,.11-1.49-.2-5.41-3.5-8.18-3.25-12.62,1.22-.68,.69-1.23,1.11-2.09,.29-2.05-1.95-4.37-1.7-6.68-.63-1.43,.66-2.28,.68-3.2-.93-2.16-3.78-6.35-4.27-9.68-1.37-.53,.46-1.01,1.51-1.87,.66-.95-.94,.23-1.43,.66-2.06,.33-.5,1.24-.77,.91-1.5-.3-.66-1.13-.8-1.81-.95-3.46-.71-6.84,2.69-6.4,6.53,.2,1.79,.82,3.46-.54,5.18-.67,.85-.29,2.2,.23,3.25,.5,1.02,.31,1.74-.48,2.61-1.89,2.09-1.55,3.78,.85,5.27,.9,.56,.52,1.12-.01,1.71-2.97,3.29-3.08,4.87-.32,8.39,.85,1.08,.3,1.75-.16,2.63-2.31,4.34,.49,9.21,5.26,9.16,2.45-.02,4.39-.98,5.44-3.3,.97-2.41,.54-5.16-1.1-7.17-.67-.72-1.51-.64-2.34-.7-.64-.05-1.38-.15-1.34-.99,.03-.67,.67-.79,1.26-.88,2.4-.37,3.01-1.39,2.19-3.74-.25-.73-.61-1.43-1.06-2.06-.78-.86-.84-2.15-.15-3.08,.74-1.29,1.1-2.77,1.01-4.26-.01-1.63-.44-2.78-2.26-3.27-1.66-.49-2.97-1.79-3.48-3.44-.21-.58-.3-1.12,.34-1.46,.7-.38,1,.17,1.33,.63,2.46,3.48,5.68,4.12,9.19,1.67,1.23-.86,1.95-1.03,3.21,.08,2.96,2.61,7.57,2.54,10.72,.09,.49-.38,.92-1,1.62-.43,.71,.58,.26,1.15-.16,1.63-.89,1.03,.02,1.17,.67,1.32,2.54,.7,5.26,.43,7.6-.78,1.09-.63,2.36-.88,3.62-.71,1.84,.24,3.7-.1,5.33-.99,2.4-1.32,4.77-2.7,7.08-4.18,1.51-1.07,2.6-2.64,3.07-4.43,.22-.68,.46-1.47,1.43-1.06,.79,.34,.52,1.05,.33,1.65-.67,2.4-2.22,4.47-4.33,5.79-3.05,1.85-4.37,4.67-2.86,7.93,1.3,2.82,1.9,5.1,.27,8.05-1.11,2.01-.16,4.45,.95,6.47,.66,.94,.55,2.22-.25,3.03-1.99,2.4-2.43,5.72-1.13,8.56,.29,.71,1.1,1.68-.05,2.18-1.08,.47-1.32-.73-1.71-1.41-.99-1.72-2.65-2.38-4.85-1-2.45,1.53-3.83,1.04-5.74-.91-2.83-2.88-7.58-3.09-10.75-1.01-3.08,2.02-4.1,5.49-2.74,9.72,.27,.95,.15,1.97-.33,2.83-.86,1.79-1.07,3.84-.59,5.77,.13,1.03,1.06,1.76,2.09,1.64,1.76-.05,3.52-.05,5.29,0,1.37,.04,1.93-.6,1.91-1.9-.01-.49,0-.98,.07-1.47,.03-.44,.41-.77,.85-.74,0,0,0,0,.01,0,.48,.02,.7,.34,.84,.79,.89,2.9-.63,5.08-3.7,5.17-1.9,.06-3.8,0-5.71,0-1.62,.12-3.07-1-3.36-2.6-.32-1.18-.78-2.54-.3-3.52,2.03-4.22-.77-8.78,1.12-12.96,.55-1.22,1.32-2.33,2.26-3.28,.53-.54,1.71-.85,1.03-1.97-.54-.97-1.68-1.44-2.74-1.12-1.34,.33-2.33,1.28-3.31,2.19-1.11,1.11-2.56,1.8-4.11,1.97-.75,.06-1.56-.03-1.69-.87-.18-1.09,.78-.91,1.43-.97,1.34-.18,2.57-.85,3.45-1.88,1.55-1.6,3.37-2.57,5.67-2.22,1.11,.17,1.53-.42,1.77-1.33,.33-1.25-.6-1.36-1.41-1.62-.94-.3-1.86-.63-2.78-.99-.68-.26-1.31-.94-2.04-.04-.63,.77-1.77,1.31-.86,2.62,.35,.36,.34,.93-.02,1.27-.07,.07-.16,.13-.25,.17-.37,.25-.88,.15-1.12-.23-.04-.07-.08-.14-.1-.21-.68-1.69-2.09-2.15-3.7-2.34-.42-.07-.82-.2-1.2-.4-.54-.25-1.02-.61-.74-1.3,.27-.66,.8-.69,1.4-.43,1.26,.69,2.78,.72,4.08,.1,1.09-.58,1.55-1.28,.6-2.5-1.17-1.5-2.46-2.46-4.48-2.17-.7,.1-1.77,.52-1.91-.62-.16-1.27,1.07-1.02,1.83-1.19,.61-.14,1.24-.16,2.15-.27Z"/>
          </g>
        </g>
        <g>
          <path class="cls-5" d="M21.54,146.16c-1.53,0-2.85-.32-3.96-.97s-1.97-1.57-2.56-2.78c-.59-1.21-.89-2.64-.89-4.28s.3-3.06,.89-4.26c.59-1.2,1.45-2.12,2.56-2.76s2.43-.97,3.96-.97c1.06,0,2.04,.16,2.96,.48,.92,.32,1.7,.8,2.34,1.43l-.79,1.69c-.73-.6-1.46-1.04-2.17-1.31-.71-.27-1.48-.41-2.32-.41-1.61,0-2.87,.52-3.76,1.57s-1.34,2.56-1.34,4.52,.44,3.48,1.33,4.54c.89,1.06,2.15,1.6,3.77,1.6,.84,0,1.61-.14,2.32-.41,.71-.27,1.43-.71,2.17-1.31l.79,1.69c-.65,.63-1.43,1.11-2.34,1.43-.92,.32-1.9,.48-2.96,.48Z"/>
          <path class="cls-5" d="M38.55,144.71c-.5,.44-1.13,.79-1.89,1.04-.76,.26-1.54,.38-2.33,.38-1.17,0-2.19-.23-3.04-.68-.85-.45-1.5-1.11-1.96-1.98-.46-.87-.68-1.89-.68-3.08s.22-2.15,.67-3.01c.45-.87,1.07-1.54,1.86-2.02,.79-.48,1.71-.73,2.75-.73s1.86,.22,2.57,.66c.72,.44,1.27,1.07,1.66,1.88,.39,.81,.58,1.79,.58,2.94v.37h-8.16l.02-1.32h6.84l-.64,.79c.01-1.19-.22-2.1-.7-2.73-.48-.63-1.2-.95-2.13-.95-.98,0-1.75,.35-2.31,1.04s-.84,1.67-.84,2.92c0,1.39,.3,2.43,.9,3.11,.6,.68,1.48,1.02,2.64,1.02,.63,0,1.24-.1,1.83-.31,.59-.21,1.14-.52,1.67-.95l.68,1.58Z"/>
          <path class="cls-5" d="M41.27,145.99v-16.19h2.22v16.19h-2.22Z"/>
          <path class="cls-5" d="M46.73,145.99v-16.19h2.22v16.19h-2.22Z"/>
          <path class="cls-5" d="M52.03,130.06h2.57v2.33h-2.57v-2.33Zm.15,15.93v-11.09h2.22v11.09h-2.22Z"/>
          <path class="cls-5" d="M61.93,146.14c-.98,0-1.84-.23-2.59-.69-.74-.46-1.31-1.12-1.72-1.98-.4-.86-.6-1.87-.6-3.02s.21-2.17,.62-3.05c.41-.87,.99-1.55,1.73-2.04,.74-.48,1.59-.73,2.56-.73s1.82,.24,2.52,.71c.7,.48,1.17,1.16,1.42,2.04l-.26,.18v-2.66h2.2v11.09h-2.2v-2.71l.26,.11c-.25,.88-.72,1.56-1.42,2.04-.7,.48-1.54,.71-2.52,.71Zm.53-1.76c1,0,1.77-.34,2.32-1.03,.55-.69,.83-1.67,.83-2.95s-.28-2.26-.83-2.95-1.32-1.03-2.32-1.03-1.8,.36-2.37,1.07c-.56,.71-.85,1.7-.85,2.96s.28,2.23,.85,2.92c.56,.68,1.35,1.02,2.37,1.02Z"/>
          <path class="cls-5" d="M75.86,146.14c-1.11,0-2.08-.23-2.89-.7-.81-.47-1.44-1.13-1.88-1.98-.44-.85-.66-1.86-.66-3.01s.23-2.17,.68-3.05c.45-.87,1.1-1.55,1.92-2.04,.83-.48,1.81-.73,2.94-.73,.76,0,1.5,.12,2.22,.37,.72,.25,1.31,.6,1.76,1.06l-.68,1.61c-.51-.41-1.03-.72-1.55-.92s-1.05-.31-1.59-.31c-1.06,0-1.89,.34-2.5,1.03-.61,.69-.91,1.67-.91,2.95s.3,2.25,.9,2.93c.6,.67,1.44,1.01,2.51,1.01,.53,0,1.06-.1,1.58-.31,.53-.21,1.05-.51,1.56-.92l.68,1.61c-.47,.44-1.07,.78-1.8,1.03-.73,.25-1.5,.37-2.29,.37Z"/>
          <path class="cls-5" d="M88.11,145.99v-15.66h5.5c1.69,0,3.12,.3,4.31,.91,1.19,.61,2.09,1.5,2.72,2.66,.62,1.17,.93,2.58,.93,4.23s-.32,3.09-.95,4.26-1.54,2.06-2.73,2.67c-1.19,.62-2.62,.92-4.29,.92h-5.5Zm2.27-1.89h3.08c1.92,0,3.37-.5,4.33-1.5,.97-1,1.45-2.49,1.45-4.47,0-3.95-1.93-5.92-5.79-5.92h-3.08v11.88Z"/>
          <path class="cls-5" d="M104.3,130.06h2.57v2.33h-2.57v-2.33Zm.15,15.93v-11.09h2.22v11.09h-2.22Z"/>
          <path class="cls-5" d="M113.81,146.14c-1.94,0-3.47-.47-4.6-1.41l.68-1.61c.59,.46,1.21,.79,1.86,1,.65,.21,1.36,.32,2.12,.32s1.34-.13,1.74-.38c.4-.26,.59-.62,.59-1.09,0-.4-.14-.71-.41-.93s-.73-.42-1.38-.58l-1.87-.44c-.97-.21-1.71-.57-2.21-1.09-.51-.52-.76-1.17-.76-1.95,0-.66,.18-1.24,.55-1.74,.37-.5,.88-.89,1.54-1.18,.66-.29,1.43-.43,2.31-.43,.79,0,1.54,.12,2.24,.36s1.31,.6,1.83,1.07l-.68,1.56c-.54-.42-1.1-.74-1.66-.96-.57-.21-1.14-.32-1.73-.32-.72,0-1.28,.14-1.67,.41-.4,.27-.59,.65-.59,1.13,0,.4,.12,.71,.36,.94,.24,.23,.65,.41,1.22,.54l1.87,.46c1.07,.23,1.85,.61,2.35,1.12s.75,1.17,.75,1.98c0,.98-.4,1.76-1.2,2.34-.8,.58-1.89,.87-3.27,.87Z"/>
          <path class="cls-5" d="M130.15,144.71c-.5,.44-1.13,.79-1.89,1.04-.76,.26-1.54,.38-2.33,.38-1.17,0-2.19-.23-3.04-.68-.85-.45-1.5-1.11-1.96-1.98-.46-.87-.68-1.89-.68-3.08s.22-2.15,.67-3.01c.45-.87,1.07-1.54,1.86-2.02,.79-.48,1.71-.73,2.75-.73s1.86,.22,2.57,.66c.72,.44,1.27,1.07,1.66,1.88,.39,.81,.58,1.79,.58,2.94v.37h-8.16l.02-1.32h6.84l-.64,.79c.01-1.19-.22-2.1-.7-2.73-.48-.63-1.2-.95-2.13-.95-.98,0-1.75,.35-2.31,1.04s-.84,1.67-.84,2.92c0,1.39,.3,2.43,.9,3.11,.6,.68,1.48,1.02,2.64,1.02,.63,0,1.24-.1,1.83-.31,.59-.21,1.14-.52,1.67-.95l.68,1.58Z"/>
          <path class="cls-5" d="M137.17,146.14c-.98,0-1.84-.23-2.59-.69-.74-.46-1.31-1.12-1.72-1.98-.4-.86-.6-1.87-.6-3.02s.21-2.17,.62-3.05c.41-.87,.99-1.55,1.73-2.04,.74-.48,1.59-.73,2.56-.73s1.82,.24,2.52,.71c.7,.48,1.17,1.16,1.42,2.04l-.26,.18v-2.66h2.2v11.09h-2.2v-2.71l.26,.11c-.25,.88-.72,1.56-1.42,2.04-.7,.48-1.54,.71-2.52,.71Zm.53-1.76c1,0,1.77-.34,2.32-1.03,.55-.69,.83-1.67,.83-2.95s-.28-2.26-.83-2.95-1.32-1.03-2.32-1.03-1.8,.36-2.37,1.07c-.56,.71-.85,1.7-.85,2.96s.28,2.23,.85,2.92c.56,.68,1.35,1.02,2.37,1.02Z"/>
          <path class="cls-5" d="M150.17,146.14c-1.94,0-3.47-.47-4.6-1.41l.68-1.61c.59,.46,1.21,.79,1.86,1,.65,.21,1.36,.32,2.12,.32s1.34-.13,1.74-.38c.4-.26,.59-.62,.59-1.09,0-.4-.14-.71-.41-.93s-.73-.42-1.38-.58l-1.87-.44c-.97-.21-1.71-.57-2.21-1.09-.51-.52-.76-1.17-.76-1.95,0-.66,.18-1.24,.55-1.74,.37-.5,.88-.89,1.54-1.18,.66-.29,1.43-.43,2.31-.43,.79,0,1.54,.12,2.24,.36s1.31,.6,1.83,1.07l-.68,1.56c-.54-.42-1.1-.74-1.66-.96-.57-.21-1.14-.32-1.73-.32-.72,0-1.28,.14-1.67,.41-.4,.27-.59,.65-.59,1.13,0,.4,.12,.71,.36,.94,.24,.23,.65,.41,1.22,.54l1.87,.46c1.07,.23,1.85,.61,2.35,1.12s.75,1.17,.75,1.98c0,.98-.4,1.76-1.2,2.34-.8,.58-1.89,.87-3.27,.87Z"/>
          <path class="cls-5" d="M166.52,144.71c-.5,.44-1.13,.79-1.89,1.04-.76,.26-1.54,.38-2.33,.38-1.17,0-2.19-.23-3.04-.68-.85-.45-1.5-1.11-1.96-1.98-.46-.87-.68-1.89-.68-3.08s.22-2.15,.67-3.01c.45-.87,1.07-1.54,1.86-2.02,.79-.48,1.71-.73,2.75-.73s1.86,.22,2.57,.66c.72,.44,1.27,1.07,1.66,1.88,.39,.81,.58,1.79,.58,2.94v.37h-8.16l.02-1.32h6.84l-.64,.79c.01-1.19-.22-2.1-.7-2.73-.48-.63-1.2-.95-2.13-.95-.98,0-1.75,.35-2.31,1.04s-.84,1.67-.84,2.92c0,1.39,.3,2.43,.9,3.11,.6,.68,1.48,1.02,2.64,1.02,.63,0,1.24-.1,1.83-.31,.59-.21,1.14-.52,1.67-.95l.68,1.58Z"/>
        </g>
      </g>
    </g>
  </g>
</svg>