<?xml version="1.0" encoding="UTF-8"?>
<svg id="Layer_2" data-name="Layer 2" xmlns="http://www.w3.org/2000/svg" xmlns:xlink="http://www.w3.org/1999/xlink" viewBox="0 0 175 175">
  <defs>
    <style>
      .cls-1 {
        fill: #fff;
      }

      .cls-2 {
        fill: #fba474;
      }

      .cls-3 {
        clip-path: url(#clippath);
      }

      .cls-4 {
        fill: none;
      }

      .cls-5 {
        fill: #58849b;
      }
    </style>
    <clipPath id="clippath">
      <rect class="cls-4" width="175" height="175"/>
    </clipPath>
  </defs>
  <g id="Layer_1-2" data-name="Layer 1">
    <g class="cls-3">
      <g>
        <g>
          <path class="cls-5" d="M16.72,150.43c-1.6,0-2.97-.32-4.11-.96-1.14-.64-2.02-1.55-2.63-2.75s-.91-2.64-.91-4.32,.3-3.09,.91-4.29c.61-1.2,1.48-2.12,2.61-2.75,1.13-.63,2.46-.95,4-.95,1.1,0,2.12,.16,3.05,.48,.93,.32,1.73,.8,2.39,1.43l-.81,1.69c-.76-.62-1.5-1.06-2.22-1.33-.72-.27-1.51-.41-2.38-.41-1.7,0-3,.52-3.88,1.56-.89,1.04-1.33,2.56-1.33,4.55s.46,3.58,1.38,4.63c.92,1.05,2.26,1.57,4.04,1.57,.7,0,1.39-.07,2.07-.2,.67-.13,1.3-.31,1.87-.53l-.53,.99v-5.21h-3.65v-1.69h5.72v7.37c-.44,.23-.96,.43-1.57,.59-.61,.16-1.25,.29-1.94,.37-.68,.09-1.37,.13-2.06,.13Z"/>
          <path class="cls-5" d="M25.54,150.25v-7.96c0-.51-.01-1.03-.03-1.56-.02-.53-.07-1.05-.14-1.56h2.11l.26,2.79-.26-.11c.19-.97,.63-1.7,1.31-2.2,.68-.5,1.45-.75,2.3-.75,.21,0,.4,.01,.57,.04,.18,.03,.34,.07,.48,.11l-.04,2.02c-.4-.15-.83-.22-1.3-.22-.72,0-1.3,.15-1.74,.45s-.77,.7-.98,1.19c-.21,.49-.32,1.02-.32,1.57v6.18h-2.22Z"/>
          <path class="cls-5" d="M37.88,150.4c-.98,0-1.84-.23-2.59-.69-.74-.46-1.31-1.12-1.72-1.98-.4-.86-.6-1.87-.6-3.02s.21-2.17,.62-3.05c.41-.87,.99-1.55,1.73-2.04,.74-.48,1.59-.73,2.56-.73s1.82,.24,2.52,.71c.7,.48,1.17,1.16,1.42,2.04l-.26,.18v-2.66h2.2v11.09h-2.2v-2.71l.26,.11c-.25,.88-.72,1.56-1.42,2.04-.7,.48-1.54,.71-2.52,.71Zm.53-1.76c1,0,1.77-.34,2.32-1.03,.55-.69,.83-1.67,.83-2.95s-.28-2.26-.83-2.95-1.32-1.03-2.32-1.03-1.8,.36-2.37,1.07c-.56,.71-.85,1.7-.85,2.96s.28,2.23,.85,2.92c.56,.68,1.35,1.02,2.37,1.02Z"/>
          <path class="cls-5" d="M50.27,150.25l-4.75-11.07h2.31l3.78,9.26h-.57l3.83-9.26h2.22l-4.82,11.07h-2Z"/>
          <path class="cls-5" d="M67.93,148.97c-.5,.44-1.13,.79-1.89,1.04-.76,.26-1.54,.38-2.33,.38-1.17,0-2.19-.23-3.04-.68-.85-.45-1.5-1.11-1.96-1.98-.46-.87-.68-1.89-.68-3.08s.22-2.15,.67-3.01c.45-.87,1.07-1.54,1.86-2.02,.79-.48,1.71-.73,2.75-.73s1.86,.22,2.57,.66c.72,.44,1.27,1.07,1.66,1.88,.39,.81,.58,1.79,.58,2.94v.37h-8.16l.02-1.32h6.84l-.64,.79c.01-1.19-.22-2.1-.7-2.73-.48-.63-1.2-.95-2.13-.95-.98,0-1.75,.35-2.31,1.04s-.84,1.67-.84,2.92c0,1.39,.3,2.43,.9,3.11,.6,.68,1.48,1.02,2.64,1.02,.63,0,1.24-.1,1.83-.31,.59-.21,1.14-.52,1.67-.95l.68,1.58Z"/>
          <path class="cls-5" d="M74.55,150.4c-1.94,0-3.47-.47-4.6-1.41l.68-1.61c.59,.46,1.21,.79,1.86,1,.65,.21,1.36,.32,2.12,.32s1.34-.13,1.74-.38c.4-.26,.59-.62,.59-1.09,0-.4-.14-.71-.41-.93s-.73-.42-1.38-.58l-1.87-.44c-.97-.21-1.71-.57-2.21-1.09-.51-.52-.76-1.17-.76-1.95,0-.66,.18-1.24,.55-1.74,.37-.5,.88-.89,1.54-1.18,.66-.29,1.43-.43,2.31-.43,.79,0,1.54,.12,2.24,.36s1.31,.6,1.83,1.07l-.68,1.56c-.54-.42-1.1-.74-1.66-.96-.57-.21-1.14-.32-1.73-.32-.72,0-1.28,.14-1.67,.41-.4,.27-.59,.65-.59,1.13,0,.4,.12,.71,.36,.94,.24,.23,.65,.41,1.22,.54l1.87,.46c1.07,.23,1.85,.61,2.35,1.12s.75,1.17,.75,1.98c0,.98-.4,1.76-1.2,2.34-.8,.58-1.89,.87-3.27,.87Z"/>
          <path class="cls-5" d="M87.71,150.25v-15.66h5.5c1.69,0,3.12,.3,4.31,.91,1.19,.61,2.09,1.5,2.72,2.66,.62,1.17,.93,2.58,.93,4.23s-.32,3.09-.95,4.26-1.54,2.06-2.73,2.67c-1.19,.62-2.62,.92-4.29,.92h-5.5Zm2.27-1.89h3.08c1.92,0,3.37-.5,4.33-1.5,.97-1,1.45-2.49,1.45-4.47,0-3.95-1.93-5.92-5.79-5.92h-3.08v11.88Z"/>
          <path class="cls-5" d="M103.9,134.32h2.57v2.33h-2.57v-2.33Zm.15,15.93v-11.09h2.22v11.09h-2.22Z"/>
          <path class="cls-5" d="M113.4,150.4c-1.94,0-3.47-.47-4.6-1.41l.68-1.61c.59,.46,1.21,.79,1.86,1,.65,.21,1.36,.32,2.12,.32s1.34-.13,1.74-.38c.4-.26,.59-.62,.59-1.09,0-.4-.14-.71-.41-.93s-.73-.42-1.38-.58l-1.87-.44c-.97-.21-1.71-.57-2.21-1.09-.51-.52-.76-1.17-.76-1.95,0-.66,.18-1.24,.55-1.74,.37-.5,.88-.89,1.54-1.18,.66-.29,1.43-.43,2.31-.43,.79,0,1.54,.12,2.24,.36s1.31,.6,1.83,1.07l-.68,1.56c-.54-.42-1.1-.74-1.66-.96-.57-.21-1.14-.32-1.73-.32-.72,0-1.28,.14-1.67,.41-.4,.27-.59,.65-.59,1.13,0,.4,.12,.71,.36,.94,.24,.23,.65,.41,1.22,.54l1.87,.46c1.07,.23,1.85,.61,2.35,1.12s.75,1.17,.75,1.98c0,.98-.4,1.76-1.2,2.34-.8,.58-1.89,.87-3.27,.87Z"/>
          <path class="cls-5" d="M129.75,148.97c-.5,.44-1.13,.79-1.89,1.04-.76,.26-1.54,.38-2.33,.38-1.17,0-2.19-.23-3.04-.68-.85-.45-1.5-1.11-1.96-1.98-.46-.87-.68-1.89-.68-3.08s.22-2.15,.67-3.01c.45-.87,1.07-1.54,1.86-2.02,.79-.48,1.71-.73,2.75-.73s1.86,.22,2.57,.66c.72,.44,1.27,1.07,1.66,1.88,.39,.81,.58,1.79,.58,2.94v.37h-8.16l.02-1.32h6.84l-.64,.79c.01-1.19-.22-2.1-.7-2.73-.48-.63-1.2-.95-2.13-.95-.98,0-1.75,.35-2.31,1.04s-.84,1.67-.84,2.92c0,1.39,.3,2.43,.9,3.11,.6,.68,1.48,1.02,2.64,1.02,.63,0,1.24-.1,1.83-.31,.59-.21,1.14-.52,1.67-.95l.68,1.58Z"/>
          <path class="cls-5" d="M136.77,150.4c-.98,0-1.84-.23-2.59-.69-.74-.46-1.31-1.12-1.72-1.98-.4-.86-.6-1.87-.6-3.02s.21-2.17,.62-3.05c.41-.87,.99-1.55,1.73-2.04,.74-.48,1.59-.73,2.56-.73s1.82,.24,2.52,.71c.7,.48,1.17,1.16,1.42,2.04l-.26,.18v-2.66h2.2v11.09h-2.2v-2.71l.26,.11c-.25,.88-.72,1.56-1.42,2.04-.7,.48-1.54,.71-2.52,.71Zm.53-1.76c1,0,1.77-.34,2.32-1.03,.55-.69,.83-1.67,.83-2.95s-.28-2.26-.83-2.95-1.32-1.03-2.32-1.03-1.8,.36-2.37,1.07c-.56,.71-.85,1.7-.85,2.96s.28,2.23,.85,2.92c.56,.68,1.35,1.02,2.37,1.02Z"/>
          <path class="cls-5" d="M149.77,150.4c-1.94,0-3.47-.47-4.6-1.41l.68-1.61c.59,.46,1.21,.79,1.86,1,.65,.21,1.36,.32,2.12,.32s1.34-.13,1.74-.38c.4-.26,.59-.62,.59-1.09,0-.4-.14-.71-.41-.93s-.73-.42-1.38-.58l-1.87-.44c-.97-.21-1.71-.57-2.21-1.09-.51-.52-.76-1.17-.76-1.95,0-.66,.18-1.24,.55-1.74,.37-.5,.88-.89,1.54-1.18,.66-.29,1.43-.43,2.31-.43,.79,0,1.54,.12,2.24,.36s1.31,.6,1.83,1.07l-.68,1.56c-.54-.42-1.1-.74-1.66-.96-.57-.21-1.14-.32-1.73-.32-.72,0-1.28,.14-1.67,.41-.4,.27-.59,.65-.59,1.13,0,.4,.12,.71,.36,.94,.24,.23,.65,.41,1.22,.54l1.87,.46c1.07,.23,1.85,.61,2.35,1.12s.75,1.17,.75,1.98c0,.98-.4,1.76-1.2,2.34-.8,.58-1.89,.87-3.27,.87Z"/>
          <path class="cls-5" d="M166.11,148.97c-.5,.44-1.13,.79-1.89,1.04-.76,.26-1.54,.38-2.33,.38-1.17,0-2.19-.23-3.04-.68-.85-.45-1.5-1.11-1.96-1.98-.46-.87-.68-1.89-.68-3.08s.22-2.15,.67-3.01c.45-.87,1.07-1.54,1.86-2.02,.79-.48,1.71-.73,2.75-.73s1.86,.22,2.57,.66c.72,.44,1.27,1.07,1.66,1.88,.39,.81,.58,1.79,.58,2.94v.37h-8.16l.02-1.32h6.84l-.64,.79c.01-1.19-.22-2.1-.7-2.73-.48-.63-1.2-.95-2.13-.95-.98,0-1.75,.35-2.31,1.04s-.84,1.67-.84,2.92c0,1.39,.3,2.43,.9,3.11,.6,.68,1.48,1.02,2.64,1.02,.63,0,1.24-.1,1.83-.31,.59-.21,1.14-.52,1.67-.95l.68,1.58Z"/>
        </g>
        <g id="Group_363" data-name="Group 363">
          <circle id="Ellipse_51" data-name="Ellipse 51" class="cls-2" cx="87.69" cy="68.74" r="50"/>
          <g id="Group_362" data-name="Group 362">
            <path id="Path_283" data-name="Path 283" class="cls-1" d="M87.69,76.29c-10.39-.01-19.21-3.85-26.67-10.99-1.39-1.33-2.65-2.78-4.08-4.07-.5-.44-.54-1.2-.1-1.7,0,0,0,0,.01-.01,1.62-1.63,3.2-3.3,4.88-4.87,5.06-4.73,10.91-8.11,17.73-9.49,12.44-2.51,23.6,.22,33.27,8.58,2.05,1.77,3.82,3.82,5.71,5.74,.48,.43,.52,1.17,.09,1.65-.02,.02-.04,.04-.06,.07-2.4,2.58-4.97,5-7.69,7.24-6.59,5.15-14.73,7.92-23.1,7.86Zm-27.94-16.07c.41,.42,.79,.81,1.17,1.21,.4,.41,.79,.82,1.2,1.22,7.74,7.76,17.04,11.52,28.05,10.83,5.75-.34,11.33-2.14,16.19-5.23,3.34-2.23,6.4-4.85,9.1-7.82,.24-.25,.1-.32-.06-.48-.7-.7-1.39-1.41-2.1-2.11-7.85-7.8-17.21-11.66-28.35-10.88-5.99,.41-11.76,2.4-16.72,5.77-3.09,2.19-5.93,4.7-8.49,7.48h0Z"/>
            <path id="Path_284" data-name="Path 284" class="cls-1" d="M82.09,93.23c-2.44,.08-4.88-.09-7.28-.5-.19-.04-.37-.09-.55-.15-.68-.2-1.08-.91-.89-1.6,.16-.65,.81-1.06,1.46-.91,2.78,.5,5.62,.65,8.44,.46,5.28-.08,10.53-.75,15.65-2,3.52-.81,6.89-2.16,9.99-4,1.81-1.09,3.41-2.51,4.72-4.17,.35-.64,1.15-.87,1.78-.52,.64,.35,.87,1.15,.52,1.78-.07,.13-.16,.25-.27,.34-2.18,2.68-4.96,4.81-8.12,6.2-4.08,1.88-8.4,3.19-12.84,3.9-4.16,.74-8.38,1.13-12.61,1.17Z"/>
            <path id="Path_285" data-name="Path 285" class="cls-1" d="M87.13,87.77c-5.8,0-11.54-1.25-16.82-3.64-3.39-1.48-6.27-3.92-8.28-7.02-.85-1.39-1.46-2.91-1.8-4.5-.23-.71,.15-1.48,.87-1.71,.03,0,.06-.02,.09-.03,.72-.16,1.44,.3,1.6,1.02,0,.04,.01,.08,.02,.11,.94,4.32,3.66,7.22,7.39,9.3,3.7,1.95,7.75,3.16,11.92,3.56,3.04,.39,6.11,.44,9.16,.13,.71-.08,1.42-.2,2.12-.36,.65-.25,1.38,.07,1.63,.72,.03,.08,.05,.15,.07,.23,.18,.72-.25,1.33-1.12,1.54-2.25,.48-4.54,.7-6.84,.66Z"/>
            <path id="Path_286" data-name="Path 286" class="cls-1" d="M93.2,82.92c-.63,0-1.27,.01-1.9,0-.9-.03-1.41-.5-1.41-1.28,0-.73,.59-1.32,1.32-1.33,.05,0,.1,0,.15,0,2.87,0,5.73-.26,8.55-.78,3.49-.52,6.84-1.76,9.82-3.65,1.62-1.05,2.94-2.51,3.81-4.23,.22-.69,.96-1.07,1.65-.85,.05,.02,.1,.04,.15,.06,.72,.4,.99,1.29,.63,2.02-.71,1.49-1.72,2.82-2.97,3.9-2.8,2.48-6.17,3.83-9.73,4.76-3.3,.83-6.67,1.29-10.07,1.37Z"/>
            <path id="Path_287" data-name="Path 287" class="cls-1" d="M87.61,71.89c-6.45-.03-11.65-5.29-11.62-11.74,.03-6.45,5.29-11.65,11.74-11.62,6.45,.03,11.65,5.29,11.62,11.74,0,.07,0,.15,0,.22-.12,6.38-5.36,11.47-11.73,11.4Zm.07-2.47c5.01,0,9.06-4.08,9.05-9.09,0-5.01-4.08-9.06-9.09-9.05-5,0-9.05,4.06-9.05,9.06,.02,5.01,4.08,9.06,9.09,9.08Z"/>
            <path id="Path_288" data-name="Path 288" class="cls-1" d="M87.7,64.87c-2.57,0-4.65-2.09-4.65-4.67,0-2.57,2.09-4.65,4.67-4.65,2.57,0,4.64,2.08,4.65,4.65,0,2.57-2.07,4.66-4.63,4.67-.01,0-.02,0-.03,0Zm2.05-4.52c.02-1.13-.87-2.06-2-2.08-.03,0-.05,0-.08,0-1.06-.07-1.98,.74-2.04,1.81,0,.05,0,.09,0,.14-.02,1.13,.88,2.06,2,2.08,.02,0,.05,0,.07,0,1.07,.06,1.98-.76,2.04-1.82,0-.04,0-.08,0-.12h0Z"/>
          </g>
        </g>
      </g>
    </g>
  </g>
</svg>