<svg xmlns="http://www.w3.org/2000/svg" width="136" height="136" viewBox="0 0 136 136">
  <defs>
    <style>
      .cls-1 {
        fill: #fba474;
      }

      .cls-2 {
        fill: #fff;
      }
    </style>
  </defs>
  <g id="Group_365" data-name="Group 365" transform="translate(-355.899 -64.557)">
    <ellipse id="Ellipse_52" data-name="Ellipse 52" class="cls-1" cx="68" cy="68" rx="68" ry="68" transform="translate(355.899 64.557)"/>
    <g id="Group_364" data-name="Group 364" transform="translate(391.258 84.337)">
      <path id="Path_289" data-name="Path 289" class="cls-2" d="M483.637,153.884c-.21,2.173-.366,4.354-.643,6.519a32.741,32.741,0,0,1-2.8,9.844c-3.82,8.139-13.04,8.217-17.9,2.864-.152-.168-.259-.433-.589-.411a2.106,2.106,0,0,0-.095,1.118q-.012,10.029-.011,20.058a3.467,3.467,0,0,1-.136,1.25,1.25,1.25,0,0,1-1.466.786,1.315,1.315,0,0,1-1.188-1.4q-.031-2.387,0-4.775c.005-.478-.061-.731-.64-.573a27.67,27.67,0,0,1-14.761-.061,1.638,1.638,0,0,0-.315,0c0,1.8.022,3.6-.01,5.391a1.393,1.393,0,1,1-2.786.03c-.016-.318-.008-.636-.008-.955q0-9.87-.006-19.739a2.312,2.312,0,0,0-.1-1.149c-.444.072-.613.461-.874.714a10.813,10.813,0,0,1-10.7,3,9.516,9.516,0,0,1-5.7-4.137,24.369,24.369,0,0,1-3.764-10.267,67.8,67.8,0,0,1,4.659-36.863,5.468,5.468,0,0,1,5.487-3.721,6.17,6.17,0,0,1,3.274,1.407c.269-.3.023-.531-.065-.756a19.1,19.1,0,0,0-3.427-5.821c-2.014-2.274-2.266-4.841-1.76-7.641a24.44,24.44,0,0,1,1.937-5.925,5.463,5.463,0,0,1,2.516-2.771,3.209,3.209,0,0,1,4.765,2.733,6.673,6.673,0,0,1-.782,3.47c-.251.515-.76,1.265-.241,1.619s1-.418,1.436-.805c.526-.472,1-1.009,1.561-1.43,3.074-2.3,6.463-1.366,7.956,2.173.37.878.691,1.779,1.1,2.637a3.508,3.508,0,0,0,3.724,2.219,3.211,3.211,0,0,0,2.513-1.343,10.455,10.455,0,0,0,1.39-2.847,7.42,7.42,0,0,1,1.17-2.244,4.537,4.537,0,0,1,5.6-1.436,8.774,8.774,0,0,1,2.873,2.134c.444.46.957,1.33,1.573.92.49-.326-.058-1.156-.326-1.721a6.646,6.646,0,0,1-.735-2.955,3.3,3.3,0,0,1,1.756-3.161,3.361,3.361,0,0,1,3.686.436,4.224,4.224,0,0,1,1.294,1.388,19.223,19.223,0,0,1,2.691,10.108,6.219,6.219,0,0,1-1.469,3.78,24.424,24.424,0,0,0-3.768,6.118c-.142.343-.413.669-.269,1.142a6.6,6.6,0,0,1,3.263-1.426c2.4-.2,4.457,1.169,5.581,3.747a64.244,64.244,0,0,1,4.249,14.287,69.556,69.556,0,0,1,1.131,10.535,10.822,10.822,0,0,0,.148,1.146Zm-62.454-1.61a47.2,47.2,0,0,0,.9,10.122,21.133,21.133,0,0,0,3.469,8.682,6.451,6.451,0,0,0,3.659,2.556,8.219,8.219,0,0,0,8.73-2.919,25.742,25.742,0,0,0,4.241-7.537c.555-1.392,1.036-1.547,2.428-1.106a20.615,20.615,0,0,0,12.615.023c1.471-.459,1.918-.324,2.5,1.133a27.1,27.1,0,0,0,4.316,7.615c3.593,4.26,10.533,4.5,13.478-1.581a29.049,29.049,0,0,0,2.687-9.21,66.7,66.7,0,0,0-4.228-32.661,9.982,9.982,0,0,0-.91-1.905,2.354,2.354,0,0,0-3.8-.55,6.271,6.271,0,0,0-2.023,2.933c-.6,1.852-1.507,3.571-2.218,5.373-2.089,5.294-3.062,10.86-3.956,16.443-.245,1.531-.807,1.864-2.346,1.477a39.467,39.467,0,0,0-19.608.006c-1.475.374-2.058.039-2.289-1.426-.522-3.315-1.142-6.61-1.89-9.883a70.79,70.79,0,0,0-4.955-13.252,3.435,3.435,0,0,0-3.241-2.369c-1.576.09-2.132,1.436-2.652,2.707A68.173,68.173,0,0,0,421.183,152.274Zm50.8-41.182a18.782,18.782,0,0,0-2.082-7.558,4.374,4.374,0,0,0-.735-.9c-.191-.18-.448-.408-.749-.23-.278.164-.277.475-.262.762a4.37,4.37,0,0,0,.54,1.7,5.832,5.832,0,0,1,.7,2.746,2.984,2.984,0,0,1-4.1,2.9,5.312,5.312,0,0,1-2.12-1.366c-.373-.376-.722-.78-1.121-1.128-1.828-1.594-3.267-1.227-4.126,1.049a19.769,19.769,0,0,1-1.627,3.44,6.427,6.427,0,0,1-10.713,0,18.167,18.167,0,0,1-1.551-3.242c-.952-2.562-2.468-2.912-4.44-1.032-.281.268-.539.561-.811.839a5.707,5.707,0,0,1-1.518,1.141,3.154,3.154,0,0,1-3.594-.11,3.3,3.3,0,0,1-1.093-3.448,10.217,10.217,0,0,1,.746-2.087c.288-.694.89-1.734.1-2.094-.831-.382-1.3.729-1.637,1.435a19.86,19.86,0,0,0-1.791,5.634,5.4,5.4,0,0,0,1.216,4.841,19.266,19.266,0,0,1,2.652,3.955,18.2,18.2,0,0,1,2.492,10.77,1.761,1.761,0,0,0,.166.917c.5,1.166,1.018,2.329,1.462,3.519a.716.716,0,0,0,.941.541,8.534,8.534,0,0,0,4.52-1.933,11.579,11.579,0,0,1,14.988.009,8.254,8.254,0,0,0,4.523,1.916c.3.04.681.2.8-.252.511-2.009,2.092-3.692,1.684-6a9.27,9.27,0,0,1,.273-3.263,23.813,23.813,0,0,1,5.21-10.528A4.172,4.172,0,0,0,471.982,111.092Zm-21.238,60.387a22.968,22.968,0,0,0,7.32-1.041c.548-.187.7-.472.767-1.058.163-1.54-.815-2.663-1.278-3.97-.159-.448-.513-.273-.805-.2a24.835,24.835,0,0,1-11.636-.018c-.371-.089-.661-.113-.846.344-.318.784-.741,1.526-1.048,2.314-.583,1.492-.139,2.377,1.355,2.82A23.234,23.234,0,0,0,450.744,171.479Zm-7.65,9.6c0,1.309.079,2.55-.025,3.775-.082.956.354,1.279,1.157,1.527a26.1,26.1,0,0,0,9.963.709,14.246,14.246,0,0,0,3.912-.872c.367-.139.719-.232.709-.764-.027-1.438-.009-2.877-.009-4.371A29.369,29.369,0,0,1,443.094,181.081Zm15.707-7.858c-.35.084-.587.138-.823.2s-.473.143-.714.194a28.191,28.191,0,0,1-13.316-.209c-.715-.191-.907-.091-.868.653a30.059,30.059,0,0,1,0,3.178.92.92,0,0,0,.762,1.054,19.5,19.5,0,0,0,5.188.964,23.813,23.813,0,0,0,8.9-.921,1.083,1.083,0,0,0,.894-1.279C458.754,175.826,458.8,174.589,458.8,173.223Zm-14.962-31.465c2.379-.017,2.4-.047,4.11,1.046,1.58,1.008,5.025,1.086,6.58-.442a2.6,2.6,0,0,1,2.507-.676c2.787.457,4.742-.761,5.36-3.211.373-1.477.372-1.476-1.169-1.838a2.775,2.775,0,0,1-.712-.2c-.821-.454-1.218-.156-1.679.624-3.623,6.139-10.849,6.623-15.1,1.084-.51-.664-.643-1.833-1.547-1.925a7.88,7.88,0,0,0-2.549.613c-.068.018-.139.027-.207.045-.185.047-.258.121-.262.357a3.983,3.983,0,0,0,3.476,4.347C443.125,141.678,443.618,141.726,443.839,141.758Zm7.085-2.57a7.054,7.054,0,0,0,5.845-4.146c.183-.482-.071-.643-.348-.857a9.043,9.043,0,0,0-11,.033c-.259.19-.461.356-.32.779A7.122,7.122,0,0,0,450.924,139.188Zm10.116,5.519c.175-.583-.06-.679-.521-.529a9.154,9.154,0,0,1-3.563.352,1.647,1.647,0,0,0-1.067.352,8.534,8.534,0,0,1-9.848.028,1.646,1.646,0,0,0-1.056-.386,9.276,9.276,0,0,1-3.667-.365c-.417-.136-.6-.023-.506.446.189.97.385,1.94.523,2.918.071.507.217.6.742.5a43.557,43.557,0,0,1,17.783.011c.466.1.619.025.685-.448C460.68,146.6,460.877,145.634,461.04,144.708Z" transform="translate(-418.354 -99.494)"/>
    </g>
  </g>
</svg>
