<?xml version="1.0" encoding="UTF-8"?>
<svg id="Layer_2" data-name="Layer 2" xmlns="http://www.w3.org/2000/svg" xmlns:xlink="http://www.w3.org/1999/xlink" viewBox="0 0 175 175">
  <defs>
    <style>
      .cls-1 {
        fill: #fff;
      }

      .cls-2 {
        fill: #fba474;
      }

      .cls-3 {
        clip-path: url(#clippath);
      }

      .cls-4 {
        fill: none;
      }

      .cls-5 {
        fill: #58849b;
      }
    </style>
    <clipPath id="clippath">
      <rect class="cls-4" width="175" height="175"/>
    </clipPath>
  </defs>
  <g id="Layer_1-2" data-name="Layer 1">
    <g class="cls-3">
      <g>
        <g>
          <path class="cls-5" d="M30.62,139.57v-15.66h1.85l6.16,14.01h-.95l6.09-14.01h1.85v15.66h-2.07v-12.52l.7,.13-5.37,12.39h-1.54l-5.46-12.39,.75-.13,.02,12.52h-2.05Z"/>
          <path class="cls-5" d="M52.64,140.21l-5.04-11.73h2.31l3.78,9.28-1.06,2.44Zm-3.96,4.36l-.48-1.72c.67-.15,1.24-.33,1.71-.54,.46-.21,.85-.48,1.16-.8,.31-.32,.57-.74,.79-1.25l.75-1.72,.53-.77,3.83-9.28h2.22l-5.17,11.97c-.41,.94-.88,1.68-1.4,2.23-.52,.55-1.11,.97-1.77,1.27s-1.38,.5-2.16,.62Z"/>
          <path class="cls-5" d="M65.03,139.73c-.98,0-1.84-.23-2.59-.69-.74-.46-1.31-1.12-1.72-1.98s-.6-1.87-.6-3.02,.21-2.17,.62-3.05c.41-.87,.99-1.55,1.73-2.04,.74-.48,1.59-.73,2.56-.73s1.82,.24,2.52,.71c.7,.48,1.17,1.16,1.42,2.04l-.26,.18v-2.66h2.2v11.09h-2.2v-2.71l.26,.11c-.25,.88-.72,1.56-1.42,2.04-.7,.48-1.54,.71-2.52,.71Zm.53-1.76c1,0,1.77-.34,2.32-1.03,.55-.69,.83-1.67,.83-2.95s-.28-2.26-.83-2.95c-.55-.69-1.32-1.03-2.32-1.03s-1.8,.36-2.37,1.07-.85,1.7-.85,2.96,.28,2.23,.85,2.92,1.35,1.02,2.37,1.02Z"/>
          <path class="cls-5" d="M78.03,139.73c-1.94,0-3.47-.47-4.6-1.41l.68-1.61c.59,.45,1.21,.79,1.86,1,.65,.21,1.36,.32,2.12,.32s1.34-.13,1.74-.38c.4-.26,.59-.62,.59-1.09,0-.4-.14-.71-.41-.94-.27-.23-.73-.42-1.38-.58l-1.87-.44c-.97-.21-1.71-.57-2.21-1.09-.51-.52-.76-1.17-.76-1.95,0-.66,.18-1.24,.55-1.74,.37-.5,.88-.89,1.54-1.18,.66-.29,1.43-.43,2.31-.43,.79,0,1.54,.12,2.24,.36,.7,.24,1.31,.6,1.83,1.07l-.68,1.56c-.54-.43-1.1-.74-1.66-.96-.57-.21-1.14-.32-1.73-.32-.72,0-1.28,.14-1.67,.41-.4,.27-.59,.65-.59,1.13,0,.4,.12,.71,.36,.94,.24,.23,.65,.41,1.22,.54l1.87,.46c1.07,.23,1.85,.61,2.35,1.12,.5,.51,.75,1.17,.75,1.98,0,.98-.4,1.76-1.2,2.34-.8,.58-1.89,.87-3.27,.87Z"/>
          <path class="cls-5" d="M83.51,130.2v-1.72h7.44v1.72h-7.44Zm7.41,7.48v1.8c-.26,.09-.53,.15-.79,.19-.26,.04-.55,.05-.86,.05-1.13,0-2.01-.32-2.65-.96-.64-.64-.96-1.58-.96-2.83v-10.23l2.22-.77v10.82c0,.54,.08,.96,.24,1.27,.16,.3,.38,.51,.67,.64s.61,.19,.96,.19c.21,0,.4-.01,.57-.04s.37-.07,.59-.13Z"/>
          <path class="cls-5" d="M92.97,139.57v-16.19h2.22v7.35l-.31,.13c.32-.87,.84-1.52,1.55-1.97,.71-.45,1.53-.67,2.45-.67,2.65,0,3.98,1.49,3.98,4.47v6.89h-2.22v-6.8c0-.95-.19-1.65-.57-2.09-.38-.44-.97-.66-1.76-.66-.95,0-1.71,.29-2.28,.88-.56,.59-.85,1.37-.85,2.35v6.31h-2.22Z"/>
          <path class="cls-5" d="M115.3,138.3c-.5,.44-1.13,.79-1.89,1.04s-1.54,.38-2.33,.38c-1.17,0-2.19-.23-3.04-.68s-1.5-1.11-1.96-1.98c-.46-.87-.68-1.89-.68-3.08s.22-2.15,.67-3.01c.45-.87,1.07-1.54,1.86-2.02s1.71-.73,2.75-.73,1.86,.22,2.57,.66,1.27,1.07,1.66,1.88,.58,1.79,.58,2.94v.37h-8.16l.02-1.32h6.84l-.64,.79c.01-1.19-.22-2.1-.7-2.73-.48-.63-1.2-.95-2.13-.95-.98,0-1.75,.35-2.31,1.04-.56,.7-.84,1.67-.84,2.92,0,1.39,.3,2.43,.9,3.11,.6,.68,1.48,1.02,2.64,1.02,.63,0,1.24-.1,1.83-.31,.59-.21,1.14-.52,1.67-.95l.68,1.58Z"/>
          <path class="cls-5" d="M121.92,139.73c-1.94,0-3.47-.47-4.6-1.41l.68-1.61c.59,.45,1.21,.79,1.86,1,.65,.21,1.36,.32,2.12,.32s1.34-.13,1.74-.38c.4-.26,.59-.62,.59-1.09,0-.4-.14-.71-.41-.94-.27-.23-.73-.42-1.38-.58l-1.87-.44c-.97-.21-1.71-.57-2.21-1.09-.51-.52-.76-1.17-.76-1.95,0-.66,.18-1.24,.55-1.74,.37-.5,.88-.89,1.54-1.18,.66-.29,1.43-.43,2.31-.43,.79,0,1.54,.12,2.24,.36,.7,.24,1.31,.6,1.83,1.07l-.68,1.56c-.54-.43-1.1-.74-1.66-.96-.57-.21-1.14-.32-1.73-.32-.72,0-1.28,.14-1.67,.41-.4,.27-.59,.65-.59,1.13,0,.4,.12,.71,.36,.94,.24,.23,.65,.41,1.22,.54l1.87,.46c1.07,.23,1.85,.61,2.35,1.12,.5,.51,.75,1.17,.75,1.98,0,.98-.4,1.76-1.2,2.34-.8,.58-1.89,.87-3.27,.87Z"/>
          <path class="cls-5" d="M128.83,123.65h2.57v2.33h-2.57v-2.33Zm.15,15.93v-11.09h2.22v11.09h-2.22Z"/>
          <path class="cls-5" d="M138.73,139.73c-.98,0-1.84-.23-2.59-.69-.74-.46-1.31-1.12-1.72-1.98s-.6-1.87-.6-3.02,.21-2.17,.62-3.05c.41-.87,.99-1.55,1.73-2.04,.74-.48,1.59-.73,2.56-.73s1.82,.24,2.52,.71c.7,.48,1.17,1.16,1.42,2.04l-.26,.18v-2.66h2.2v11.09h-2.2v-2.71l.26,.11c-.25,.88-.72,1.56-1.42,2.04-.7,.48-1.54,.71-2.52,.71Zm.53-1.76c1,0,1.77-.34,2.32-1.03,.55-.69,.83-1.67,.83-2.95s-.28-2.26-.83-2.95c-.55-.69-1.32-1.03-2.32-1.03s-1.8,.36-2.37,1.07-.85,1.7-.85,2.96,.28,2.23,.85,2.92,1.35,1.02,2.37,1.02Z"/>
          <path class="cls-5" d="M63.53,166.15c-1.6,0-2.97-.32-4.11-.96-1.14-.64-2.02-1.55-2.63-2.75s-.91-2.64-.91-4.32,.3-3.09,.91-4.29,1.48-2.12,2.61-2.75c1.13-.63,2.46-.95,4-.95,1.1,0,2.12,.16,3.05,.48,.93,.32,1.73,.8,2.39,1.43l-.81,1.69c-.76-.62-1.5-1.06-2.22-1.33-.72-.27-1.51-.41-2.38-.41-1.7,0-3,.52-3.88,1.56-.89,1.04-1.33,2.56-1.33,4.55s.46,3.58,1.38,4.63c.92,1.05,2.26,1.57,4.04,1.57,.7,0,1.39-.07,2.07-.2,.67-.13,1.3-.31,1.87-.53l-.53,.99v-5.21h-3.65v-1.69h5.72v7.37c-.44,.23-.96,.43-1.57,.59-.61,.16-1.25,.29-1.94,.37-.68,.09-1.37,.13-2.06,.13Z"/>
          <path class="cls-5" d="M72.35,165.97v-7.96c0-.51-.01-1.03-.03-1.56-.02-.53-.07-1.05-.14-1.56h2.11l.26,2.79-.26-.11c.19-.97,.63-1.7,1.31-2.2,.68-.5,1.45-.75,2.3-.75,.21,0,.4,.01,.57,.04,.18,.03,.34,.07,.48,.11l-.04,2.02c-.4-.15-.83-.22-1.3-.22-.72,0-1.3,.15-1.74,.45s-.77,.7-.98,1.19c-.21,.49-.32,1.02-.32,1.57v6.18h-2.22Z"/>
          <path class="cls-5" d="M84.7,166.13c-.98,0-1.84-.23-2.59-.69-.74-.46-1.31-1.12-1.72-1.98s-.6-1.87-.6-3.02,.21-2.17,.62-3.05c.41-.87,.99-1.55,1.73-2.04,.74-.48,1.59-.73,2.56-.73s1.82,.24,2.52,.71c.7,.48,1.17,1.16,1.42,2.04l-.26,.18v-2.66h2.2v11.09h-2.2v-2.71l.26,.11c-.25,.88-.72,1.56-1.42,2.04-.7,.48-1.54,.71-2.52,.71Zm.53-1.76c1,0,1.77-.34,2.32-1.03,.55-.69,.83-1.67,.83-2.95s-.28-2.26-.83-2.95c-.55-.69-1.32-1.03-2.32-1.03s-1.8,.36-2.37,1.07-.85,1.7-.85,2.96,.28,2.23,.85,2.92,1.35,1.02,2.37,1.02Z"/>
          <path class="cls-5" d="M97.08,165.97l-4.75-11.07h2.31l3.78,9.26h-.57l3.83-9.26h2.22l-4.82,11.07h-2Z"/>
          <path class="cls-5" d="M105.46,150.05h2.57v2.33h-2.57v-2.33Zm.15,15.93v-11.09h2.22v11.09h-2.22Z"/>
          <path class="cls-5" d="M114.97,166.13c-1.94,0-3.47-.47-4.6-1.41l.68-1.61c.59,.45,1.21,.79,1.86,1,.65,.21,1.36,.32,2.12,.32s1.34-.13,1.74-.38c.4-.26,.59-.62,.59-1.09,0-.4-.14-.71-.41-.94-.27-.23-.73-.42-1.38-.58l-1.87-.44c-.97-.21-1.71-.57-2.21-1.09-.51-.52-.76-1.17-.76-1.95,0-.66,.18-1.24,.55-1.74,.37-.5,.88-.89,1.54-1.18,.66-.29,1.43-.43,2.31-.43,.79,0,1.54,.12,2.24,.36,.7,.24,1.31,.6,1.83,1.07l-.68,1.56c-.54-.43-1.1-.74-1.66-.96-.57-.21-1.14-.32-1.73-.32-.72,0-1.28,.14-1.67,.41-.4,.27-.59,.65-.59,1.13,0,.4,.12,.71,.36,.94,.24,.23,.65,.41,1.22,.54l1.87,.46c1.07,.23,1.85,.61,2.35,1.12,.5,.51,.75,1.17,.75,1.98,0,.98-.4,1.76-1.2,2.34-.8,.58-1.89,.87-3.27,.87Z"/>
        </g>
        <g id="Group_375" data-name="Group 375">
          <circle id="Ellipse_57" data-name="Ellipse 57" class="cls-2" cx="87.6" cy="53.02" r="50"/>
          <g id="Group_374" data-name="Group 374">
            <path id="Path_308" data-name="Path 308" class="cls-1" d="M113.9,31.65c-.23,.43-.49,.84-.77,1.24-4.7,5.87-7.76,12.57-10.03,19.69-2.17,6.79-6.67,11.51-13.22,14.25-1.89,.83-3.83,1.55-5.81,2.14-5.47,1.64-10.67,4.05-15.44,7.18-.62,.39-1.31,1.25-2.06,.59-.81-.71,0-1.47,.42-2.05,2.84-3.81,2.84-8.14,2.21-12.51-2.06-14.36,10.76-29.83,27.12-27.5,5.52,.79,10.53-1.19,15.45-3.36,.75-.33,1.52-.97,2.13,.33Zm-12.58,8.07c-3.22,1.52-6.66,2.37-9.98,3.57-5.36,1.92-9.84,5.73-12.58,10.72-2.47,4.29-3.62,9.06-5.24,13.83,15.45-8.57,23.51-15.92,27.39-25.12-1.21,.94-2.18,1.72-3.18,2.47-.5,.38-1.12,.97-1.68,.33-.69-.79,.11-1.24,.66-1.68,1.69-1.19,3.24-2.57,4.6-4.12Zm-27.45,21.29c.43-1.12,.86-2.23,1.29-3.35,3.31-8.52,9.18-14.28,18.08-16.82,1.44-.41,2.86-.89,4.25-1.44,2.01-.71,3.87-1.79,5.49-3.18-3.23,.84-6.4,.04-9.58-.02-13.94-.26-25.19,13.56-22.12,27.53,.1-.58,.16-.89,.21-1.21,.77-4.83,2.07-9.48,5-13.5,.44-.61,.92-1.83,1.94-.98,.9,.75-.2,1.38-.59,1.95-2.28,3.26-3.65,7.06-3.97,11.02Zm-.51,10.24c4.9-2.7,10.38-3.66,15.42-5.78,6.36-2.67,10.72-7.1,12.81-13.74,1.04-3.33,2.32-6.59,3.81-9.74,.4-.85,1.07-1.61,1.13-2.92-2.2,2.26-4.12,4.8-5.69,7.54-4.28,7.16-9.73,13.17-17.17,17.19-.44,.24-1.04,.36-1.29,1.15,3.21-1.08,6.17-2.79,8.72-5.02,.5-.42,1.06-.94,1.62-.18,.45,.61-.06,1.05-.5,1.43-2.84,2.51-6.16,4.41-9.76,5.6-.49,.16-1.22,.41-1.35-.09-.51-1.96-1.5-.71-2.18-.34-2.2,1.19-4.1,2.87-5.57,4.9h0Z"/>
            <path id="Path_309" data-name="Path 309" class="cls-1" d="M95.57,32.27c-5.19-.49-10.25-.16-15,2.31-9.68,5.05-14.55,13.04-14.22,23.93,.24,7.23-1.42,14.4-4.79,20.81-.28,.58-.6,1.13-.96,1.66-.34,.59-1.09,.81-1.69,.49-.68-.29-.99-1.08-.7-1.76,0-.02,.01-.03,.02-.05,.19-.46,.41-.91,.67-1.33,3.09-5.81,4.67-12.31,4.59-18.9-.24-13.99,6.48-24.03,18.6-28.58,4.75-1.78,9.66-1.79,14.58-1.34,6.2,.56,11.76-.78,16.57-4.84,.82-.69,1.74-1.26,2.56-.12,.73,1.01-.04,1.67-.79,2.31-5.65,4.77-12.23,6.22-19.44,5.41Z"/>
            <path id="Path_310" data-name="Path 310" class="cls-1" d="M120.8,30.54c.02,.51-.21,1-.62,1.31-3.21,2.99-4.76,6.87-5.94,10.96-.5,1.71-1.03,3.41-1.57,5.11-4.44,13.94-13.71,22.89-27.8,26.84-1.44,.4-2.88,.85-4.34,1.16-5.45,1.13-9.59,4.21-12.98,8.49-.18,.22-.35,.45-.52,.68-.58,.8-1.24,1.55-2.28,.81-1.03-.72-.64-1.61-.04-2.42,3.55-4.76,7.93-8.38,13.78-9.96,2.48-.67,4.97-1.28,7.42-2.05,11.83-3.68,19.59-11.56,23.66-23.16,1.22-3.5,2.21-7.08,3.44-10.57,1.05-2.98,2.81-5.66,5.11-7.81,.45-.58,1.23-.81,1.92-.56,.49,.18,.79,.67,.75,1.19Z"/>
            <path id="Path_311" data-name="Path 311" class="cls-1" d="M94.18,47.81c0,.7-.5,.91-.9,1.19-4.65,3.31-9.05,6.91-12.59,11.44-.38,.49-.84,.9-1.43,.46-.61-.46-.28-1.01,.09-1.49,3.7-4.79,8.32-8.55,13.24-11.98,.67-.47,1.32-.58,1.59,.37Z"/>
            <path id="Path_312" data-name="Path 312" class="cls-1" d="M95.1,38.89c.02,.68-.48,.8-.99,.88-3.59,.6-6.71,2.29-9.73,4.21-.55,.35-1.19,.79-1.68,.07-.4-.59,.1-1.06,.61-1.39,3.13-2,6.35-3.83,10.09-4.43,1.22-.19,1.66,.01,1.7,.66Z"/>
          </g>
        </g>
      </g>
    </g>
  </g>
</svg>